<svg xmlns="http://www.w3.org/2000/svg" viewBox="0 0 100 100"><g fill="none" stroke="#FFF" stroke-miterlimit="10"><g opacity=".2"><path d="M37.5 57.6L50 50.4l12.5 7.2v14.6L50 79.5l-12.5-7.3zm-.1 0l12.5 7.3m0 0l12.5-7.3M50.5 65v14"/><path d="M37.5 43.1L50 35.8l12.5 7.3v14.5L50 64.9l-12.5-7.3zm.1 0l12.5 7.2m0 0l12.5-7.2M50.5 50v15"/><path d="M25.5 35.8L38 28.6l12.5 7.2v14.6L38 57.7l-12.5-7.3zm-.5 0l12.6 7.3m0 0l12.5-7.3M37.5 43v15"/><path d="M25.5 50.4L38 43.2l12.5 7.2V65L38 72.3 25.5 65zm-.5 0l12.6 7.3m0 0l12.5-7.3M37.5 58v14m-12.4-7l12.5-7.3m24.8 14.5l-12.5-7.3M37.5 29v14"/></g><g opacity=".2"><path d="M50.5 50.3l12-7.2 12 7.2v14.6l-12 7.3-12-7.3zm-.7 0l12.5 7.3m0 0l12.6-7.3M62.5 58v14"/><path d="M50.5 35.8l12-7.3 12 7.3v14.5l-12 7.3-12-7.3zm-.5 0L62.5 43m0 0l12.1-7m-12.1 7v15"/><path d="M37.5 28.6L50 21.3l12.5 7.3v14.5L50 50.4l-12.5-7.3zm0 0L50 35.8m0 0l12.5-7.2m-12 7.4v14"/><path d="M37.5 43.1L50 35.9l12.5 7.2v14.6L50 65l-12.5-7.3zm0 0L50 50.4m0 0l12.5-7.3m-12 6.9v15m-12.9-7.3L50 50.4m24.9 14.5l-12.6-7.3M50.5 36V21"/></g><path d="M25.5 35.9L50 21.4l24.5 14.5V65L50 79.5 25.5 65zm-.5 0l25 14.5m0 0l24.6-14.3M50.5 50v29"/></g></svg>