<svg xmlns="http://www.w3.org/2000/svg" viewBox="0 -25 960 225"><path d="M-4874.7 799.3c-.3-3.9-1.8-6.9-4.2-9-2.7-2.1-6.6-3.3-11.4-3.3-3.6 0-6.6.6-9.3 2.1-2.7 1.5-4.2 3.6-4.2 6.3s1.5 4.8 4.2 6 6.3 2.4 10.8 3.3c4.2.9 9 1.8 13.8 2.7s9.6 2.4 13.8 4.5c4.2 2.1 7.8 4.8 10.8 8.4 2.7 3.6 4.2 8.4 4.2 14.7 0 1.8-.3 4.5-1.2 7.8-.9 3.6-2.7 6.9-5.7 10.2s-7.2 6.3-12.6 9c-5.7 2.4-13.2 3.9-22.5 3.9-3.3 0-7.2-.3-11.7-1.2-4.5-.6-8.7-2.1-12.9-4.2-4.2-2.1-7.8-5.4-11.1-9.3-3.3-4.2-5.1-9.6-5.4-16.5h25.8c0 2.4.6 4.2 1.5 5.7s2.1 3 3.6 3.9 3.3 1.8 5.1 2.4c1.8.6 3.6.6 5.7.6 1.8 0 3.3 0 5.1-.3s3.3-.9 4.8-1.5 2.7-1.8 3.6-3 1.5-2.7 1.5-4.8c0-2.4-1.5-4.5-4.2-5.7s-6.3-2.1-10.2-3c-4.2-.9-8.4-1.8-13.2-2.7-4.8-.9-9.3-2.4-13.2-4.5-4.2-2.1-7.5-4.8-10.2-8.7-2.7-3.6-4.2-8.7-4.2-15 0-3.6.6-7.2 2.1-10.8s3.6-6.6 6.6-9.6c3-2.7 6.9-5.1 12-6.9 4.8-1.8 10.8-2.7 17.7-2.7 12 0 21.6 2.7 28.8 7.8 7.2 5.1 11.4 12.9 12 22.8l-26.1.6zm95.1 6.9c0-3.3-.6-6-1.5-8.1s-2.1-3.6-3.6-4.8-3-1.8-4.8-2.4c-1.8-.6-3.6-.6-5.1-.6-3.9 0-7.2.9-9.6 2.7s-4.2 4.2-5.4 7.2-2.1 6-2.4 9.3-.6 6.6-.6 9.6.3 6.3.9 9.3 1.5 5.7 3 8.4c1.5 2.4 3.3 4.5 5.4 6 2.4 1.5 5.1 2.4 8.4 2.4 5.1 0 8.7-1.5 11.4-4.2s4.2-6.3 4.8-11.1l25.5.9c-.9 5.1-2.4 9.6-4.5 14.1-2.1 4.2-4.8 8.1-8.1 11.1s-7.2 5.7-12 7.2c-4.8 1.8-10.2 2.7-16.5 2.7-7.5 0-14.1-1.2-19.8-3.6-5.7-2.4-10.5-5.7-14.1-9.9-3.9-4.2-6.6-9.3-8.7-15-1.8-6-3-12.3-3-19.5 0-7.5.9-14.1 3-20.4 2.1-6 5.1-11.4 9-15.6 3.9-4.2 8.7-7.8 14.1-10.2s11.7-3.6 18.9-3.6c6.9 0 12.9.9 18 3s9.3 4.8 12.9 8.1c3.3 3.3 6 7.5 7.8 11.7 1.8 4.5 3 9 3.3 14.1l-26.7 1.2zm35.1-64.2c0-1.8.3-3.9 1.2-5.7.9-1.8 1.8-3.3 3.3-4.8 1.2-1.5 3-2.7 4.8-3.6s3.9-1.5 6-1.5c1.8 0 3.9.3 5.7 1.2 1.8.9 3.3 1.8 4.8 3.3s2.7 3 3.3 4.8c.9 1.8 1.2 3.6 1.2 5.7s-.3 3.9-1.2 5.7c-.9 1.8-1.8 3.3-3.3 4.8s-3 2.7-4.8 3.3c-1.8.9-3.9 1.2-6 1.2s-4.2-.3-6-1.5c-1.8-.9-3.6-2.1-4.8-3.3-1.2-1.5-2.4-3-3.3-4.8-.3-1.2-.9-3-.9-4.8zm2.1 28.8h25.8v92.4h-25.8v-92.4zm64.5 53.4c.3 2.7.9 5.4 1.8 8.1.9 2.7 2.4 4.8 4.2 6.9 1.8 2.1 3.9 3.6 6.6 4.8s5.7 1.8 9 1.8c3.9 0 7.5-.9 10.8-2.7s5.7-4.5 7.5-8.1l25.2 2.1c-3 9.6-8.7 16.5-16.5 21.6-8.1 4.8-17.4 7.2-28.5 7.2-6.9 0-13.5-1.2-19.2-3.3-5.7-2.4-10.8-5.7-15-9.9s-7.5-9.3-9.6-15.3c-2.4-6-3.6-12.6-3.6-20.1s1.2-14.1 3.6-20.4c2.4-6 5.7-11.1 9.6-15.6 4.2-4.2 9-7.5 15-9.9 5.7-2.4 12.3-3.3 19.2-3.3s13.2 1.2 19.2 3.3c5.7 2.4 10.8 5.7 15 9.9s7.5 9.3 9.6 15.6c2.4 6 3.6 12.9 3.6 20.4v7.2h-67.5v-.3zm41.7-16.5c-.3-2.4-.9-4.5-1.8-6.9s-2.4-4.5-3.9-6.3c-1.8-1.8-3.6-3.6-6-4.8s-5.1-1.8-8.4-1.8-6.3.6-8.7 1.5c-2.4 1.2-4.8 2.4-6.6 4.2-1.8 1.8-3.3 3.9-4.2 6.3s-1.8 4.8-2.1 7.5h41.7v.3zm96.9-.9c0-3.3-.3-6.3-1.2-8.4-.9-2.4-2.1-4.2-3.6-5.4-1.5-1.5-3.3-2.4-5.1-3s-3.9-.9-6-.9c-5.4 0-9.3 2.1-12.3 6s-4.5 9.3-4.5 15.6v52.5h-25.8v-92.4h24.9v12h.3c3.9-5.7 8.1-9.6 12.6-11.4 4.5-2.1 9.6-3 14.7-3 5.4 0 10.2.9 14.4 2.4 4.2 1.8 7.5 3.9 10.2 6.9s4.8 6.3 6 10.2 1.8 8.1 1.8 12.6v62.7h-25.8v-56.4h-.6zm93.9-.6c0-3.3-.6-6-1.5-8.1s-2.1-3.6-3.6-4.8-3-1.8-4.8-2.4-3.6-.6-5.1-.6c-3.9 0-7.2.9-9.6 2.7s-4.2 4.2-5.4 7.2c-1.2 3-2.1 6-2.4 9.3s-.6 6.6-.6 9.6.3 6.3.9 9.3 1.5 5.7 3 8.4c1.5 2.4 3.3 4.5 5.4 6 2.4 1.5 5.1 2.4 8.4 2.4 5.1 0 8.7-1.5 11.4-4.2 2.7-2.7 4.2-6.3 4.8-11.1l25.5.9c-.9 5.1-2.4 9.6-4.5 14.1-2.1 4.2-4.8 8.1-8.1 11.1s-7.2 5.7-12 7.2c-4.8 1.8-10.2 2.7-16.5 2.7-7.5 0-14.1-1.2-19.8-3.6-5.7-2.4-10.5-5.7-14.1-9.9-3.9-4.2-6.6-9.3-8.7-15-1.8-6-3-12.3-3-19.5 0-7.5.9-14.1 3-20.4 2.1-6 5.1-11.4 9-15.6 3.9-4.2 8.7-7.8 14.1-10.2s11.7-3.6 18.9-3.6c6.9 0 12.9.9 18 3s9.3 4.8 12.9 8.1c3.3 3.3 6 7.5 7.8 11.7 1.8 4.5 3 9 3.3 14.1l-26.7 1.2zm62.7 18c.3 2.7.9 5.4 1.8 8.1.9 2.7 2.4 4.8 4.2 6.9 1.8 2.1 3.9 3.6 6.6 4.8s5.7 1.8 9 1.8c3.9 0 7.5-.9 10.8-2.7s5.7-4.5 7.5-8.1l25.2 2.1c-3 9.6-8.7 16.5-16.5 21.6-8.1 4.8-17.4 7.2-28.5 7.2-6.9 0-13.5-1.2-19.2-3.3-5.7-2.4-10.8-5.7-15-9.9s-7.5-9.3-9.6-15.3c-2.4-6-3.6-12.6-3.6-20.1s1.2-14.1 3.6-20.4c2.4-6 5.7-11.1 9.6-15.6 4.2-4.2 9-7.5 15-9.9 5.7-2.4 12.3-3.3 19.2-3.3 6.9 0 13.2 1.2 19.2 3.3 5.7 2.4 10.8 5.7 15 9.9s7.5 9.3 9.6 15.6c2.4 6 3.6 12.9 3.6 20.4v7.2h-67.5v-.3zm41.7-16.5c-.3-2.4-.9-4.5-1.8-6.9s-2.4-4.5-3.9-6.3c-1.8-1.8-3.6-3.6-6-4.8s-5.1-1.8-8.4-1.8-6.3.6-8.7 1.5c-2.4 1.2-4.8 2.4-6.6 4.2-1.8 1.8-3.3 3.9-4.2 6.3-.9 2.4-1.8 4.8-2.1 7.5h41.7v.3zm31.8 42.6c0-4.2 1.5-7.8 4.5-10.8s6.6-4.5 10.8-4.5c4.2 0 7.8 1.5 10.8 4.5s4.5 6.6 4.5 10.8-1.5 7.8-4.5 10.8-6.6 4.5-10.8 4.5c-4.2 0-7.8-1.5-10.8-4.5s-4.5-6.6-4.5-10.8zm101.7.9h-.3c-4.2 5.7-9.3 9.6-15 11.4-5.7 2.1-11.4 3-16.5 3-3.6 0-7.2-.6-11.1-1.5s-7.5-2.4-10.5-4.8c-3.3-2.1-5.7-5.1-7.8-8.7s-3-8.1-3-13.2c0-2.4.3-5.4 1.2-8.4.6-3 2.4-6 5.1-8.7s6.6-5.1 12-7.2c5.4-2.1 12.3-3.3 21.3-4.2l24-1.5v-4.2c0-5.4-1.5-9.6-4.8-12.3s-7.8-4.2-13.5-4.2c-5.4 0-9.6 1.2-12.6 3.6s-4.5 5.7-4.8 9.9h-24.9c.3-3.6 1.2-7.2 2.7-11.1s3.9-7.2 7.2-10.5c3.3-3.3 7.8-5.7 13.2-7.8 5.4-2.1 12.3-3 20.4-3 5.7 0 11.1.6 16.2 1.8s9.6 3 13.2 5.4c3.9 2.4 6.9 5.4 9 9.3 2.1 3.9 3.3 8.4 3.3 13.5v53.7c0 2.4 0 4.5.3 6.3s.6 3.6.9 5.1h-24.9v-11.7h-.3zm-1.2-28.2l-21.6 2.1c-6 .6-10.2 1.8-12.3 3.6-2.4 1.8-3.3 4.5-3.3 7.8 0 2.1.3 3.9 1.5 5.1.9 1.5 2.1 2.4 3.6 3.3s3 1.5 5.1 1.8 4.2.6 6.3.6c2.1 0 4.2-.3 6.6-.9s4.8-1.5 6.9-2.7 3.9-3 5.4-4.8 2.1-4.2 2.1-7.2V823h-.3zm36.3-81c0-1.8.3-3.9 1.2-5.7.9-1.8 1.8-3.3 3.3-4.8 1.2-1.5 3-2.7 4.8-3.6 1.8-.9 3.9-1.5 6-1.5 1.8 0 3.9.3 5.7 1.2 1.8.9 3.3 1.8 4.8 3.3s2.7 3 3.3 4.8c.9 1.8 1.2 3.6 1.2 5.7s-.3 3.9-1.2 5.7c-.9 1.8-1.8 3.3-3.3 4.8s-3 2.7-4.8 3.3c-1.8.9-3.9 1.2-6 1.2s-4.2-.3-6-1.5c-1.8-.9-3.6-2.1-4.8-3.3-1.2-1.5-2.4-3-3.3-4.8-.6-1.2-.9-3-.9-4.8zm2.1 28.8h25.8v92.4h-25.8v-92.4z" fill="#43304A"/><path fill="none" d="M-5133 906.7h1206v273h-1206z"/><text transform="translate(-4953.902 938.135)" fill="#43304A" font-family="'NeuzeitSLT-Book'" font-size="42">The intelligent science publishing platform.</text><path d="M141.3 103.2c-.3-3.9-1.8-6.9-4.2-9-2.7-2.1-6.6-3.3-11.4-3.3-3.6 0-6.6.6-9.3 2.1s-4.2 3.6-4.2 6.3c0 2.7 1.5 4.8 4.2 6s6.3 2.4 10.8 3.3c4.2.9 9 1.8 13.8 2.7 4.8.9 9.6 2.4 13.8 4.5s7.8 4.8 10.8 8.4c2.7 3.6 4.2 8.4 4.2 14.7 0 1.8-.3 4.5-1.2 7.8-.9 3.6-2.7 6.9-5.7 10.2-3 3.3-7.2 6.3-12.6 9-5.7 2.4-13.2 3.9-22.5 3.9-3.3 0-7.2-.3-11.7-1.2-4.5-.6-8.7-2.1-12.9-4.2s-7.8-5.4-11.1-9.3c-3.3-4.2-5.1-9.6-5.4-16.5h25.8c0 2.4.6 4.2 1.5 5.7s2.1 3 3.6 3.9 3.3 1.8 5.1 2.4c1.8.6 3.6.6 5.7.6 1.8 0 3.3 0 5.1-.3s3.3-.9 4.8-1.5 2.7-1.8 3.6-3c.9-1.2 1.5-2.7 1.5-4.8 0-2.4-1.5-4.5-4.2-5.7s-6.3-2.1-10.2-3c-4.2-.9-8.4-1.8-13.2-2.7-4.8-.9-9.3-2.4-13.2-4.5-4.2-2.1-7.5-4.8-10.2-8.7-2.7-3.6-4.2-8.7-4.2-15 0-3.6.6-7.2 2.1-10.8 1.5-3.6 3.6-6.6 6.6-9.6 3-2.7 6.9-5.1 12-6.9 4.8-1.8 10.8-2.7 17.7-2.7 12 0 21.6 2.7 28.8 7.8s11.4 12.9 12 22.8l-26.1.6zm95.1 6.6c0-3.3-.6-6-1.5-8.1s-2.1-3.6-3.6-4.8c-1.5-1.2-3-1.8-4.8-2.4s-3.6-.6-5.1-.6c-3.9 0-7.2.9-9.6 2.7-2.4 1.8-4.2 4.2-5.4 7.2s-2.1 6-2.4 9.3c-.3 3.3-.6 6.6-.6 9.6s.3 6.3.9 9.3c.6 3 1.5 5.7 3 8.4 1.5 2.4 3.3 4.5 5.4 6 2.4 1.5 5.1 2.4 8.4 2.4 5.1 0 8.7-1.5 11.4-4.2s4.2-6.3 4.8-11.1l25.5.9c-.9 5.1-2.4 9.6-4.5 14.1-2.1 4.2-4.8 8.1-8.1 11.1s-7.2 5.7-12 7.2c-4.8 1.8-10.2 2.7-16.5 2.7-7.5 0-14.1-1.2-19.8-3.6s-10.5-5.7-14.1-9.9c-3.9-4.2-6.6-9.3-8.7-15-1.8-6-3-12.3-3-19.5 0-7.5.9-14.1 3-20.4 2.1-6 5.1-11.4 9-15.6s8.7-7.8 14.1-10.2 11.7-3.6 18.9-3.6c6.9 0 12.9.9 18 3s9.3 4.8 12.9 8.1c3.3 3.3 6 7.5 7.8 11.7 1.8 4.5 3 9 3.3 14.1l-26.7 1.2zm35.1-64c0-1.8.3-3.9 1.2-5.7.9-1.8 1.8-3.3 3.3-4.8 1.2-1.5 3-2.7 4.8-3.6 1.8-.9 3.9-1.5 6-1.5 1.8 0 3.9.3 5.7 1.2 1.8.9 3.3 1.8 4.8 3.3s2.7 3 3.3 4.8c.9 1.8 1.2 3.6 1.2 5.7s-.3 3.9-1.2 5.7c-.9 1.8-1.8 3.3-3.3 4.8s-3 2.7-4.8 3.3c-1.8.9-3.9 1.2-6 1.2s-4.2-.3-6-1.5c-1.8-.9-3.6-2.1-4.8-3.3-1.2-1.5-2.4-3-3.3-4.8-.3-1.1-.9-2.9-.9-4.8zm2.1 28.5h25.8v92.4h-25.8V74.3zm64.5 53.7c.3 2.7.9 5.4 1.8 8.1s2.4 4.8 4.2 6.9c1.8 2.1 3.9 3.6 6.6 4.8 2.7 1.2 5.7 1.8 9 1.8 3.9 0 7.5-.9 10.8-2.7 3.3-1.8 5.7-4.5 7.5-8.1l25.2 2.1c-3 9.6-8.7 16.5-16.5 21.6-8.1 4.8-17.4 7.2-28.5 7.2-6.9 0-13.5-1.2-19.2-3.3-5.7-2.4-10.8-5.7-15-9.9-4.2-4.2-7.5-9.3-9.6-15.3-2.4-6-3.6-12.6-3.6-20.1 0-7.5 1.2-14.1 3.6-20.4 2.4-6 5.7-11.1 9.6-15.6 4.2-4.2 9-7.5 15-9.9 5.7-2.4 12.3-3.3 19.2-3.3s13.2 1.2 19.2 3.3c5.7 2.4 10.8 5.7 15 9.9 4.2 4.2 7.5 9.3 9.6 15.6 2.4 6 3.6 12.9 3.6 20.4v7.2h-67.5v-.3zm41.7-16.5c-.3-2.4-.9-4.5-1.8-6.9s-2.4-4.5-3.9-6.3c-1.8-1.8-3.6-3.6-6-4.8-2.4-1.2-5.1-1.8-8.4-1.8s-6.3.6-8.7 1.5c-2.4 1.2-4.8 2.4-6.6 4.2-1.8 1.8-3.3 3.9-4.2 6.3s-1.8 4.8-2.1 7.5h41.7v.3zm96.9-.8c0-3.3-.3-6.3-1.2-8.4-.9-2.4-2.1-4.2-3.6-5.4-1.5-1.5-3.3-2.4-5.1-3-1.8-.6-3.9-.9-6-.9-5.4 0-9.3 2.1-12.3 6s-4.5 9.3-4.5 15.6v52.5h-25.8V74.4h24.9v12h.3c3.9-5.7 8.1-9.6 12.6-11.4 4.5-2.1 9.6-3 14.7-3 5.4 0 10.2.9 14.4 2.4 4.2 1.8 7.5 3.9 10.2 6.9s4.8 6.3 6 10.2c1.2 3.9 1.8 8.1 1.8 12.6v62.7h-25.8v-56.1h-.6zm93.9-.9c0-3.3-.6-6-1.5-8.1s-2.1-3.6-3.6-4.8c-1.5-1.2-3-1.8-4.8-2.4s-3.6-.6-5.1-.6c-3.9 0-7.2.9-9.6 2.7-2.4 1.8-4.2 4.2-5.4 7.2s-2.1 6-2.4 9.3c-.3 3.3-.6 6.6-.6 9.6s.3 6.3.9 9.3 1.5 5.7 3 8.4c1.5 2.4 3.3 4.5 5.4 6 2.4 1.5 5.1 2.4 8.4 2.4 5.1 0 8.7-1.5 11.4-4.2s4.2-6.3 4.8-11.1l25.5.9c-.9 5.1-2.4 9.6-4.5 14.1-2.1 4.2-4.8 8.1-8.1 11.1s-7.2 5.7-12 7.2c-4.8 1.8-10.2 2.7-16.5 2.7-7.5 0-14.1-1.2-19.8-3.6s-10.5-5.7-14.1-9.9c-3.9-4.2-6.6-9.3-8.7-15-1.8-6-3-12.3-3-19.5 0-7.5.9-14.1 3-20.4 2.1-6 5.1-11.4 9-15.6s8.7-7.8 14.1-10.2c5.4-2.4 11.7-3.6 18.9-3.6 6.9 0 12.9.9 18 3s9.3 4.8 12.9 8.1c3.3 3.3 6 7.5 7.8 11.7 1.8 4.5 3 9 3.3 14.1l-26.7 1.2zm62.7 18.2c.3 2.7.9 5.4 1.8 8.1s2.4 4.8 4.2 6.9 3.9 3.6 6.6 4.8c2.7 1.2 5.7 1.8 9 1.8 3.9 0 7.5-.9 10.8-2.7 3.3-1.8 5.7-4.5 7.5-8.1l25.2 2.1c-3 9.6-8.7 16.5-16.5 21.6-8.1 4.8-17.4 7.2-28.5 7.2-6.9 0-13.5-1.2-19.2-3.3-5.7-2.4-10.8-5.7-15-9.9-4.2-4.2-7.5-9.3-9.6-15.3-2.4-6-3.6-12.6-3.6-20.1 0-7.5 1.2-14.1 3.6-20.4 2.4-6 5.7-11.1 9.6-15.6 4.2-4.2 9-7.5 15-9.9 5.7-2.4 12.3-3.3 19.2-3.3s13.2 1.2 19.2 3.3c5.7 2.4 10.8 5.7 15 9.9 4.2 4.2 7.5 9.3 9.6 15.6 2.4 6 3.6 12.9 3.6 20.4v7.2h-67.5v-.3zm41.7-16.5c-.3-2.4-.9-4.5-1.8-6.9-.9-2.4-2.4-4.5-3.9-6.3-1.8-1.8-3.6-3.6-6-4.8-2.4-1.2-5.1-1.8-8.4-1.8s-6.3.6-8.7 1.5c-2.4 1.2-4.8 2.4-6.6 4.2-1.8 1.8-3.3 3.9-4.2 6.3s-1.8 4.8-2.1 7.5H675v.3zm31.8 42.4c0-4.2 1.5-7.8 4.5-10.8s6.6-4.5 10.8-4.5 7.8 1.5 10.8 4.5 4.5 6.6 4.5 10.8-1.5 7.8-4.5 10.8-6.6 4.5-10.8 4.5-7.8-1.5-10.8-4.5-4.5-6.7-4.5-10.8zm101.7.9h-.3c-4.2 5.7-9.3 9.6-15 11.4-5.7 2.1-11.4 3-16.5 3-3.6 0-7.2-.6-11.1-1.5s-7.5-2.4-10.5-4.8c-3.3-2.1-5.7-5.1-7.8-8.7s-3-8.1-3-13.2c0-2.4.3-5.4 1.2-8.4.6-3 2.4-6 5.1-8.7 2.7-2.7 6.6-5.1 12-7.2s12.3-3.3 21.3-4.2l24-1.5v-4.2c0-5.4-1.5-9.6-4.8-12.3-3.3-2.7-7.8-4.2-13.5-4.2-5.4 0-9.6 1.2-12.6 3.6s-4.5 5.7-4.8 9.9H747c.3-3.6 1.2-7.2 2.7-11.1s3.9-7.2 7.2-10.5 7.8-5.7 13.2-7.8 12.3-3 20.4-3c5.7 0 11.1.6 16.2 1.8 5.1 1.2 9.6 3 13.2 5.4 3.9 2.4 6.9 5.4 9 9.3s3.3 8.4 3.3 13.5V155c0 2.4 0 4.5.3 6.3s.6 3.6.9 5.1h-24.9v-11.6zm-1.2-28.3l-21.6 2.1c-6 .6-10.2 1.8-12.3 3.6-2.4 1.8-3.3 4.5-3.3 7.8 0 2.1.3 3.9 1.5 5.1.9 1.5 2.1 2.4 3.6 3.3s3 1.5 5.1 1.8 4.2.6 6.3.6 4.2-.3 6.6-.9c2.4-.6 4.8-1.5 6.9-2.7 2.1-1.2 3.9-3 5.4-4.8s2.1-4.2 2.1-7.2v-8.7h-.3zm36.3-80.7c0-1.8.3-3.9 1.2-5.7s1.8-3.3 3.3-4.8c1.2-1.5 3-2.7 4.8-3.6 1.8-.9 3.9-1.5 6-1.5 1.8 0 3.9.3 5.7 1.2s3.3 1.8 4.8 3.3 2.7 3 3.3 4.8c.9 1.8 1.2 3.6 1.2 5.7s-.3 3.9-1.2 5.7-1.8 3.3-3.3 4.8-3 2.7-4.8 3.3c-1.8.9-3.9 1.2-6 1.2s-4.2-.3-6-1.5c-1.8-.9-3.6-2.1-4.8-3.3-1.2-1.5-2.4-3-3.3-4.8-.6-1.1-.9-2.9-.9-4.8zm2.1 28.5h25.8v92.4h-25.8V74.3z" fill="#FFF"/><path d="M-2894.7 744.4c-.3-3.9-1.8-6.9-4.2-9-2.7-2.1-6.6-3.3-11.4-3.3-3.6 0-6.6.6-9.3 2.1s-4.2 3.6-4.2 6.3 1.5 4.8 4.2 6 6.3 2.4 10.8 3.3c4.2.9 9 1.8 13.8 2.7s9.6 2.4 13.8 4.5 7.8 4.8 10.8 8.4c2.7 3.6 4.2 8.4 4.2 14.7 0 1.8-.3 4.5-1.2 7.8-.9 3.6-2.7 6.9-5.7 10.2s-7.2 6.3-12.6 9c-5.7 2.4-13.2 3.9-22.5 3.9-3.3 0-7.2-.3-11.7-1.2-4.5-.6-8.7-2.1-12.9-4.2s-7.8-5.4-11.1-9.3c-3.3-4.2-5.1-9.6-5.4-16.5h25.8c0 2.4.6 4.2 1.5 5.7s2.1 3 3.6 3.9 3.3 1.8 5.1 2.4c1.8.6 3.6.6 5.7.6 1.8 0 3.3 0 5.1-.3s3.3-.9 4.8-1.5 2.7-1.8 3.6-3c.9-1.2 1.5-2.7 1.5-4.8 0-2.4-1.5-4.5-4.2-5.7s-6.3-2.1-10.2-3c-4.2-.9-8.4-1.8-13.2-2.7s-9.3-2.4-13.2-4.5c-4.2-2.1-7.5-4.8-10.2-8.7-2.7-3.6-4.2-8.7-4.2-15 0-3.6.6-7.2 2.1-10.8s3.6-6.6 6.6-9.6c3-2.7 6.9-5.1 12-6.9 4.8-1.8 10.8-2.7 17.7-2.7 12 0 21.6 2.7 28.8 7.8s11.4 12.9 12 22.8l-26.1.6zm95.1 6.9c0-3.3-.6-6-1.5-8.1s-2.1-3.6-3.6-4.8-3-1.8-4.8-2.4-3.6-.6-5.1-.6c-3.9 0-7.2.9-9.6 2.7-2.4 1.8-4.2 4.2-5.4 7.2s-2.1 6-2.4 9.3c-.3 3.3-.6 6.6-.6 9.6s.3 6.3.9 9.3c.6 3 1.5 5.7 3 8.4 1.5 2.4 3.3 4.5 5.4 6 2.4 1.5 5.1 2.4 8.4 2.4 5.1 0 8.7-1.5 11.4-4.2s4.2-6.3 4.8-11.1l25.5.9c-.9 5.1-2.4 9.6-4.5 14.1-2.1 4.2-4.8 8.1-8.1 11.1s-7.2 5.7-12 7.2c-4.8 1.8-10.2 2.7-16.5 2.7-7.5 0-14.1-1.2-19.8-3.6-5.7-2.4-10.5-5.7-14.1-9.9-3.9-4.2-6.6-9.3-8.7-15-1.8-6-3-12.3-3-19.5 0-7.5.9-14.1 3-20.4 2.1-6 5.1-11.4 9-15.6s8.7-7.8 14.1-10.2c5.4-2.4 11.7-3.6 18.9-3.6 6.9 0 12.9.9 18 3s9.3 4.8 12.9 8.1c3.3 3.3 6 7.5 7.8 11.7 1.8 4.5 3 9 3.3 14.1l-26.7 1.2zm35.1-64.2c0-1.8.3-3.9 1.2-5.7s1.8-3.3 3.3-4.8c1.2-1.5 3-2.7 4.8-3.6 1.8-.9 3.9-1.5 6-1.5 1.8 0 3.9.3 5.7 1.2s3.3 1.8 4.8 3.3 2.7 3 3.3 4.8c.9 1.8 1.2 3.6 1.2 5.7s-.3 3.9-1.2 5.7-1.8 3.3-3.3 4.8-3 2.7-4.8 3.3c-1.8.9-3.9 1.2-6 1.2s-4.2-.3-6-1.5c-1.8-.9-3.6-2.1-4.8-3.3-1.2-1.5-2.4-3-3.3-4.8-.3-1.2-.9-3-.9-4.8zm2.1 28.8h25.8v92.4h-25.8v-92.4zm64.5 53.7c.3 2.7.9 5.4 1.8 8.1.9 2.7 2.4 4.8 4.2 6.9 1.8 2.1 3.9 3.6 6.6 4.8 2.7 1.2 5.7 1.8 9 1.8 3.9 0 7.5-.9 10.8-2.7s5.7-4.5 7.5-8.1l25.2 2.1c-3 9.6-8.7 16.5-16.5 21.6-8.1 4.8-17.4 7.2-28.5 7.2-6.9 0-13.5-1.2-19.2-3.3-5.7-2.4-10.8-5.7-15-9.9s-7.5-9.3-9.6-15.3c-2.4-6-3.6-12.6-3.6-20.1s1.2-14.1 3.6-20.4c2.4-6 5.7-11.1 9.6-15.6 4.2-4.2 9-7.5 15-9.9 5.7-2.4 12.3-3.3 19.2-3.3s13.2 1.2 19.2 3.3c5.7 2.4 10.8 5.7 15 9.9s7.5 9.3 9.6 15.6c2.4 6 3.6 12.9 3.6 20.4v7.2h-67.5v-.3zm41.7-16.8c-.3-2.4-.9-4.5-1.8-6.9s-2.4-4.5-3.9-6.3c-1.8-1.8-3.6-3.6-6-4.8s-5.1-1.8-8.4-1.8c-3.3 0-6.3.6-8.7 1.5-2.4 1.2-4.8 2.4-6.6 4.2s-3.3 3.9-4.2 6.3c-.9 2.4-1.8 4.8-2.1 7.5h41.7v.3zm96.9-.9c0-3.3-.3-6.3-1.2-8.4-.9-2.4-2.1-4.2-3.6-5.4-1.5-1.5-3.3-2.4-5.1-3s-3.9-.9-6-.9c-5.4 0-9.3 2.1-12.3 6s-4.5 9.3-4.5 15.6v52.5h-25.8v-92.4h24.9v12h.3c3.9-5.7 8.1-9.6 12.6-11.4 4.5-2.1 9.6-3 14.7-3 5.4 0 10.2.9 14.4 2.4 4.2 1.8 7.5 3.9 10.2 6.9s4.8 6.3 6 10.2 1.8 8.1 1.8 12.6v62.7h-25.8v-56.4h-.6zm93.9-.6c0-3.3-.6-6-1.5-8.1s-2.1-3.6-3.6-4.8-3-1.8-4.8-2.4c-1.8-.6-3.6-.6-5.1-.6-3.9 0-7.2.9-9.6 2.7-2.4 1.8-4.2 4.2-5.4 7.2s-2.1 6-2.4 9.3c-.3 3.3-.6 6.6-.6 9.6s.3 6.3.9 9.3 1.5 5.7 3 8.4c1.5 2.4 3.3 4.5 5.4 6 2.4 1.5 5.1 2.4 8.4 2.4 5.1 0 8.7-1.5 11.4-4.2s4.2-6.3 4.8-11.1l25.5.9c-.9 5.1-2.4 9.6-4.5 14.1-2.1 4.2-4.8 8.1-8.1 11.1s-7.2 5.7-12 7.2c-4.8 1.8-10.2 2.7-16.5 2.7-7.5 0-14.1-1.2-19.8-3.6s-10.5-5.7-14.1-9.9c-3.9-4.2-6.6-9.3-8.7-15-1.8-6-3-12.3-3-19.5 0-7.5.9-14.1 3-20.4 2.1-6 5.1-11.4 9-15.6s8.7-7.8 14.1-10.2c5.4-2.4 11.7-3.6 18.9-3.6 6.9 0 12.9.9 18 3s9.3 4.8 12.9 8.1c3.3 3.3 6 7.5 7.8 11.7 1.8 4.5 3 9 3.3 14.1l-26.7 1.2zm62.7 18.3c.3 2.7.9 5.4 1.8 8.1.9 2.7 2.4 4.8 4.2 6.9s3.9 3.6 6.6 4.8c2.7 1.2 5.7 1.8 9 1.8 3.9 0 7.5-.9 10.8-2.7s5.7-4.5 7.5-8.1l25.2 2.1c-3 9.6-8.7 16.5-16.5 21.6-8.1 4.8-17.4 7.2-28.5 7.2-6.9 0-13.5-1.2-19.2-3.3-5.7-2.4-10.8-5.7-15-9.9s-7.5-9.3-9.6-15.3c-2.4-6-3.6-12.6-3.6-20.1s1.2-14.1 3.6-20.4c2.4-6 5.7-11.1 9.6-15.6 4.2-4.2 9-7.5 15-9.9 5.7-2.4 12.3-3.3 19.2-3.3s13.2 1.2 19.2 3.3c5.7 2.4 10.8 5.7 15 9.9s7.5 9.3 9.6 15.6c2.4 6 3.6 12.9 3.6 20.4v7.2h-67.5v-.3zm41.7-16.8c-.3-2.4-.9-4.5-1.8-6.9-.9-2.4-2.4-4.5-3.9-6.3-1.8-1.8-3.6-3.6-6-4.8s-5.1-1.8-8.4-1.8-6.3.6-8.7 1.5c-2.4 1.2-4.8 2.4-6.6 4.2s-3.3 3.9-4.2 6.3c-.9 2.4-1.8 4.8-2.1 7.5h41.7v.3zm31.8 42.6c0-4.2 1.5-7.8 4.5-10.8s6.6-4.5 10.8-4.5 7.8 1.5 10.8 4.5 4.5 6.6 4.5 10.8-1.5 7.8-4.5 10.8-6.6 4.5-10.8 4.5-7.8-1.5-10.8-4.5-4.5-6.6-4.5-10.8zm101.7.9h-.3c-4.2 5.7-9.3 9.6-15 11.4-5.7 2.1-11.4 3-16.5 3-3.6 0-7.2-.6-11.1-1.5-3.9-.9-7.5-2.4-10.5-4.8-3.3-2.1-5.7-5.1-7.8-8.7-2.1-3.6-3-8.1-3-13.2 0-2.4.3-5.4 1.2-8.4.6-3 2.4-6 5.1-8.7 2.7-2.7 6.6-5.1 12-7.2 5.4-2.1 12.3-3.3 21.3-4.2l24-1.5v-4.2c0-5.4-1.5-9.6-4.8-12.3s-7.8-4.2-13.5-4.2c-5.4 0-9.6 1.2-12.6 3.6-3 2.4-4.5 5.7-4.8 9.9h-24.9c.3-3.6 1.2-7.2 2.7-11.1 1.5-3.9 3.9-7.2 7.2-10.5s7.8-5.7 13.2-7.8 12.3-3 20.4-3c5.7 0 11.1.6 16.2 1.8 5.1 1.2 9.6 3 13.2 5.4 3.9 2.4 6.9 5.4 9 9.3s3.3 8.4 3.3 13.5v53.7c0 2.4 0 4.5.3 6.3s.6 3.6.9 5.1h-24.9v-11.7h-.3zm-1.2-28.2l-21.6 2.1c-6 .6-10.2 1.8-12.3 3.6-2.4 1.8-3.3 4.5-3.3 7.8 0 2.1.3 3.9 1.5 5.1.9 1.5 2.1 2.4 3.6 3.3s3 1.5 5.1 1.8 4.2.6 6.3.6 4.2-.3 6.6-.9c2.4-.6 4.8-1.5 6.9-2.7 2.1-1.2 3.9-3 5.4-4.8s2.1-4.2 2.1-7.2v-8.7h-.3zm36.3-81c0-1.8.3-3.9 1.2-5.7s1.8-3.3 3.3-4.8c1.2-1.5 3-2.7 4.8-3.6 1.8-.9 3.9-1.5 6-1.5 1.8 0 3.9.3 5.7 1.2s3.3 1.8 4.8 3.3 2.7 3 3.3 4.8c.9 1.8 1.2 3.6 1.2 5.7s-.3 3.9-1.2 5.7-1.8 3.3-3.3 4.8-3 2.7-4.8 3.3c-1.8.9-3.9 1.2-6 1.2s-4.2-.3-6-1.5c-1.8-.9-3.6-2.1-4.8-3.3-1.2-1.5-2.4-3-3.3-4.8-.6-1.2-.9-3-.9-4.8zm2.1 28.8h25.8v92.4h-25.8v-92.4z" fill="#43304A"/><path fill="none" d="M-3513 892h1920v273h-1920z"/><text transform="translate(-3270.656 932.607)" fill="#43304A" font-family="'NeuzeitSLT-Book'" font-size="54" letter-spacing="1">The modern science publishing platform.</text></svg>