<svg xmlns="http://www.w3.org/2000/svg" viewBox="0 52 640 140"><path d="M-3249.8 689.5c-.2-2.6-1.2-4.6-2.8-6-1.8-1.4-4.4-2.2-7.6-2.2-2.4 0-4.4.4-6.2 1.4s-2.8 2.4-2.8 4.2 1 3.2 2.8 4 4.2 1.6 7.2 2.2c2.8.6 6 1.2 9.2 1.8s6.4 1.6 9.2 3 5.2 3.2 7.2 5.6c1.8 2.4 2.8 5.6 2.8 9.8 0 1.2-.2 3-.8 5.2-.6 2.4-1.8 4.6-3.8 6.8s-4.8 4.2-8.4 6c-3.8 1.6-8.8 2.6-15 2.6-2.2 0-4.8-.2-7.8-.8-3-.4-5.8-1.4-8.6-2.8s-5.2-3.6-7.4-6.2c-2.2-2.8-3.4-6.4-3.6-11h17.2c0 1.6.4 2.8 1 3.8s1.4 2 2.4 2.6 2.2 1.2 3.4 1.6c1.2.4 2.4.4 3.8.4 1.2 0 2.2 0 3.4-.2s2.2-.6 3.2-1 1.8-1.2 2.4-2c.6-.8 1-1.8 1-3.2 0-1.6-1-3-2.8-3.8s-4.2-1.4-6.8-2c-2.8-.6-5.6-1.2-8.8-1.8s-6.2-1.6-8.8-3c-2.8-1.4-5-3.2-6.8-5.8-1.8-2.4-2.8-5.8-2.8-10 0-2.4.4-4.8 1.4-7.2s2.4-4.4 4.4-6.4c2-1.8 4.6-3.4 8-4.6 3.2-1.2 7.2-1.8 11.8-1.8 8 0 14.4 1.8 19.2 5.2s7.6 8.6 8 15.2l-17.4.4zm63.4 4.6c0-2.2-.4-4-1-5.4s-1.4-2.4-2.4-3.2-2-1.2-3.2-1.6c-1.2-.4-2.4-.4-3.4-.4-2.6 0-4.8.6-6.4 1.8-1.6 1.2-2.8 2.8-3.6 4.8s-1.4 4-1.6 6.2c-.2 2.2-.4 4.4-.4 6.4s.2 4.2.6 6.2c.4 2 1 3.8 2 5.6 1 1.6 2.2 3 3.6 4 1.6 1 3.4 1.6 5.6 1.6 3.4 0 5.8-1 7.6-2.8s2.8-4.2 3.2-7.4l17 .6c-.6 3.4-1.6 6.4-3 9.4-1.4 2.8-3.2 5.4-5.4 7.4s-4.8 3.8-8 4.8c-3.2 1.2-6.8 1.8-11 1.8-5 0-9.4-.8-13.2-2.4-3.8-1.6-7-3.8-9.4-6.6-2.6-2.8-4.4-6.2-5.8-10-1.2-4-2-8.2-2-13 0-5 .6-9.4 2-13.6 1.4-4 3.4-7.6 6-10.4 2.6-2.8 5.8-5.2 9.4-6.8 3.6-1.6 7.8-2.4 12.6-2.4 4.6 0 8.6.6 12 2s6.2 3.2 8.6 5.4c2.2 2.2 4 5 5.2 7.8 1.2 3 2 6 2.2 9.4l-17.8.8zm23.4-42.8c0-1.2.2-2.6.8-3.8s1.2-2.2 2.2-3.2c.8-1 2-1.8 3.2-2.4 1.2-.6 2.6-1 4-1 1.2 0 2.6.2 3.8.8s2.2 1.2 3.2 2.2 1.8 2 2.2 3.2c.6 1.2.8 2.4.8 3.8s-.2 2.6-.8 3.8-1.2 2.2-2.2 3.2-2 1.8-3.2 2.2c-1.2.6-2.6.8-4 .8s-2.8-.2-4-1c-1.2-.6-2.4-1.4-3.2-2.2-.8-1-1.6-2-2.2-3.2-.2-.8-.6-2-.6-3.2zm1.4 19.2h17.2v61.6h-17.2v-61.6zm43 35.6c.2 1.8.6 3.6 1.2 5.4.6 1.8 1.6 3.2 2.8 4.6 1.2 1.4 2.6 2.4 4.4 3.2 1.8.8 3.8 1.2 6 1.2 2.6 0 5-.6 7.2-1.8s3.8-3 5-5.4l16.8 1.4c-2 6.4-5.8 11-11 14.4-5.4 3.2-11.6 4.8-19 4.8-4.6 0-9-.8-12.8-2.2-3.8-1.6-7.2-3.8-10-6.6s-5-6.2-6.4-10.2c-1.6-4-2.4-8.4-2.4-13.4s.8-9.4 2.4-13.6c1.6-4 3.8-7.4 6.4-10.4 2.8-2.8 6-5 10-6.6 3.8-1.6 8.2-2.2 12.8-2.2s8.8.8 12.8 2.2c3.8 1.6 7.2 3.8 10 6.6s5 6.2 6.4 10.4c1.6 4 2.4 8.6 2.4 13.6v4.8h-45v-.2zm27.8-11c-.2-1.6-.6-3-1.2-4.6-.6-1.6-1.6-3-2.6-4.2-1.2-1.2-2.4-2.4-4-3.2s-3.4-1.2-5.6-1.2-4.2.4-5.8 1c-1.6.8-3.2 1.6-4.4 2.8s-2.2 2.6-2.8 4.2c-.6 1.6-1.2 3.2-1.4 5h27.8v.2zm64.6-.6c0-2.2-.2-4.2-.8-5.6-.6-1.6-1.4-2.8-2.4-3.6-1-1-2.2-1.6-3.4-2s-2.6-.6-4-.6c-3.6 0-6.2 1.4-8.2 4s-3 6.2-3 10.4v35h-17.2v-61.6h16.6v8h.2c2.6-3.8 5.4-6.4 8.4-7.6 3-1.4 6.4-2 9.8-2 3.6 0 6.8.6 9.6 1.6 2.8 1.2 5 2.6 6.8 4.6s3.2 4.2 4 6.8 1.2 5.4 1.2 8.4v41.8h-17.2v-37.6h-.4zm62.6-.4c0-2.2-.4-4-1-5.4s-1.4-2.4-2.4-3.2-2-1.2-3.2-1.6-2.4-.4-3.4-.4c-2.6 0-4.8.6-6.4 1.8-1.6 1.2-2.8 2.8-3.6 4.8s-1.4 4-1.6 6.2c-.2 2.2-.4 4.4-.4 6.4s.2 4.2.6 6.2c.4 2 1 3.8 2 5.6 1 1.6 2.2 3 3.6 4 1.6 1 3.4 1.6 5.6 1.6 3.4 0 5.8-1 7.6-2.8s2.8-4.2 3.2-7.4l17 .6c-.6 3.4-1.6 6.4-3 9.4-1.4 2.8-3.2 5.4-5.4 7.4s-4.8 3.8-8 4.8c-3.2 1.2-6.8 1.8-11 1.8-5 0-9.4-.8-13.2-2.4-3.8-1.6-7-3.8-9.4-6.6-2.6-2.8-4.4-6.2-5.8-10-1.2-4-2-8.2-2-13 0-5 .6-9.4 2-13.6 1.4-4 3.4-7.6 6-10.4s5.8-5.2 9.4-6.8c3.6-1.6 7.8-2.4 12.6-2.4 4.6 0 8.6.6 12 2s6.2 3.2 8.6 5.4c2.2 2.2 4 5 5.2 7.8 1.2 3 2 6 2.2 9.4l-17.8.8zm41.8 12c.2 1.8.6 3.6 1.2 5.4.6 1.8 1.6 3.2 2.8 4.6 1.2 1.4 2.6 2.4 4.4 3.2 1.8.8 3.8 1.2 6 1.2 2.6 0 5-.6 7.2-1.8s3.8-3 5-5.4l16.8 1.4c-2 6.4-5.8 11-11 14.4-5.4 3.2-11.6 4.8-19 4.8-4.6 0-9-.8-12.8-2.2-3.8-1.6-7.2-3.8-10-6.6s-5-6.2-6.4-10.2c-1.6-4-2.4-8.4-2.4-13.4s.8-9.4 2.4-13.6c1.6-4 3.8-7.4 6.4-10.4 2.8-2.8 6-5 10-6.6 3.8-1.6 8.2-2.2 12.8-2.2s8.8.8 12.8 2.2c3.8 1.6 7.2 3.8 10 6.6s5 6.2 6.4 10.4c1.6 4 2.4 8.6 2.4 13.6v4.8h-45v-.2zm27.8-11c-.2-1.6-.6-3-1.2-4.6-.6-1.6-1.6-3-2.6-4.2-1.2-1.2-2.4-2.4-4-3.2s-3.4-1.2-5.6-1.2c-2.2 0-4.2.4-5.8 1-1.6.8-3.2 1.6-4.4 2.8s-2.2 2.6-2.8 4.2c-.6 1.6-1.2 3.2-1.4 5h27.8v.2zm21.2 28.4c0-2.8 1-5.2 3-7.2s4.4-3 7.2-3 5.2 1 7.2 3 3 4.4 3 7.2-1 5.2-3 7.2-4.4 3-7.2 3-5.2-1-7.2-3-3-4.4-3-7.2zm67.8.6h-.2c-2.8 3.8-6.2 6.4-10 7.6-3.8 1.4-7.6 2-11 2-2.4 0-4.8-.4-7.4-1-2.6-.6-5-1.6-7-3.2-2.2-1.4-3.8-3.4-5.2-5.8-1.4-2.4-2-5.4-2-8.8 0-1.6.2-3.6.8-5.6.4-2 1.6-4 3.4-5.8 1.8-1.8 4.4-3.4 8-4.8 3.6-1.4 8.2-2.2 14.2-2.8l16-1v-2.8c0-3.6-1-6.4-3.2-8.2s-5.2-2.8-9-2.8c-3.6 0-6.4.8-8.4 2.4s-3 3.8-3.2 6.6h-16.6c.2-2.4.8-4.8 1.8-7.4s2.6-4.8 4.8-7 5.2-3.8 8.8-5.2 8.2-2 13.6-2c3.8 0 7.4.4 10.8 1.2 3.4.8 6.4 2 8.8 3.6 2.6 1.6 4.6 3.6 6 6.2 1.4 2.6 2.2 5.6 2.2 9v35.8c0 1.6 0 3 .2 4.2s.4 2.4.6 3.4h-16.6v-7.8h-.2zm-.8-18.8l-14.4 1.4c-4 .4-6.8 1.2-8.2 2.4-1.6 1.2-2.2 3-2.2 5.2 0 1.4.2 2.6 1 3.4.6 1 1.4 1.6 2.4 2.2s2 1 3.4 1.2 2.8.4 4.2.4 2.8-.2 4.4-.6 3.2-1 4.6-1.8c1.4-.8 2.6-2 3.6-3.2s1.4-2.8 1.4-4.8v-5.8h-.2zm24.2-54c0-1.2.2-2.6.8-3.8s1.2-2.2 2.2-3.2c.8-1 2-1.8 3.2-2.4s2.6-1 4-1c1.2 0 2.6.2 3.8.8s2.2 1.2 3.2 2.2 1.8 2 2.2 3.2c.6 1.2.8 2.4.8 3.8s-.2 2.6-.8 3.8-1.2 2.2-2.2 3.2-2 1.8-3.2 2.2c-1.2.6-2.6.8-4 .8s-2.8-.2-4-1c-1.2-.6-2.4-1.4-3.2-2.2-.8-1-1.6-2-2.2-3.2-.4-.8-.6-2-.6-3.2zm1.4 19.2h17.2v61.6h-17.2v-61.6z" fill="#43304A"/><path fill="none" d="M-3422 761.1h804v182h-804z"/><text transform="translate(-3302.602 782.09)" fill="#43304A" font-family="'NeuzeitSLT-Book'" font-size="28">The intelligent science publishing platform.</text><path d="M94.2 122.2c-.2-2.6-1.2-4.6-2.8-6-1.8-1.4-4.4-2.2-7.6-2.2-2.4 0-4.4.4-6.2 1.4s-2.8 2.4-2.8 4.2 1 3.2 2.8 4 4.2 1.6 7.2 2.2c2.8.6 6 1.2 9.2 1.8 3.2.6 6.4 1.6 9.2 3s5.2 3.2 7.2 5.6c1.8 2.4 2.8 5.6 2.8 9.8 0 1.2-.2 3-.8 5.2-.6 2.4-1.8 4.6-3.8 6.8-2 2.2-4.8 4.2-8.4 6-3.8 1.6-8.8 2.6-15 2.6-2.2 0-4.8-.2-7.8-.8-3-.4-5.8-1.4-8.6-2.8s-5.2-3.6-7.4-6.2c-2.2-2.8-3.4-6.4-3.6-11H75c0 1.6.4 2.8 1 3.8s1.4 2 2.4 2.6 2.2 1.2 3.4 1.6c1.2.4 2.4.4 3.8.4 1.2 0 2.2 0 3.4-.2 1.2-.2 2.2-.6 3.2-1s1.8-1.2 2.4-2c.6-.8 1-1.8 1-3.2 0-1.6-1-3-2.8-3.8-1.8-.8-4.2-1.4-6.8-2-2.8-.6-5.6-1.2-8.8-1.8-3.2-.6-6.2-1.6-8.8-3-2.8-1.4-5-3.2-6.8-5.8-1.8-2.4-2.8-5.8-2.8-10 0-2.4.4-4.8 1.4-7.2s2.4-4.4 4.4-6.4c2-1.8 4.6-3.4 8-4.6 3.2-1.2 7.2-1.8 11.8-1.8 8 0 14.4 1.8 19.2 5.2s7.6 8.6 8 15.2l-17.4.4zm63.4 4.3c0-2.2-.4-4-1-5.4s-1.4-2.4-2.4-3.2-2-1.2-3.2-1.6c-1.2-.4-2.4-.4-3.4-.4-2.6 0-4.8.6-6.4 1.8-1.6 1.2-2.8 2.8-3.6 4.8s-1.4 4-1.6 6.2c-.2 2.2-.4 4.4-.4 6.4s.2 4.2.6 6.2c.4 2 1 3.8 2 5.6 1 1.6 2.2 3 3.6 4 1.6 1 3.4 1.6 5.6 1.6 3.4 0 5.8-1 7.6-2.8 1.8-1.8 2.8-4.2 3.2-7.4l17 .6c-.6 3.4-1.6 6.4-3 9.4-1.4 2.8-3.2 5.4-5.4 7.4s-4.8 3.8-8 4.8c-3.2 1.2-6.8 1.8-11 1.8-5 0-9.4-.8-13.2-2.4s-7-3.8-9.4-6.6c-2.6-2.8-4.4-6.2-5.8-10-1.2-4-2-8.2-2-13 0-5 .6-9.4 2-13.6 1.4-4 3.4-7.6 6-10.4 2.6-2.8 5.8-5.2 9.4-6.8s7.8-2.4 12.6-2.4c4.6 0 8.6.6 12 2s6.2 3.2 8.6 5.4c2.2 2.2 4 5 5.2 7.8 1.2 3 2 6 2.2 9.4l-17.8.8zM181 83.8c0-1.2.2-2.6.8-3.8s1.2-2.2 2.2-3.2c.8-1 2-1.8 3.2-2.4 1.2-.6 2.6-1 4-1 1.2 0 2.6.2 3.8.8s2.2 1.2 3.2 2.2 1.8 2 2.2 3.2c.6 1.2.8 2.4.8 3.8s-.2 2.6-.8 3.8-1.2 2.2-2.2 3.2-2 1.8-3.2 2.2c-1.2.6-2.6.8-4 .8s-2.8-.2-4-1c-1.2-.6-2.4-1.4-3.2-2.2-.8-1-1.6-2-2.2-3.2-.2-.7-.6-1.8-.6-3.2zm1.4 19h17.2v61.6h-17.2v-61.6zm43 35.8c.2 1.8.6 3.6 1.2 5.4.6 1.8 1.6 3.2 2.8 4.6s2.6 2.4 4.4 3.2c1.8.8 3.8 1.2 6 1.2 2.6 0 5-.6 7.2-1.8 2.2-1.2 3.8-3 5-5.4l16.8 1.4c-2 6.4-5.8 11-11 14.4-5.4 3.2-11.6 4.8-19 4.8-4.6 0-9-.8-12.8-2.2-3.8-1.6-7.2-3.8-10-6.6s-5-6.2-6.4-10.2c-1.6-4-2.4-8.4-2.4-13.4s.8-9.4 2.4-13.6c1.6-4 3.8-7.4 6.4-10.4 2.8-2.8 6-5 10-6.6 3.8-1.6 8.2-2.2 12.8-2.2s8.8.8 12.8 2.2c3.8 1.6 7.2 3.8 10 6.6s5 6.2 6.4 10.4c1.6 4 2.4 8.6 2.4 13.6v4.8h-45v-.2zm27.8-10.9c-.2-1.6-.6-3-1.2-4.6-.6-1.6-1.6-3-2.6-4.2-1.2-1.2-2.4-2.4-4-3.2s-3.4-1.2-5.6-1.2c-2.2 0-4.2.4-5.8 1-1.6.8-3.2 1.6-4.4 2.8s-2.2 2.6-2.8 4.2c-.6 1.6-1.2 3.2-1.4 5h27.8v.2zm64.6-.5c0-2.2-.2-4.2-.8-5.6-.6-1.6-1.4-2.8-2.4-3.6-1-1-2.2-1.6-3.4-2-1.2-.4-2.6-.6-4-.6-3.6 0-6.2 1.4-8.2 4s-3 6.2-3 10.4v35h-17.2V103h16.6v8h.2c2.6-3.8 5.4-6.4 8.4-7.6 3-1.4 6.4-2 9.8-2 3.6 0 6.8.6 9.6 1.6 2.8 1.2 5 2.6 6.8 4.6s3.2 4.2 4 6.8 1.2 5.4 1.2 8.4v41.8h-17.2v-37.4h-.4zm62.6-.7c0-2.2-.4-4-1-5.4s-1.4-2.4-2.4-3.2-2-1.2-3.2-1.6-2.4-.4-3.4-.4c-2.6 0-4.8.6-6.4 1.8s-2.8 2.8-3.6 4.8c-.8 2-1.4 4-1.6 6.2-.2 2.2-.4 4.4-.4 6.4s.2 4.2.6 6.2 1 3.8 2 5.6c1 1.6 2.2 3 3.6 4 1.6 1 3.4 1.6 5.6 1.6 3.4 0 5.8-1 7.6-2.8 1.8-1.8 2.8-4.2 3.2-7.4l17 .6c-.6 3.4-1.6 6.4-3 9.4-1.4 2.8-3.2 5.4-5.4 7.4s-4.8 3.8-8 4.8c-3.2 1.2-6.8 1.8-11 1.8-5 0-9.4-.8-13.2-2.4s-7-3.8-9.4-6.6c-2.6-2.8-4.4-6.2-5.8-10-1.2-4-2-8.2-2-13 0-5 .6-9.4 2-13.6 1.4-4 3.4-7.6 6-10.4 2.6-2.8 5.8-5.2 9.4-6.8s7.8-2.4 12.6-2.4c4.6 0 8.6.6 12 2s6.2 3.2 8.6 5.4c2.2 2.2 4 5 5.2 7.8 1.2 3 2 6 2.2 9.4l-17.8.8zm41.8 12.1c.2 1.8.6 3.6 1.2 5.4.6 1.8 1.6 3.2 2.8 4.6 1.2 1.4 2.6 2.4 4.4 3.2 1.8.8 3.8 1.2 6 1.2 2.6 0 5-.6 7.2-1.8 2.2-1.2 3.8-3 5-5.4l16.8 1.4c-2 6.4-5.8 11-11 14.4-5.4 3.2-11.6 4.8-19 4.8-4.6 0-9-.8-12.8-2.2-3.8-1.6-7.2-3.8-10-6.6s-5-6.2-6.4-10.2c-1.6-4-2.4-8.4-2.4-13.4s.8-9.4 2.4-13.6c1.6-4 3.8-7.4 6.4-10.4 2.8-2.8 6-5 10-6.6 3.8-1.6 8.2-2.2 12.8-2.2 4.6 0 8.8.8 12.8 2.2 3.8 1.6 7.2 3.8 10 6.6s5 6.2 6.4 10.4c1.6 4 2.4 8.6 2.4 13.6v4.8h-45v-.2zm27.8-10.9c-.2-1.6-.6-3-1.2-4.6s-1.6-3-2.6-4.2c-1.2-1.2-2.4-2.4-4-3.2s-3.4-1.2-5.6-1.2-4.2.4-5.8 1c-1.6.8-3.2 1.6-4.4 2.8-1.2 1.2-2.2 2.6-2.8 4.2-.6 1.6-1.2 3.2-1.4 5H450v.2zm21.2 28.2c0-2.8 1-5.2 3-7.2s4.4-3 7.2-3 5.2 1 7.2 3 3 4.4 3 7.2-1 5.2-3 7.2-4.4 3-7.2 3-5.2-1-7.2-3-3-4.5-3-7.2zm67.8.6h-.2c-2.8 3.8-6.2 6.4-10 7.6-3.8 1.4-7.6 2-11 2-2.4 0-4.8-.4-7.4-1s-5-1.6-7-3.2c-2.2-1.4-3.8-3.4-5.2-5.8s-2-5.4-2-8.8c0-1.6.2-3.6.8-5.6.4-2 1.6-4 3.4-5.8 1.8-1.8 4.4-3.4 8-4.8s8.2-2.2 14.2-2.8l16-1v-2.8c0-3.6-1-6.4-3.2-8.2s-5.2-2.8-9-2.8c-3.6 0-6.4.8-8.4 2.4-2 1.6-3 3.8-3.2 6.6H498c.2-2.4.8-4.8 1.8-7.4 1-2.6 2.6-4.8 4.8-7 2.2-2.2 5.2-3.8 8.8-5.2s8.2-2 13.6-2c3.8 0 7.4.4 10.8 1.2 3.4.8 6.4 2 8.8 3.6 2.6 1.6 4.6 3.6 6 6.2 1.4 2.6 2.2 5.6 2.2 9v35.7c0 1.6 0 3 .2 4.2s.4 2.4.6 3.4H539v-7.7zm-.8-18.9l-14.4 1.4c-4 .4-6.8 1.2-8.2 2.4-1.6 1.2-2.2 3-2.2 5.2 0 1.4.2 2.6 1 3.4.6 1 1.4 1.6 2.4 2.2 1 .6 2 1 3.4 1.2s2.8.4 4.2.4 2.8-.2 4.4-.6c1.6-.4 3.2-1 4.6-1.8 1.4-.8 2.6-2 3.6-3.2 1-1.2 1.4-2.8 1.4-4.8v-5.8h-.2zm24.2-53.8c0-1.2.2-2.6.8-3.8s1.2-2.2 2.2-3.2c.8-1 2-1.8 3.2-2.4 1.2-.6 2.6-1 4-1 1.2 0 2.6.2 3.8.8s2.2 1.2 3.2 2.2 1.8 2 2.2 3.2c.6 1.2.8 2.4.8 3.8s-.2 2.6-.8 3.8-1.2 2.2-2.2 3.2-2 1.8-3.2 2.2c-1.2.6-2.6.8-4 .8s-2.8-.2-4-1c-1.2-.6-2.4-1.4-3.2-2.2-.8-1-1.6-2-2.2-3.2-.4-.7-.6-1.8-.6-3.2zm1.4 19H581v61.6h-17.2v-61.6z"/><path d="M-1929.8 652.9c-.2-2.6-1.2-4.6-2.8-6-1.8-1.4-4.4-2.2-7.6-2.2-2.4 0-4.4.4-6.2 1.4-1.8 1-2.8 2.4-2.8 4.2s1 3.2 2.8 4 4.2 1.6 7.2 2.2c2.8.6 6 1.2 9.2 1.8s6.4 1.6 9.2 3c2.8 1.4 5.2 3.2 7.2 5.6 1.8 2.4 2.8 5.6 2.8 9.8 0 1.2-.2 3-.8 5.2-.6 2.4-1.8 4.6-3.8 6.8s-4.8 4.2-8.4 6c-3.8 1.6-8.8 2.6-15 2.6-2.2 0-4.8-.2-7.8-.8-3-.4-5.8-1.4-8.6-2.8s-5.2-3.6-7.4-6.2c-2.2-2.8-3.4-6.4-3.6-11h17.2c0 1.6.4 2.8 1 3.8s1.4 2 2.4 2.6 2.2 1.2 3.4 1.6c1.2.4 2.4.4 3.8.4 1.2 0 2.2 0 3.4-.2 1.2-.2 2.2-.6 3.2-1s1.8-1.2 2.4-2 1-1.8 1-3.2c0-1.6-1-3-2.8-3.8s-4.2-1.4-6.8-2c-2.8-.6-5.6-1.2-8.8-1.8-3.2-.6-6.2-1.6-8.8-3-2.8-1.4-5-3.2-6.8-5.8-1.8-2.4-2.8-5.8-2.8-10 0-2.4.4-4.8 1.4-7.2s2.4-4.4 4.4-6.4c2-1.8 4.6-3.4 8-4.6 3.2-1.2 7.2-1.8 11.8-1.8 8 0 14.4 1.8 19.2 5.2 4.8 3.4 7.6 8.6 8 15.2l-17.4.4zm63.4 4.6c0-2.2-.4-4-1-5.4s-1.4-2.4-2.4-3.2-2-1.2-3.2-1.6c-1.2-.4-2.4-.4-3.4-.4-2.6 0-4.8.6-6.4 1.8s-2.8 2.8-3.6 4.8-1.4 4-1.6 6.2-.4 4.4-.4 6.4.2 4.2.6 6.2 1 3.8 2 5.6c1 1.6 2.2 3 3.6 4 1.6 1 3.4 1.6 5.6 1.6 3.4 0 5.8-1 7.6-2.8 1.8-1.8 2.8-4.2 3.2-7.4l17 .6c-.6 3.4-1.6 6.4-3 9.4-1.4 2.8-3.2 5.4-5.4 7.4s-4.8 3.8-8 4.8c-3.2 1.2-6.8 1.8-11 1.8-5 0-9.4-.8-13.2-2.4-3.8-1.6-7-3.8-9.4-6.6-2.6-2.8-4.4-6.2-5.8-10-1.2-4-2-8.2-2-13 0-5 .6-9.4 2-13.6 1.4-4 3.4-7.6 6-10.4 2.6-2.8 5.8-5.2 9.4-6.8s7.8-2.4 12.6-2.4c4.6 0 8.6.6 12 2s6.2 3.2 8.6 5.4c2.2 2.2 4 5 5.2 7.8 1.2 3 2 6 2.2 9.4l-17.8.8zm23.4-42.8c0-1.2.2-2.6.8-3.8.6-1.2 1.2-2.2 2.2-3.2.8-1 2-1.8 3.2-2.4 1.2-.6 2.6-1 4-1 1.2 0 2.6.2 3.8.8 1.2.6 2.2 1.2 3.2 2.2s1.8 2 2.2 3.2c.6 1.2.8 2.4.8 3.8s-.2 2.6-.8 3.8-1.2 2.2-2.2 3.2-2 1.8-3.2 2.2c-1.2.6-2.6.8-4 .8s-2.8-.2-4-1c-1.2-.6-2.4-1.4-3.2-2.2-.8-1-1.6-2-2.2-3.2-.2-.8-.6-2-.6-3.2zm1.4 19.2h17.2v61.6h-17.2v-61.6zm43 35.8c.2 1.8.6 3.6 1.2 5.4.6 1.8 1.6 3.2 2.8 4.6 1.2 1.4 2.6 2.4 4.4 3.2s3.8 1.2 6 1.2c2.6 0 5-.6 7.2-1.8s3.8-3 5-5.4l16.8 1.4c-2 6.4-5.8 11-11 14.4-5.4 3.2-11.6 4.8-19 4.8-4.6 0-9-.8-12.8-2.2-3.8-1.6-7.2-3.8-10-6.6s-5-6.2-6.4-10.2c-1.6-4-2.4-8.4-2.4-13.4s.8-9.4 2.4-13.6c1.6-4 3.8-7.4 6.4-10.4 2.8-2.8 6-5 10-6.6 3.8-1.6 8.2-2.2 12.8-2.2 4.6 0 8.8.8 12.8 2.2 3.8 1.6 7.2 3.8 10 6.6s5 6.2 6.4 10.4c1.6 4 2.4 8.6 2.4 13.6v4.8h-45v-.2zm27.8-11.2c-.2-1.6-.6-3-1.2-4.6s-1.6-3-2.6-4.2c-1.2-1.2-2.4-2.4-4-3.2s-3.4-1.2-5.6-1.2-4.2.4-5.8 1c-1.6.8-3.2 1.6-4.4 2.8-1.2 1.2-2.2 2.6-2.8 4.2-.6 1.6-1.2 3.2-1.4 5h27.8v.2zm64.6-.6c0-2.2-.2-4.2-.8-5.6-.6-1.6-1.4-2.8-2.4-3.6-1-1-2.2-1.6-3.4-2s-2.6-.6-4-.6c-3.6 0-6.2 1.4-8.2 4s-3 6.2-3 10.4v35h-17.2v-61.6h16.6v8h.2c2.6-3.8 5.4-6.4 8.4-7.6 3-1.4 6.4-2 9.8-2 3.6 0 6.8.6 9.6 1.6 2.8 1.2 5 2.6 6.8 4.6s3.2 4.2 4 6.8 1.2 5.4 1.2 8.4v41.8h-17.2v-37.6h-.4zm62.6-.4c0-2.2-.4-4-1-5.4s-1.4-2.4-2.4-3.2-2-1.2-3.2-1.6-2.4-.4-3.4-.4c-2.6 0-4.8.6-6.4 1.8s-2.8 2.8-3.6 4.8c-.8 2-1.4 4-1.6 6.2s-.4 4.4-.4 6.4.2 4.2.6 6.2 1 3.8 2 5.6c1 1.6 2.2 3 3.6 4 1.6 1 3.4 1.6 5.6 1.6 3.4 0 5.8-1 7.6-2.8 1.8-1.8 2.8-4.2 3.2-7.4l17 .6c-.6 3.4-1.6 6.4-3 9.4-1.4 2.8-3.2 5.4-5.4 7.4s-4.8 3.8-8 4.8c-3.2 1.2-6.8 1.8-11 1.8-5 0-9.4-.8-13.2-2.4s-7-3.8-9.4-6.6c-2.6-2.8-4.4-6.2-5.8-10-1.2-4-2-8.2-2-13 0-5 .6-9.4 2-13.6 1.4-4 3.4-7.6 6-10.4 2.6-2.8 5.8-5.2 9.4-6.8s7.8-2.4 12.6-2.4c4.6 0 8.6.6 12 2s6.2 3.2 8.6 5.4c2.2 2.2 4 5 5.2 7.8 1.2 3 2 6 2.2 9.4l-17.8.8zm41.8 12.2c.2 1.8.6 3.6 1.2 5.4.6 1.8 1.6 3.2 2.8 4.6 1.2 1.4 2.6 2.4 4.4 3.2s3.8 1.2 6 1.2c2.6 0 5-.6 7.2-1.8s3.8-3 5-5.4l16.8 1.4c-2 6.4-5.8 11-11 14.4-5.4 3.2-11.6 4.8-19 4.8-4.6 0-9-.8-12.8-2.2-3.8-1.6-7.2-3.8-10-6.6s-5-6.2-6.4-10.2c-1.6-4-2.4-8.4-2.4-13.4s.8-9.4 2.4-13.6c1.6-4 3.8-7.4 6.4-10.4 2.8-2.8 6-5 10-6.6 3.8-1.6 8.2-2.2 12.8-2.2 4.6 0 8.8.8 12.8 2.2 3.8 1.6 7.2 3.8 10 6.6s5 6.2 6.4 10.4c1.6 4 2.4 8.6 2.4 13.6v4.8h-45v-.2zm27.8-11.2c-.2-1.6-.6-3-1.2-4.6s-1.6-3-2.6-4.2c-1.2-1.2-2.4-2.4-4-3.2s-3.4-1.2-5.6-1.2-4.2.4-5.8 1c-1.6.8-3.2 1.6-4.4 2.8s-2.2 2.6-2.8 4.2c-.6 1.6-1.2 3.2-1.4 5h27.8v.2zm21.2 28.4c0-2.8 1-5.2 3-7.2s4.4-3 7.2-3 5.2 1 7.2 3 3 4.4 3 7.2-1 5.2-3 7.2-4.4 3-7.2 3-5.2-1-7.2-3-3-4.4-3-7.2zm67.8.6h-.2c-2.8 3.8-6.2 6.4-10 7.6-3.8 1.4-7.6 2-11 2-2.4 0-4.8-.4-7.4-1s-5-1.6-7-3.2c-2.2-1.4-3.8-3.4-5.2-5.8-1.4-2.4-2-5.4-2-8.8 0-1.6.2-3.6.8-5.6.4-2 1.6-4 3.4-5.8s4.4-3.4 8-4.8c3.6-1.4 8.2-2.2 14.2-2.8l16-1v-2.8c0-3.6-1-6.4-3.2-8.2s-5.2-2.8-9-2.8c-3.6 0-6.4.8-8.4 2.4-2 1.6-3 3.8-3.2 6.6h-16.6c.2-2.4.8-4.8 1.8-7.4s2.6-4.8 4.8-7c2.2-2.2 5.2-3.8 8.8-5.2 3.6-1.4 8.2-2 13.6-2 3.8 0 7.4.4 10.8 1.2s6.4 2 8.8 3.6c2.6 1.6 4.6 3.6 6 6.2 1.4 2.6 2.2 5.6 2.2 9v35.8c0 1.6 0 3 .2 4.2s.4 2.4.6 3.4h-16.6v-7.8h-.2zm-.8-18.8l-14.4 1.4c-4 .4-6.8 1.2-8.2 2.4-1.6 1.2-2.2 3-2.2 5.2 0 1.4.2 2.6 1 3.4.6 1 1.4 1.6 2.4 2.2s2 1 3.4 1.2 2.8.4 4.2.4 2.8-.2 4.4-.6c1.6-.4 3.2-1 4.6-1.8s2.6-2 3.6-3.2 1.4-2.8 1.4-4.8v-5.8h-.2zm24.2-54c0-1.2.2-2.6.8-3.8.6-1.2 1.2-2.2 2.2-3.2.8-1 2-1.8 3.2-2.4 1.2-.6 2.6-1 4-1 1.2 0 2.6.2 3.8.8s2.2 1.2 3.2 2.2 1.8 2 2.2 3.2c.6 1.2.8 2.4.8 3.8s-.2 2.6-.8 3.8c-.6 1.2-1.2 2.2-2.2 3.2s-2 1.8-3.2 2.2c-1.2.6-2.6.8-4 .8s-2.8-.2-4-1c-1.2-.6-2.4-1.4-3.2-2.2-.8-1-1.6-2-2.2-3.2-.4-.8-.6-2-.6-3.2zm1.4 19.2h17.2v61.6h-17.2v-61.6z" fill="#43304A"/><path fill="none" d="M-2342 751.3h1280v182h-1280z"/><text transform="translate(-2180.438 778.404)" fill="#43304A" font-family="'NeuzeitSLT-Book'" font-size="36">The modern science publishing platform.</text></svg>