<svg xmlns="http://www.w3.org/2000/svg" xmlns:xlink="http://www.w3.org/1999/xlink" viewBox="0 0 130.7 75.62"><defs><style>.cls-1{fill:url(#linear-gradient);}.cls-2{fill:url(#linear-gradient-2);}.cls-3{fill:url(#linear-gradient-3);}.cls-4{fill:url(#linear-gradient-4);}.cls-5{fill:url(#linear-gradient-5);}.cls-6{fill:url(#linear-gradient-6);}.cls-7{fill:url(#linear-gradient-7);}.cls-8{fill:url(#linear-gradient-8);}.cls-9{fill:url(#linear-gradient-9);}.cls-10{fill:url(#linear-gradient-10);}</style><linearGradient id="linear-gradient" x1="64.82" y1="29.26" x2="45.15" y2="17.09" gradientUnits="userSpaceOnUse"><stop offset="0" stop-color="#59aa96"/><stop offset="1" stop-color="#006eb8"/></linearGradient><linearGradient id="linear-gradient-2" x1="42.77" y1="39.94" x2="37.16" y2="24.67" xlink:href="#linear-gradient"/><linearGradient id="linear-gradient-3" x1="44.7" y1="17.63" x2="25.03" y2="5.46" xlink:href="#linear-gradient"/><linearGradient id="linear-gradient-4" x1="22.65" y1="28.3" x2="17.04" y2="13.03" xlink:href="#linear-gradient"/><linearGradient id="linear-gradient-5" x1="85.03" y1="40.91" x2="65.36" y2="28.75" xlink:href="#linear-gradient"/><linearGradient id="linear-gradient-6" x1="62.98" y1="51.59" x2="57.37" y2="36.32" xlink:href="#linear-gradient"/><linearGradient id="linear-gradient-7" x1="105.21" y1="52.58" x2="85.55" y2="40.41" xlink:href="#linear-gradient"/><linearGradient id="linear-gradient-8" x1="83.17" y1="63.26" x2="77.56" y2="47.99" xlink:href="#linear-gradient"/><linearGradient id="linear-gradient-9" x1="125.29" y1="64.2" x2="105.62" y2="52.04" xlink:href="#linear-gradient"/><linearGradient id="linear-gradient-10" x1="103.24" y1="74.88" x2="97.63" y2="59.61" xlink:href="#linear-gradient"/></defs><title>arrow-right</title><g id="Layer_2" data-name="Layer 2"><g id="qube_bg" data-name="qube bg"><polyline class="cls-1" points="70.22 23.3 50.01 11.63 39.12 22.62 39.1 22.64 39.14 22.63 59.33 34.29 70.22 23.3"/><polyline class="cls-2" points="59.33 34.29 39.14 22.63 39.1 22.64 20.12 29 20.36 29.14 40.15 40.56 40.33 40.67 59.31 34.32 59.33 34.29"/><polyline class="cls-3" points="50.1 11.67 29.89 0 19 10.99 18.98 11.01 19.02 11 39.21 22.66 50.1 11.67"/><polyline class="cls-4" points="39.21 22.66 19.02 11 18.98 11.01 0 17.37 0.24 17.51 20.03 28.93 20.21 29.04 39.19 22.68 39.21 22.66"/><polyline class="cls-5" points="90.43 34.96 70.22 23.29 59.33 34.28 59.3 34.3 59.34 34.29 79.54 45.95 90.43 34.96"/><polyline class="cls-6" points="79.54 45.95 59.34 34.29 59.3 34.3 40.33 40.66 40.56 40.79 60.35 52.22 60.54 52.33 79.52 45.97 79.54 45.95"/><polyline class="cls-7" points="110.62 46.62 90.4 34.95 79.52 45.94 79.49 45.97 79.53 45.95 99.73 57.61 110.62 46.62"/><polyline class="cls-8" points="99.73 57.61 79.53 45.95 79.49 45.97 60.52 52.32 60.75 52.46 80.54 63.89 80.73 63.99 99.71 57.64 99.73 57.61"/><polyline class="cls-9" points="130.69 58.25 110.48 46.58 99.59 57.57 99.57 57.59 99.61 57.58 119.81 69.24 130.69 58.25"/><polyline class="cls-10" points="119.81 69.24 99.61 57.58 99.57 57.59 80.59 63.95 80.83 64.08 100.62 75.51 100.81 75.62 119.78 69.26 119.81 69.24"/></g></g></svg>