<svg xmlns="http://www.w3.org/2000/svg" xmlns:xlink="http://www.w3.org/1999/xlink" viewBox="0 0 130.7 75.62"><defs><style>.cls-1{fill:url(#linear-gradient);}.cls-2{fill:url(#linear-gradient-2);}.cls-3{fill:url(#linear-gradient-3);}.cls-4{fill:url(#linear-gradient-4);}.cls-5{fill:url(#linear-gradient-5);}.cls-6{fill:url(#linear-gradient-6);}.cls-7{fill:url(#linear-gradient-7);}.cls-8{fill:url(#linear-gradient-8);}.cls-9{fill:url(#linear-gradient-9);}.cls-10{fill:url(#linear-gradient-10);}</style><linearGradient id="linear-gradient" x1="-913.49" y1="27.53" x2="-933.16" y2="15.37" gradientTransform="matrix(1, 0, 0, -1, 978.31, 73.89)" gradientUnits="userSpaceOnUse"><stop offset="0" stop-color="#59aa96"/><stop offset="1" stop-color="#006eb8"/></linearGradient><linearGradient id="linear-gradient-2" x1="-935.54" y1="38.21" x2="-941.15" y2="22.94" xlink:href="#linear-gradient"/><linearGradient id="linear-gradient-3" x1="-933.61" y1="15.9" x2="-953.28" y2="3.73" xlink:href="#linear-gradient"/><linearGradient id="linear-gradient-4" x1="-955.65" y1="26.58" x2="-961.26" y2="11.31" xlink:href="#linear-gradient"/><linearGradient id="linear-gradient-5" x1="-893.28" y1="39.19" x2="-912.95" y2="27.02" xlink:href="#linear-gradient"/><linearGradient id="linear-gradient-6" x1="-915.33" y1="49.87" x2="-920.94" y2="34.59" xlink:href="#linear-gradient"/><linearGradient id="linear-gradient-7" x1="-873.09" y1="50.85" x2="-892.76" y2="38.69" xlink:href="#linear-gradient"/><linearGradient id="linear-gradient-8" x1="-895.14" y1="61.53" x2="-900.75" y2="46.26" xlink:href="#linear-gradient"/><linearGradient id="linear-gradient-9" x1="-853.02" y1="62.48" x2="-872.68" y2="50.31" xlink:href="#linear-gradient"/><linearGradient id="linear-gradient-10" x1="-875.06" y1="73.16" x2="-880.67" y2="57.89" xlink:href="#linear-gradient"/></defs><title>arrow-up-right</title><g id="Layer_2" data-name="Layer 2"><g id="qube_bg" data-name="qube bg"><polyline class="cls-1" points="70.22 52.31 50.01 63.98 39.12 52.99 39.1 52.97 39.14 52.98 59.33 41.33 70.22 52.31"/><polyline class="cls-2" points="59.33 41.33 39.14 52.98 39.1 52.97 20.12 46.62 20.36 46.48 40.15 35.05 40.33 34.95 59.31 41.3 59.33 41.33"/><polyline class="cls-3" points="50.1 63.95 29.89 75.62 19 64.63 18.98 64.6 19.02 64.62 39.21 52.96 50.1 63.95"/><polyline class="cls-4" points="39.21 52.96 19.02 64.62 18.98 64.6 0 58.25 0.24 58.11 20.03 46.69 20.21 46.58 39.19 52.93 39.21 52.96"/><polyline class="cls-5" points="90.43 40.66 70.22 52.33 59.33 41.34 59.3 41.32 59.34 41.33 79.54 29.67 90.43 40.66"/><polyline class="cls-6" points="79.54 29.67 59.34 41.33 59.3 41.32 40.33 34.96 40.56 34.82 60.35 23.4 60.54 23.29 79.52 29.65 79.54 29.67"/><polyline class="cls-7" points="110.62 28.99 90.4 40.66 79.52 29.67 79.49 29.65 79.53 29.66 99.73 18 110.62 28.99"/><polyline class="cls-8" points="99.73 18 79.53 29.66 79.49 29.65 60.52 23.29 60.75 23.16 80.54 11.73 80.73 11.62 99.71 17.98 99.73 18"/><polyline class="cls-9" points="130.69 17.37 110.48 29.04 99.59 18.05 99.57 18.03 99.61 18.04 119.81 6.38 130.69 17.37"/><polyline class="cls-10" points="119.81 6.38 99.61 18.04 99.57 18.03 80.59 11.67 80.83 11.53 100.62 0.11 100.81 0 119.78 6.36 119.81 6.38"/></g></g></svg>