<svg xmlns="http://www.w3.org/2000/svg" xmlns:xlink="http://www.w3.org/1999/xlink" viewBox="0 0 37.85 85.19"><defs><style>.cls-1{fill:none;}.cls-2{isolation:isolate;}.cls-3{clip-path:url(#clip-path);}.cls-4{fill:#fff;}</style><clipPath id="clip-path" transform="translate(-0.01 -1.98)"><polygon class="cls-1" points="0.19 89.15 0 21.76 37.68 0 37.87 67.39 0.19 89.15"/></clipPath></defs><title>author-cc</title><g id="Layer_2" data-name="Layer 2"><g id="qube_bg" data-name="qube bg"><g class="cls-2"><g class="cls-3"><path class="cls-4" d="M27,60.72a9.16,9.16,0,0,1-2.73,2.62,4,4,0,0,1-2.61.61,5,5,0,0,0-.12,1c0,1.74,1.22,2.51,2.81,1.6a6.12,6.12,0,0,0,2.78-4.83,2.36,2.36,0,0,0-.13-1m-20.19-39a30.5,30.5,0,0,0-5,9.67l.13,46.43A6.49,6.49,0,0,0,7,81.64L6.82,21.69M24.36,68.48c-2.49,1.44-4.56.32-4.57-2.61A8,8,0,0,1,20.33,63a3.32,3.32,0,0,1-.74-2.37,10.14,10.14,0,0,1,4.61-8c2.61-1.51,4.68-.26,4.69,2.67a7.58,7.58,0,0,1-.6,3,4.31,4.31,0,0,1,.62,2.31,10.12,10.12,0,0,1-4.55,7.87m-3.47-23.6a.57.57,0,0,1-.92-.52L19.9,17.62A2,2,0,0,1,20.81,16c.48-.28.9,0,.91.53l.07,26.74a2.07,2.07,0,0,1-.9,1.57m4.66-9.19a.57.57,0,0,1-.92-.53l-.05-20.24a2,2,0,0,1,.91-1.58.56.56,0,0,1,.91.52l.05,20.25a2.09,2.09,0,0,1-.9,1.58M30.39,26a.57.57,0,0,1-.92-.52l0-13.34a2.06,2.06,0,0,1,.9-1.58.57.57,0,0,1,.92.53l0,13.33A2.1,2.1,0,0,1,30.39,26M15.63,14.76,15.81,78l11.86-6.8a30.1,30.1,0,0,0,8.41-14.71L36,13.19C34.65,9,31.12,7.11,26.69,8.42L15.63,14.76" transform="translate(-0.01 -1.98)"/><path d="M1.79,31.36V25.7a5.63,5.63,0,0,1,2.54-4.41l2.49-1.44v1.84l.17,60v1.48L4.5,84.56c-1.45.84-2.56.15-2.56-1.46l0-5.31L1.79,31.36M27.67,71.23,15.81,78l-.18-63.27L26.69,8.42l6.68-3.83c1.4-.81,2.56-.15,2.56,1.46l0,7.14.13,43.33,0,6.93a5.67,5.67,0,0,1-2.55,4.41l-5.88,3.37m-23.35-52A9.44,9.44,0,0,0,0,26.72l.17,57.4c0,2.72,2,3.83,4.33,2.46l29.05-16.7a9.5,9.5,0,0,0,4.3-7.45L37.7,5c0-2.73-2-3.83-4.33-2.46l-29,16.69" transform="translate(-0.01 -1.98)"/><path d="M20.81,16a2,2,0,0,0-.91,1.58L20,44.36a.57.57,0,0,0,.92.52,2.07,2.07,0,0,0,.9-1.57l-.07-26.74c0-.56-.43-.81-.91-.53" transform="translate(-0.01 -1.98)"/><path d="M25.49,13.34a2,2,0,0,0-.91,1.58l.05,20.24a.57.57,0,0,0,.92.53,2.09,2.09,0,0,0,.9-1.58L26.4,13.86a.56.56,0,0,0-.91-.52" transform="translate(-0.01 -1.98)"/><path d="M30.34,10.53a2.06,2.06,0,0,0-.9,1.58l0,13.34a.57.57,0,0,0,.92.52,2.1,2.1,0,0,0,.91-1.58l0-13.33a.57.57,0,0,0-.92-.53" transform="translate(-0.01 -1.98)"/><path d="M24.28,63.34A9.16,9.16,0,0,0,27,60.72a2.36,2.36,0,0,1,.13,1,6.12,6.12,0,0,1-2.78,4.83c-1.59.91-2.8.14-2.81-1.6a5,5,0,0,1,.12-1,4,4,0,0,0,2.61-.61M24.2,52.63a10.14,10.14,0,0,0-4.61,8A3.32,3.32,0,0,0,20.33,63a8,8,0,0,0-.54,2.83c0,2.93,2.08,4,4.57,2.61a10.12,10.12,0,0,0,4.55-7.87,4.31,4.31,0,0,0-.62-2.31,7.58,7.58,0,0,0,.6-3c0-2.93-2.08-4.18-4.69-2.67" transform="translate(-0.01 -1.98)"/></g></g></g></g></svg>