<svg xmlns="http://www.w3.org/2000/svg" xmlns:xlink="http://www.w3.org/1999/xlink" viewBox="0 0 63.19 107.98"><defs><style>.cls-1{fill:none;}.cls-2{fill:#81c090;stroke:#fff;stroke-linejoin:round;stroke-width:2px;}.cls-3{isolation:isolate;}.cls-4{clip-path:url(#clip-path);}.cls-5{fill:#fff;}.cls-6{clip-path:url(#clip-path-2);}</style><clipPath id="clip-path"><polygon class="cls-1" points="37.62 46.52 37.56 24.51 53.4 15.37 53.47 37.38 37.62 46.52"/></clipPath><clipPath id="clip-path-2"><polygon class="cls-1" points="9.83 62.28 9.76 39.97 20.75 33.63 20.81 55.94 9.83 62.28"/></clipPath></defs><title>author-panel</title><g id="Layer_2" data-name="Layer 2"><g id="Layer_3" data-name="Layer 3"><polygon class="cls-2" points="1.01 36.32 62.19 1 62.19 71.64 62.18 71.66 1 106.98 1 36.33 1.01 36.32"/><g id="Page-1"><g class="cls-3"><g class="cls-4"><path class="cls-5" d="M42.94,37.35l-2,1.1L41,36.08l6-10,2,1.27-6,10.05m6.68-11-2-1.27,1-1.64a1,1,0,0,1,.36-.37.33.33,0,0,1,.38,0l1.19.76c.21.13.19.51,0,.87l-.94,1.67m-4-4.83L39,28.41l-.12,5.11c-.12,4.85,2.57,7.85,6.26,7.1A21.48,21.48,0,0,0,52,26.47l.12-5.11-6.44.14"/><path class="cls-5" d="M45.16,40.62c-3.69.75-6.38-2.25-6.26-7.1L39,28.41l6.62-6.91,6.44-.14L52,26.47a21.48,21.48,0,0,1-6.8,14.15m.52-20.8-7.94,8.3-.15,6.1c-.14,5.65,3.07,9.12,7.53,8,4.53-3.71,8-10.78,8.15-16.43l.14-6.1-7.73.16"/></g></g></g><g class="cls-3"><g class="cls-6"><path class="cls-5" d="M17,35.8l-3.23,1.87v2.68C11.65,42.08,10,44.62,10,47c0,2.87,2.07,3.1,5.09,2.19,2.69-.81,3.24,0,3.24,1.12,0,.85-.52,2.52-2.91,3.9-2.22,1.28-3.1.65-3.22-.75L9.81,54.84c.13,2.64,1.9,3.15,4,2.46V60L17,58.12V55.46c2.1-1.68,3.77-4,3.76-6.58,0-3.52-2.63-3.22-5.09-2.53s-3.24.38-3.24-.8c0-1.35,1.08-2.93,2.9-4s2.64-.46,2.71,1l2.38-1.38c-.08-2.09-1.21-3.39-3.47-2.72V35.8"/></g></g></g></g></svg>