<svg xmlns="http://www.w3.org/2000/svg" xmlns:xlink="http://www.w3.org/1999/xlink" viewBox="0 0 126.4 145.95"><defs><style>.cls-1{fill:none;}.cls-2{opacity:0.49;}.cls-3{isolation:isolate;}.cls-4{clip-path:url(#clip-path);}.cls-5{fill:#b586b4;}.cls-6{fill:#fff;}</style><clipPath id="clip-path"><polygon class="cls-1" points="32.69 125.68 32.49 54.76 94.21 19.13 94.41 90.05 32.69 125.68"/></clipPath></defs><title>cube-gd-3</title><g id="Layer_2" data-name="Layer 2"><g id="inner_grid" data-name="inner grid"><g class="cls-2"><g class="cls-3"><g class="cls-4"><polyline class="cls-5" points="47.57 47.69 33.91 55.57 33.96 71.27 47.62 63.38 47.57 47.69"/><polyline class="cls-6" points="47.57 46.06 32.49 54.76 32.55 73.71 32.54 72.08 33.96 71.27 33.91 55.57 47.57 47.69 47.62 63.38 47.57 46.06"/><polyline class="cls-5" points="62.65 38.98 48.99 46.87 49.03 62.56 62.69 54.68 62.65 38.98"/><polyline class="cls-6" points="62.64 37.36 47.57 46.06 47.62 63.38 49.03 62.56 48.99 46.87 62.65 38.98 62.69 54.68 62.64 37.36"/><polyline class="cls-5" points="77.72 30.28 64.06 38.17 64.11 53.86 77.76 45.98 77.72 30.28"/><polyline class="cls-6" points="77.71 28.65 62.64 37.36 62.69 54.68 64.11 53.86 64.06 38.17 77.72 30.28 77.76 45.98 77.71 28.65"/><polyline class="cls-5" points="92.79 21.58 79.14 29.46 79.18 45.16 92.84 37.27 92.79 21.58"/><polyline class="cls-6" points="94.21 19.13 77.71 28.65 77.76 45.98 79.18 45.16 79.14 29.46 92.79 21.58 92.84 37.27 94.25 36.45 94.21 19.13"/><polyline class="cls-5" points="47.62 65.01 33.96 72.89 34.01 88.59 47.66 80.7 47.62 65.01"/><polyline class="cls-6" points="47.62 63.38 33.96 71.27 32.54 72.08 32.55 73.71 32.59 91.03 32.59 89.41 34.01 88.59 33.96 72.89 47.62 65.01 47.66 80.7 47.62 63.38"/><polyline class="cls-5" points="62.69 56.31 49.04 64.19 49.08 79.88 62.74 72 62.69 56.31"/><polyline class="cls-6" points="62.69 54.68 49.03 62.56 47.62 63.38 47.66 80.7 49.08 79.88 49.04 64.19 62.69 56.31 62.74 72 62.69 54.68"/><polyline class="cls-5" points="77.77 47.6 64.11 55.49 64.16 71.18 77.81 63.3 77.77 47.6"/><polyline class="cls-6" points="77.76 45.98 64.11 53.86 62.69 54.68 62.74 72 64.16 71.18 64.11 55.49 77.77 47.6 77.81 63.3 77.76 45.98"/><polyline class="cls-5" points="92.84 38.9 79.19 46.78 79.23 62.48 92.89 54.59 92.84 38.9"/><polyline class="cls-6" points="94.25 36.45 92.84 37.27 79.18 45.16 77.76 45.98 77.81 63.3 79.23 62.48 79.19 46.78 92.84 38.9 92.89 54.59 94.3 53.77 94.25 36.45"/><polyline class="cls-5" points="47.67 82.33 34.01 90.22 34.06 105.91 47.71 98.02 47.67 82.33"/><polyline class="cls-6" points="47.66 80.7 34.01 88.59 32.59 89.41 32.59 91.03 32.64 108.36 32.64 106.73 34.06 105.91 34.01 90.22 47.67 82.33 47.71 98.02 47.66 80.7"/><polyline class="cls-5" points="62.74 73.63 49.09 81.51 49.13 97.2 62.79 89.32 62.74 73.63"/><polyline class="cls-6" points="62.74 72 49.08 79.88 47.66 80.7 47.71 98.02 49.13 97.2 49.09 81.51 62.74 73.63 62.79 89.32 62.74 72"/><polyline class="cls-5" points="77.82 64.92 64.16 72.81 64.2 88.5 77.86 80.62 77.82 64.92"/><polyline class="cls-6" points="77.81 63.3 64.16 71.18 62.74 72 62.79 89.32 64.2 88.5 64.16 72.81 77.82 64.92 77.86 80.62 77.81 63.3"/><polyline class="cls-5" points="92.89 56.22 79.23 64.11 79.28 79.8 92.94 71.92 92.89 56.22"/><polyline class="cls-6" points="94.3 53.77 92.89 54.59 79.23 62.48 77.81 63.3 77.86 80.62 79.28 79.8 79.23 64.11 92.89 56.22 92.94 71.92 94.35 71.1 94.3 53.77"/><polyline class="cls-5" points="47.72 99.65 34.06 107.54 34.1 123.23 47.76 115.34 47.72 99.65"/><path class="cls-6" d="M34.11,123.23l0-15.69,13.66-7.89,0,15.7-13.65,7.88M47.71,98l-13.65,7.89-1.42.82v1.63l0,17.32,16.49-9.52-1.41.82-.06-19"/><polyline class="cls-5" points="62.79 90.95 49.13 98.83 49.18 114.53 62.84 106.64 62.79 90.95"/><path class="cls-6" d="M49.18,114.53l0-15.7L62.79,91l.05,15.69-13.66,7.89M62.79,89.32,49.13,97.21,47.71,98l.06,19,1.41-.82,15.08-8.7-1.42.82-.05-19"/><polyline class="cls-5" points="77.87 82.25 64.21 90.13 64.25 105.82 77.91 97.94 77.87 82.25"/><path class="cls-6" d="M64.25,105.82l0-15.69,13.66-7.88,0,15.69-13.66,7.88m13.61-25.2L64.2,88.5l-1.41.82.05,19,1.42-.82,15.07-8.7-1.41.82-.06-19"/><polyline class="cls-5" points="92.94 73.54 79.28 81.43 79.33 97.12 92.98 89.24 92.94 73.54"/><path class="cls-6" d="M79.33,97.12l0-15.69,13.66-7.89,0,15.7L79.33,97.12m15-26-1.41.81L79.28,79.8l-1.42.82.06,19,1.41-.82,15.08-8.71-.06-19"/></g></g><polygon class="cls-1" points="126.4 109.46 126.4 36.49 63.2 0 0 36.49 0 109.46 63.2 145.95 126.4 109.46"/></g></g></g></svg>