<svg xmlns="http://www.w3.org/2000/svg" xmlns:xlink="http://www.w3.org/1999/xlink" viewBox="0 0 126.4 145.95"><defs><style>.cls-1{fill:none;}.cls-2{opacity:0.49;}.cls-3{isolation:isolate;}.cls-4{clip-path:url(#clip-path);}.cls-5{fill:#76b3b8;}.cls-6{fill:#fff;}</style><clipPath id="clip-path"><polygon class="cls-1" points="2.69 107.69 2.49 36.77 64.21 1.13 64.41 72.05 2.69 107.69"/></clipPath></defs><title>cube-gd-1</title><g id="Layer_2" data-name="Layer 2"><g id="inner_grid" data-name="inner grid"><g class="cls-2"><g class="cls-3"><g class="cls-4"><polyline class="cls-5" points="17.57 29.69 3.92 37.57 3.96 53.26 17.61 45.38 17.57 29.69"/><polyline class="cls-6" points="17.56 28.06 2.49 36.77 2.54 55.72 2.54 54.09 3.96 53.26 3.92 37.57 17.57 29.69 17.61 45.38 17.56 28.06"/><polyline class="cls-5" points="32.65 20.98 18.99 28.87 19.03 44.56 32.69 36.68 32.65 20.98"/><polyline class="cls-6" points="32.64 19.36 17.56 28.06 17.61 45.38 19.03 44.56 18.99 28.87 32.65 20.98 32.69 36.68 32.64 19.36"/><polyline class="cls-5" points="47.72 12.28 34.06 20.16 34.11 35.86 47.77 27.97 47.72 12.28"/><polyline class="cls-6" points="47.72 10.65 32.64 19.36 32.69 36.68 34.11 35.86 34.06 20.16 47.72 12.28 47.77 27.97 47.72 10.65"/><polyline class="cls-5" points="62.8 3.58 49.14 11.46 49.18 27.16 62.84 19.27 62.8 3.58"/><polyline class="cls-6" points="64.21 1.13 47.72 10.65 47.77 27.97 49.18 27.16 49.14 11.46 62.8 3.58 62.84 19.27 64.26 18.45 64.21 1.13"/><polyline class="cls-5" points="17.61 47.01 3.96 54.89 4.01 70.58 17.66 62.7 17.61 47.01"/><polyline class="cls-6" points="17.61 45.38 3.96 53.26 2.54 54.09 2.54 55.72 2.59 73.04 2.58 71.41 4.01 70.58 3.96 54.89 17.61 47.01 17.66 62.7 17.61 45.38"/><polyline class="cls-5" points="32.7 38.3 19.04 46.19 19.08 61.88 32.74 54 32.7 38.3"/><polyline class="cls-6" points="32.69 36.68 19.03 44.56 17.61 45.38 17.66 62.7 19.08 61.88 19.04 46.19 32.7 38.3 32.74 54 32.69 36.68"/><polyline class="cls-5" points="47.77 29.6 34.11 37.49 34.16 53.18 47.81 45.29 47.77 29.6"/><polyline class="cls-6" points="47.77 27.97 34.11 35.86 32.69 36.68 32.74 54 34.16 53.18 34.11 37.49 47.77 29.6 47.81 45.29 47.77 27.97"/><polyline class="cls-5" points="62.84 20.9 49.19 28.78 49.23 44.48 62.89 36.59 62.84 20.9"/><polyline class="cls-6" points="64.26 18.45 62.84 19.27 49.18 27.16 47.77 27.97 47.81 45.29 49.23 44.48 49.19 28.78 62.84 20.9 62.89 36.59 64.31 35.77 64.26 18.45"/><polyline class="cls-5" points="17.66 64.33 4.01 72.21 4.06 87.91 17.71 80.03 17.66 64.33"/><polyline class="cls-6" points="17.66 62.7 4.01 70.58 2.58 71.41 2.59 73.04 2.64 90.36 2.63 88.73 4.06 87.91 4.01 72.21 17.66 64.33 17.71 80.03 17.66 62.7"/><polyline class="cls-5" points="32.74 55.63 19.09 63.51 19.13 79.2 32.79 71.32 32.74 55.63"/><polyline class="cls-6" points="32.74 54 19.08 61.88 17.66 62.7 17.71 80.03 19.13 79.2 19.09 63.51 32.74 55.63 32.79 71.32 32.74 54"/><polyline class="cls-5" points="47.82 46.92 34.16 54.81 34.21 70.5 47.86 62.62 47.82 46.92"/><polyline class="cls-6" points="47.81 45.29 34.16 53.18 32.74 54 32.79 71.32 34.21 70.5 34.16 54.81 47.82 46.92 47.86 62.62 47.81 45.29"/><polyline class="cls-5" points="62.89 38.22 49.24 46.1 49.28 61.8 62.94 53.91 62.89 38.22"/><polyline class="cls-6" points="64.31 35.77 62.89 36.59 49.23 44.48 47.81 45.29 47.86 62.62 49.28 61.8 49.24 46.1 62.89 38.22 62.94 53.91 64.36 53.09 64.31 35.77"/><polyline class="cls-5" points="17.71 81.65 4.06 89.53 4.11 105.23 17.76 97.35 17.71 81.65"/><path class="cls-6" d="M4.11,105.23,4.06,89.54l13.65-7.89.05,15.7L4.11,105.23M17.71,80,4.06,87.91l-1.43.82v1.63l0,17.33,16.5-9.53L17.76,99l-.05-19"/><polyline class="cls-5" points="32.79 72.95 19.14 80.83 19.18 96.53 32.84 88.64 32.79 72.95"/><path class="cls-6" d="M19.18,96.53l0-15.7L32.79,73l.05,15.69L19.18,96.53M32.79,71.32,19.13,79.2,17.71,80l.05,19,1.43-.82,15.07-8.7-1.42.82-.05-19"/><polyline class="cls-5" points="47.87 64.25 34.21 72.13 34.26 87.82 47.91 79.94 47.87 64.25"/><path class="cls-6" d="M34.26,87.82l0-15.69,13.66-7.89,0,15.7L34.26,87.82m13.6-25.2L34.21,70.5l-1.42.82.05,19,1.42-.82,15.07-8.71-1.41.82-.06-18.95"/><polyline class="cls-5" points="62.94 55.54 49.28 63.43 49.33 79.12 62.99 71.23 62.94 55.54"/><path class="cls-6" d="M49.33,79.12l0-15.69,13.65-7.89L63,71.23,49.33,79.12m15-26-1.41.82L49.28,61.8l-1.42.82.06,18.95,1.41-.82,15.08-8.7-.06-19"/></g></g></g><polygon class="cls-1" points="126.4 109.46 126.4 36.49 63.2 0 0 36.49 0 109.46 63.2 145.95 126.4 109.46"/></g></g></svg>