<svg xmlns="http://www.w3.org/2000/svg" xmlns:xlink="http://www.w3.org/1999/xlink" viewBox="0 0 126.4 145.95"><defs><style>.cls-1{fill:none;}.cls-2{opacity:0.49;}.cls-3{isolation:isolate;}.cls-4{clip-path:url(#clip-path);}.cls-5{fill:#557cb2;}.cls-6{fill:#fff;}</style><clipPath id="clip-path"><polygon class="cls-1" points="62.69 143.69 62.49 72.77 124.21 37.13 124.41 108.05 62.69 143.69"/></clipPath></defs><title>cube-gd-5</title><g id="Layer_2" data-name="Layer 2"><g id="inner_grid" data-name="inner grid"><g class="cls-2"><g class="cls-3"><g class="cls-4"><polyline class="cls-5" points="77.57 65.69 63.91 73.58 63.96 89.27 77.61 81.38 77.57 65.69"/><polyline class="cls-6" points="77.56 64.06 62.49 72.77 62.54 91.72 62.54 90.09 63.96 89.27 63.91 73.58 77.57 65.69 77.61 81.38 77.56 64.06"/><polyline class="cls-5" points="92.64 56.99 78.99 64.87 79.03 80.56 92.69 72.68 92.64 56.99"/><polyline class="cls-6" points="92.64 55.36 77.56 64.06 77.61 81.38 79.03 80.56 78.99 64.87 92.64 56.99 92.69 72.68 92.64 55.36"/><polyline class="cls-5" points="107.72 48.28 94.06 56.17 94.11 71.86 107.76 63.98 107.72 48.28"/><polyline class="cls-6" points="107.71 46.66 92.64 55.36 92.69 72.68 94.11 71.86 94.06 56.17 107.72 48.28 107.76 63.98 107.71 46.66"/><polyline class="cls-5" points="122.79 39.58 109.14 47.46 109.19 63.16 122.84 55.27 122.79 39.58"/><polyline class="cls-6" points="124.21 37.13 107.71 46.66 107.76 63.98 109.19 63.16 109.14 47.46 122.79 39.58 122.84 55.27 124.26 54.45 124.21 37.13"/><polyline class="cls-5" points="77.62 83.01 63.96 90.9 64 106.59 77.66 98.7 77.62 83.01"/><polyline class="cls-6" points="77.61 81.38 63.96 89.27 62.54 90.09 62.54 91.72 62.59 109.04 62.59 107.41 64 106.59 63.96 90.9 77.62 83.01 77.66 98.7 77.61 81.38"/><polyline class="cls-5" points="92.69 74.31 79.03 82.19 79.08 97.89 92.74 90 92.69 74.31"/><polyline class="cls-6" points="92.69 72.68 79.03 80.56 77.61 81.38 77.66 98.7 79.08 97.89 79.03 82.19 92.69 74.31 92.74 90 92.69 72.68"/><polyline class="cls-5" points="107.77 65.61 94.11 73.49 94.15 89.18 107.81 81.3 107.77 65.61"/><polyline class="cls-6" points="107.76 63.98 94.11 71.86 92.69 72.68 92.74 90 94.15 89.18 94.11 73.49 107.77 65.61 107.81 81.3 107.76 63.98"/><polyline class="cls-5" points="122.84 56.9 109.19 64.78 109.23 80.48 122.89 72.59 122.84 56.9"/><polyline class="cls-6" points="124.26 54.45 122.84 55.27 109.19 63.16 107.76 63.98 107.81 81.3 109.23 80.48 109.19 64.78 122.84 56.9 122.89 72.59 124.31 71.77 124.26 54.45"/><polyline class="cls-5" points="77.67 100.33 64.01 108.22 64.06 123.91 77.71 116.03 77.67 100.33"/><polyline class="cls-6" points="77.66 98.7 64 106.59 62.59 107.41 62.59 109.04 62.64 126.36 62.64 124.73 64.06 123.91 64.01 108.22 77.67 100.33 77.71 116.03 77.66 98.7"/><polyline class="cls-5" points="92.74 91.63 79.08 99.52 79.13 115.21 92.79 107.32 92.74 91.63"/><polyline class="cls-6" points="92.74 90 79.08 97.89 77.66 98.7 77.71 116.03 79.13 115.21 79.08 99.52 92.74 91.63 92.79 107.32 92.74 90"/><polyline class="cls-5" points="107.81 82.93 94.16 90.81 94.2 106.5 107.86 98.62 107.81 82.93"/><polyline class="cls-6" points="107.81 81.3 94.15 89.18 92.74 90 92.79 107.32 94.2 106.5 94.16 90.81 107.81 82.93 107.86 98.62 107.81 81.3"/><polyline class="cls-5" points="122.89 74.22 109.24 82.11 109.28 97.8 122.93 89.92 122.89 74.22"/><polyline class="cls-6" points="124.31 71.77 122.89 72.59 109.23 80.48 107.81 81.3 107.86 98.62 109.28 97.8 109.24 82.11 122.89 74.22 122.93 89.92 124.36 89.09 124.31 71.77"/><polyline class="cls-5" points="77.72 117.66 64.06 125.54 64.1 141.23 77.76 133.35 77.72 117.66"/><path class="cls-6" d="M64.1,141.23l0-15.69,13.66-7.89,0,15.7L64.1,141.23M77.71,116l-13.66,7.88-1.41.82v1.63l0,17.33,16.49-9.53-1.41.82L77.71,116"/><polyline class="cls-5" points="92.79 108.95 79.13 116.84 79.18 132.53 92.83 124.64 92.79 108.95"/><path class="cls-6" d="M79.18,132.53l-.05-15.69L92.79,109l0,15.69-13.65,7.89m13.61-25.21-13.66,7.89-1.42.82L77.77,135l1.41-.82,15.08-8.7-1.42.82,0-19"/><polyline class="cls-5" points="107.86 100.25 94.21 108.13 94.25 123.83 107.91 115.94 107.86 100.25"/><path class="cls-6" d="M94.25,123.83l0-15.7,13.65-7.88,0,15.69-13.66,7.89m13.61-25.21L94.2,106.5l-1.41.82,0,19,1.42-.82,15.08-8.71-1.43.83,0-19"/><polyline class="cls-5" points="122.94 91.55 109.29 99.43 109.33 115.12 122.98 107.24 122.94 91.55"/><path class="cls-6" d="M109.33,115.12l0-15.69,13.65-7.88,0,15.69-13.65,7.88m15-26-1.43.83L109.28,97.8l-1.42.82,0,19,1.43-.83,15.07-8.7,0-19"/></g></g><polygon class="cls-1" points="126.4 109.46 126.4 36.49 63.2 0 0 36.49 0 109.46 63.2 145.95 126.4 109.46"/></g></g></g></svg>