<svg xmlns="http://www.w3.org/2000/svg" xmlns:xlink="http://www.w3.org/1999/xlink" viewBox="0 0 126.4 145.95"><defs><style>.cls-1{fill:none;}.cls-2{isolation:isolate;}.cls-3{opacity:0.49;mix-blend-mode:multiply;}.cls-4{clip-path:url(#clip-path);}.cls-5{fill:#ff9cc0;}.cls-6{fill:#e6e6e6;}</style><clipPath id="clip-path"><polygon class="cls-1" points="17.69 116.69 17.49 45.77 79.21 10.13 79.41 81.05 17.69 116.69"/></clipPath></defs><title>cube-gd-2</title><g class="cls-2"><g id="Layer_2" data-name="Layer 2"><g id="inner_grid" data-name="inner grid"><g class="cls-3"><g class="cls-2"><g class="cls-4"><polyline class="cls-5" points="32.57 38.69 18.91 46.58 18.96 62.27 32.61 54.38 32.57 38.69"/><path class="cls-6" d="M33.27,36.65,18.2,45.36a1.55,1.55,0,0,0-.71,1.22l.05,17.32a1.55,1.55,0,0,1,.71-1.22l.71-.41-.05-15.69,13.66-7.89,0,15.69,0-16.5a1.57,1.57,0,0,1,.7-1.23"/><polyline class="cls-5" points="47.64 29.99 33.99 37.87 34.03 53.56 47.69 45.68 47.64 29.99"/><path class="cls-6" d="M48.35,28l-15.08,8.7a1.57,1.57,0,0,0-.7,1.23l0,16.5.71-.41.71-.41,0-15.69L47.64,30l0,15.69,0-16.51A1.57,1.57,0,0,1,48.35,28"/><polyline class="cls-5" points="62.72 21.28 49.06 29.17 49.1 44.86 62.76 36.98 62.72 21.28"/><path class="cls-6" d="M63.42,19.25,48.35,28a1.57,1.57,0,0,0-.71,1.22l0,16.51.71-.41.7-.41,0-15.69,13.66-7.89,0,15.7,0-16.51a1.55,1.55,0,0,1,.71-1.22"/><polyline class="cls-5" points="77.79 12.58 64.14 20.46 64.19 36.16 77.84 28.27 77.79 12.58"/><path class="cls-6" d="M78.5,10.54,63.42,19.25a1.55,1.55,0,0,0-.71,1.22l0,16.51.71-.41.72-.42,0-15.69,13.65-7.88,0,15.69.71-.41c.39-.22.71,0,.71.41l-.05-17.33c0-.44-.32-.63-.71-.4"/><polyline class="cls-5" points="32.62 56.01 18.96 63.9 19 79.59 32.66 71.7 32.62 56.01"/><path class="cls-6" d="M33.32,54l-.71.41L19,62.27l-.71.41a1.55,1.55,0,0,0-.71,1.22l.05,17.32A1.55,1.55,0,0,1,18.3,80l.71-.41L19,63.9,32.62,56l0,15.69,0-16.5a1.55,1.55,0,0,1,.7-1.23"/><polyline class="cls-5" points="47.69 47.31 34.03 55.19 34.08 70.89 47.74 63 47.69 47.31"/><path class="cls-6" d="M48.4,45.27l-.71.41L34,53.56l-.71.41a1.55,1.55,0,0,0-.7,1.23l0,16.5.71-.4.71-.41,0-15.7,13.65-7.88L47.74,63l-.05-16.51a1.58,1.58,0,0,1,.71-1.22"/><polyline class="cls-5" points="62.77 38.61 49.11 46.49 49.15 62.18 62.81 54.3 62.77 38.61"/><path class="cls-6" d="M63.47,36.57l-.71.41L49.1,44.86l-.7.41a1.58,1.58,0,0,0-.71,1.22L47.74,63l.71-.41.7-.41,0-15.69,13.66-7.88,0,15.69-.05-16.51a1.55,1.55,0,0,1,.71-1.22"/><polyline class="cls-5" points="77.84 29.9 64.19 37.78 64.23 53.48 77.89 45.59 77.84 29.9"/><path class="cls-6" d="M78.55,27.86l-.71.41L64.19,36.15l-.72.42a1.55,1.55,0,0,0-.71,1.22l.05,16.51.71-.41.71-.41,0-15.7L77.84,29.9l0,15.7.72-.42c.39-.22.71,0,.71.41l0-17.32c0-.45-.32-.63-.71-.41"/><polyline class="cls-5" points="32.67 73.33 19.01 81.22 19.05 96.91 32.71 89.03 32.67 73.33"/><path class="cls-6" d="M33.37,71.3l-.71.4L19,79.59,18.3,80a1.55,1.55,0,0,0-.71,1.22l.05,17.32a1.57,1.57,0,0,1,.71-1.22l.7-.41,0-15.69,13.66-7.89,0,15.7-.05-16.51a1.55,1.55,0,0,1,.71-1.22"/><polyline class="cls-5" points="47.74 64.63 34.08 72.52 34.13 88.21 47.79 80.32 47.74 64.63"/><path class="cls-6" d="M48.45,62.59l-.71.41L34.08,70.89l-.71.41a1.55,1.55,0,0,0-.71,1.22L32.71,89l.71-.41.71-.41-.05-15.7,13.66-7.88,0,15.69,0-16.5a1.59,1.59,0,0,1,.71-1.23"/><polyline class="cls-5" points="62.81 55.93 49.16 63.81 49.2 79.5 62.86 71.62 62.81 55.93"/><path class="cls-6" d="M63.52,53.89l-.71.41L49.15,62.18l-.7.41a1.59,1.59,0,0,0-.71,1.23l0,16.5.7-.41.71-.41,0-15.69,13.66-7.88,0,15.69,0-16.51a1.57,1.57,0,0,1,.71-1.22"/><polyline class="cls-5" points="77.89 47.22 64.24 55.1 64.28 70.8 77.93 62.92 77.89 47.22"/><path class="cls-6" d="M78.6,45.18l-.72.42L64.23,53.48l-.71.41a1.57,1.57,0,0,0-.71,1.22l0,16.51.71-.41.71-.41,0-15.7,13.65-7.88,0,15.7.72-.42c.39-.22.71,0,.71.41l0-17.32c0-.45-.32-.63-.71-.41"/><polyline class="cls-5" points="32.72 90.66 19.06 98.54 19.1 114.23 32.76 106.35 32.72 90.66"/><path class="cls-6" d="M19.1,114.23l0-15.69,13.66-7.89,0,15.7L19.1,114.23M33.42,88.62l-.71.41L19.05,96.91l-.7.41a1.57,1.57,0,0,0-.71,1.22l.05,17.32c0,.46.32.64.71.42l15.07-8.71c-.39.23-.71.05-.71-.41l0-17.32a1.55,1.55,0,0,1,.71-1.22"/><polyline class="cls-5" points="47.79 81.95 34.13 89.84 34.18 105.53 47.84 97.64 47.79 81.95"/><path class="cls-6" d="M34.18,105.53l0-15.69L47.79,82l0,15.69-13.65,7.89M48.49,79.91l-.7.41L34.13,88.21l-.71.41a1.55,1.55,0,0,0-.71,1.22l0,17.32c0,.46.32.64.71.41l15.08-8.7c-.39.23-.71,0-.71-.41l-.05-17.32a1.57,1.57,0,0,1,.7-1.23"/><polyline class="cls-5" points="62.86 73.25 49.21 81.13 49.25 96.83 62.91 88.94 62.86 73.25"/><path class="cls-6" d="M49.25,96.83l0-15.7,13.65-7.88,0,15.69L49.25,96.83M63.57,71.21l-.71.41L49.2,79.5l-.71.41a1.57,1.57,0,0,0-.7,1.23l.05,17.32c0,.45.32.64.71.41l15.07-8.7c-.39.22-.71,0-.71-.41l0-17.33a1.58,1.58,0,0,1,.71-1.22"/><polyline class="cls-5" points="77.94 64.55 64.29 72.43 64.33 88.12 77.98 80.24 77.94 64.55"/><path class="cls-6" d="M64.33,88.12l0-15.69,13.65-7.88,0,15.69L64.33,88.12M78.65,62.5l-.72.42L64.28,70.8l-.71.41a1.58,1.58,0,0,0-.71,1.22l0,17.33c0,.45.32.63.71.41L78.7,81.46a1.55,1.55,0,0,0,.71-1.23l0-17.32c0-.45-.32-.63-.71-.41"/></g></g><polygon class="cls-1" points="126.4 109.46 126.4 36.49 63.2 0 0 36.49 0 109.46 63.2 145.95 126.4 109.46"/></g></g></g></g></svg>