<svg xmlns="http://www.w3.org/2000/svg" xmlns:xlink="http://www.w3.org/1999/xlink" viewBox="0 0 63.19 107.98"><defs><style>.cls-1{fill:none;}.cls-2{fill:#557cb2;stroke:#fff;stroke-linejoin:round;stroke-width:2px;}.cls-3{isolation:isolate;}.cls-4{clip-path:url(#clip-path);}.cls-5{fill:#fff;}</style><clipPath id="clip-path"><polygon class="cls-1" points="41.25 54.2 41.31 34.28 55.49 42.47 55.44 62.39 41.25 54.2"/></clipPath></defs><title>editor-panel</title><g id="Layer_2" data-name="Layer 2"><g id="Layer_3" data-name="Layer 3"><polygon class="cls-2" points="62.18 36.32 1 1 1 71.64 1.01 71.66 62.19 106.98 62.19 36.33 62.18 36.32"/><g id="Page-1"><g class="cls-3"><g class="cls-4"><path class="cls-5" d="M46.16,49.41l-2.52-4.35,1.26-.73,2.52,4.36-1.26.72m5.67,5.45L45.54,44l1.27-.71,6.28,10.88-1.26.72M50,47.25,47.44,42.9l1.26-.72,2.52,4.35L50,47.25M48.4,39.86l-5.93-.4V44a16.35,16.35,0,0,0,1.17,5.7v-.21L49,52.6v1.81l-4.36-2.52a18.18,18.18,0,0,0,3.74,5c3.37.83,5.92-1.73,5.94-6V46.29l-5.9-6.43"/><path class="cls-5" d="M43.63,49.72A16.35,16.35,0,0,1,42.46,44V39.46l5.93.4,5.9,6.43v4.56c0,4.31-2.57,6.87-5.94,6a18.18,18.18,0,0,1-3.74-5,21,21,0,0,1-1-2.17M48.4,38.37l-7.1-.47,0,5.44c0,5,3,11.47,7.06,15,4.07,1.21,7.11-1.75,7.13-6.77V46.09L48.4,38.37"/></g></g></g></g></g></svg>