<svg xmlns="http://www.w3.org/2000/svg" xmlns:xlink="http://www.w3.org/1999/xlink" viewBox="0 0 47 98.19"><defs><style>.cls-1{fill:none;}.cls-2{isolation:isolate;}.cls-3{clip-path:url(#clip-path);}.cls-4{fill:#fff;}</style><clipPath id="clip-path" transform="translate(-0.01 -0.86)"><polygon class="cls-1" points="0 72.88 0.21 0 47.02 27.03 46.82 99.91 0 72.88"/></clipPath></defs><title>editor-ms</title><g id="Layer_2" data-name="Layer 2"><g id="Layer_3" data-name="Layer 3"><g class="cls-2"><g class="cls-3"><path class="cls-4" d="M27.89,65.74c-.23-.13-.41-.13-.52,0a1.6,1.6,0,0,0-.18.87V68a3.35,3.35,0,0,0,.16,1.15,1.27,1.27,0,0,0,.54.66c.24.14.42.13.53,0a1.8,1.8,0,0,0,.17-.91V67.53a3.09,3.09,0,0,0-.16-1.15,1.27,1.27,0,0,0-.54-.64M12.78,44.29l-.41,1.17.82.47-.41-1.64M22,43.34,21.34,43v1l.58.34a.47.47,0,0,0,.37.08c.09,0,.14-.13.14-.28a.86.86,0,0,0-.47-.79m-.14-1.59-.47-.28v1l.5.29c.35.19.52.13.52-.18a.74.74,0,0,0-.13-.44,1.32,1.32,0,0,0-.41-.35M13.19,22.23l-.41,1.17.82.48-.41-1.65m17,9.46-.55-.31v1.13l.54.31a.42.42,0,0,0,.4.07c.09,0,.14-.15.14-.33a1,1,0,0,0-.13-.49,1,1,0,0,0-.4-.38m5,2.92-.62-.36v1.18l.6.35a.5.5,0,0,0,.41.09c.09,0,.14-.16.14-.34a1.05,1.05,0,0,0-.14-.53,1,1,0,0,0-.39-.39M25,69.05a1.1,1.1,0,0,1-.4-.4,1,1,0,0,1-.16-.54c0-.17.06-.3.17-.34a.4.4,0,0,1,.4,0,1.24,1.24,0,0,1,.41.41,1,1,0,0,1,.15.54c0,.18-.05.3-.16.34a.4.4,0,0,1-.41-.06m-5.24-6.84-1.15,3.11-.7-.41-1.13-4.43.75.44.73,3.26L19,61.77l.75.44m.94.3v-.94l2.1.35.1.06v5.81l-1-.58V62.77l-1.2-.26m7.23,8.26a3.05,3.05,0,0,1-1.26-1.35,4.58,4.58,0,0,1-.45-2V66.31a2.14,2.14,0,0,1,.44-1.6c.3-.25.71-.21,1.26.11a3.13,3.13,0,0,1,1.27,1.35,4.84,4.84,0,0,1,.44,2v1.06a2.14,2.14,0,0,1-.44,1.59c-.28.25-.71.22-1.26-.1M9.54,44.67c.13.07.23.08.31,0a.43.43,0,0,0,.12-.36V41.71l.67.39v2.62a.9.9,0,0,1-.14.55.45.45,0,0,1-.39.2,1.2,1.2,0,0,1-.57-.18,2.31,2.31,0,0,1-.81-.77,2,2,0,0,1-.29-1l.68.39a1,1,0,0,0,.11.47.79.79,0,0,0,.31.32m1.7,1.55,1.23-3.07.63.37L14.31,48l-.71-.41-.23-.91L12.19,46l-.23.64-.72-.41m5.73,2V45.75l.67.39v3.77L17,49.52l-1.31-3.24v2.48L15,48.37V44.6l.68.39L17,48.24m1.6,2.21V46.68L20.77,48v.63l-1.52-.88v.9l1.3.75V50l-1.3-.76v1l1.53.88v.62l-2.2-1.27m9.34,4.36.85-2.25.89.51v3.77L29,56.45v-1L29,53.68,28.14,56l-.46-.27-.88-3.32.07,1.82v1l-.67-.39V51.08l.88.51.83,3.22m2.7,2.6V53.63l.68.4V57.8l-.68-.39M32,55.06v-.63L34.68,56v.63l-1-.58v3.14L33,58.78V55.64l-1-.58m4.08,3.25,1.32.77V57.55l.67.39v3.77l-.67-.39V59.7l-1.32-.76v1.62l-.68-.39,0-3.77.67.39v1.52M24.2,53.14a.55.55,0,0,0,.37.1c.09,0,.14-.1.14-.23a.66.66,0,0,0-.14-.42,3.33,3.33,0,0,0-.48-.53c-.23-.22-.42-.42-.56-.58A2,2,0,0,1,23,50.23a.66.66,0,0,1,.15-.47.53.53,0,0,1,.43-.12,1.52,1.52,0,0,1,.63.23,2.31,2.31,0,0,1,.62.51,2.23,2.23,0,0,1,.43.65,1.8,1.8,0,0,1,.15.7l-.68-.39a.82.82,0,0,0-.14-.48,1,1,0,0,0-.4-.38.48.48,0,0,0-.38-.1.22.22,0,0,0-.14.24.73.73,0,0,0,.16.4,4.13,4.13,0,0,0,.48.51,4.61,4.61,0,0,1,.84,1,1.81,1.81,0,0,1,.26.89c0,.33-.11.52-.33.58a1.18,1.18,0,0,1-.86-.22,2.87,2.87,0,0,1-.69-.56,2.47,2.47,0,0,1-.48-.71,1.79,1.79,0,0,1-.16-.73l.68.39a1.12,1.12,0,0,0,.65,1m-3.54-8.92V40.46l1.15.66a3.12,3.12,0,0,1,.91.78,1.67,1.67,0,0,1,.3,1,.62.62,0,0,1-.12.42.39.39,0,0,1-.35.11,1.68,1.68,0,0,1,.4.52,1.55,1.55,0,0,1,.14.62c0,.37-.1.58-.3.65a1.13,1.13,0,0,1-.86-.21l-1.28-.74m5.73-.46-1.08,1.78V46.9l-.68-.39V45.14l-1.07-3,.74.43L25,44.64l.69-1.31.74.43M8.1,26.68a1.45,1.45,0,0,1-.65-1.13c0-.42.3-.58.65-.38L38.55,42.75a1.44,1.44,0,0,1,.65,1.13c0,.41-.29.58-.66.37L8.1,26.68m1.13-5,.85-2.24L11,20v3.76l-.68-.39v-1l.08-1.73-.9,2.29L9,22.62l-.88-3.31.07,1.81v1l-.68-.39V18l.88.51.84,3.22m2.42,2.43,1.23-3.06.63.37,1.22,4.47L14,25.51l-.23-.9-1.18-.68-.23.64-.72-.42m5.72,2V23.69l.67.39v3.76l-.67-.38-1.31-3.24V26.7l-.67-.39V22.54l.68.39,1.3,3.24m2.84,2.35c.37.22.57.11.58-.35v-2.5l.67.39v2.48c0,.41-.12.67-.35.78a1,1,0,0,1-.92-.17,2.65,2.65,0,0,1-.91-.88A2.3,2.3,0,0,1,19,27.11V24.6l.67.39v2.49a1.25,1.25,0,0,0,.15.63,1.13,1.13,0,0,0,.43.41m8.7,5.6V30.35l1.22.71a2.59,2.59,0,0,1,.89.81,1.86,1.86,0,0,1,.32,1,.94.94,0,0,1-.15.56.5.5,0,0,1-.44.15l.7,2v0l-.73-.42-.61-1.73-.53-.31v1.38l-.67-.39M32.24,36V32.28l.68.39v3.76L32.24,36m1.65,1V33.23l1.27.74a2.61,2.61,0,0,1,.66.53,2.49,2.49,0,0,1,.43.69,2.11,2.11,0,0,1,.14.74c0,.36-.11.59-.32.68a1.16,1.16,0,0,1-.92-.21l-.59-.34v1.32L33.89,37M37,35.66V35l2.68,1.54v.63l-1-.58v3.13L38,39.37V36.23l-1-.57M23.55,30.47a.53.53,0,0,0,.38.1c.09,0,.13-.1.13-.23a.72.72,0,0,0-.13-.42,3.83,3.83,0,0,0-.48-.53c-.24-.22-.42-.42-.56-.57a2.08,2.08,0,0,1-.56-1.27.58.58,0,0,1,.16-.45.46.46,0,0,1,.43-.13,1.81,1.81,0,0,1,.63.23,2.52,2.52,0,0,1,.62.51,2.34,2.34,0,0,1,.43.66,1.75,1.75,0,0,1,.15.69l-.68-.4a.92.92,0,0,0-.14-.47,1.13,1.13,0,0,0-.4-.38.61.61,0,0,0-.39-.11c-.09,0-.13.12-.13.25a.69.69,0,0,0,.16.4,5,5,0,0,0,.47.5,4.38,4.38,0,0,1,.84,1,1.66,1.66,0,0,1,.26.88c0,.32-.11.52-.32.59a1.26,1.26,0,0,1-.87-.23,2.83,2.83,0,0,1-.69-.56,2.65,2.65,0,0,1-.47-.71,1.61,1.61,0,0,1-.16-.73l.67.39a1.14,1.14,0,0,0,.65,1M26.8,33a2.48,2.48,0,0,1-1-1.06,3.17,3.17,0,0,1-.36-1.55v-.22a1.92,1.92,0,0,1,.17-.87.63.63,0,0,1,.48-.36,1.22,1.22,0,0,1,.72.2,2.71,2.71,0,0,1,.91.87,2.75,2.75,0,0,1,.4,1.22l-.68-.39a1.25,1.25,0,0,0-.63-1.07c-.23-.13-.4-.13-.51,0a1.16,1.16,0,0,0-.17.77v.28a2.53,2.53,0,0,0,.16,1,1.23,1.23,0,0,0,.51.57c.21.12.37.16.47.11s.16-.19.17-.41l.68.39c0,.39-.16.63-.39.73A1.08,1.08,0,0,1,26.8,33m13.7-6.31L3.14,5.07,3,71.2,43.88,94.83l.18-62L40.5,26.64" transform="translate(-0.01 -0.86)"/><path class="cls-4" d="M2,72.88a2.16,2.16,0,0,1-1-1.7l.2-68.36c0-.63.44-.88,1-.57L40.91,24.62a2,2,0,0,1,.69.73l4.14,7.17a2,2,0,0,1,.28,1l-.18,63.6c0,.63-.44.88-1,.57L2,72.88m39-49.38L2.17,1.13C1.08.5.2,1,.2,2.25L0,70.62A4.26,4.26,0,0,0,2,74l42.9,24.77c1.08.62,2,.12,2-1.13L47,34.05a4.06,4.06,0,0,0-.57-1.92L42.3,25a4.06,4.06,0,0,0-1.38-1.46" transform="translate(-0.01 -0.86)"/><path d="M3,71.2,3.14,5.07,40.5,26.64l3.56,6.18-.18,62L3,71.2m38-46.58L2.16,2.25c-.54-.31-1-.06-1,.57L1,71.18a2.16,2.16,0,0,0,1,1.7l42.9,24.77c.54.31,1,.06,1-.57L46,33.48a2,2,0,0,0-.28-1L41.6,25.35a2,2,0,0,0-.69-.73" transform="translate(-0.01 -0.86)"/><polyline points="10.95 19.12 10.07 18.61 9.22 20.86 8.38 17.64 7.5 17.13 7.49 20.9 8.17 21.29 8.17 20.26 8.11 18.45 8.99 21.76 9.45 22.02 10.34 19.73 10.27 21.47 10.26 22.5 10.94 22.89 10.95 19.12"/><path d="M12.78,23.4l.41-1.17.41,1.65-.82-.48m.73-1.94-.63-.37-1.23,3.06.72.42.23-.64,1.18.68.23.9.72.42-1.22-4.47" transform="translate(-0.01 -0.86)"/><polyline points="18.05 23.22 17.37 22.83 17.37 25.31 16.06 22.07 15.38 21.68 15.37 25.45 16.05 25.84 16.05 23.36 17.36 26.6 18.03 26.98 18.05 23.22"/><path d="M21.47,26.06l-.67-.39v2.5c0,.46-.21.57-.58.35a1.13,1.13,0,0,1-.43-.41,1.25,1.25,0,0,1-.15-.63V25L19,24.6v2.51a2.3,2.3,0,0,0,.34,1.16,2.65,2.65,0,0,0,.91.88,1,1,0,0,0,.92.17c.23-.11.34-.37.35-.78V26.06" transform="translate(-0.01 -0.86)"/><path d="M23.55,27.2a1.81,1.81,0,0,0-.63-.23.46.46,0,0,0-.43.13.58.58,0,0,0-.16.45,2.08,2.08,0,0,0,.56,1.27c.14.15.32.35.56.57a3.83,3.83,0,0,1,.48.53.72.72,0,0,1,.13.42c0,.13,0,.21-.13.23a.53.53,0,0,1-.38-.1,1.14,1.14,0,0,1-.65-1l-.67-.39a1.61,1.61,0,0,0,.16.73,2.65,2.65,0,0,0,.47.71,2.83,2.83,0,0,0,.69.56,1.26,1.26,0,0,0,.87.23c.21-.07.32-.27.32-.59a1.66,1.66,0,0,0-.26-.88,4.38,4.38,0,0,0-.84-1,5,5,0,0,1-.47-.5A.69.69,0,0,1,23,28c0-.13,0-.22.13-.25a.61.61,0,0,1,.39.11,1.13,1.13,0,0,1,.4.38.92.92,0,0,1,.14.47l.68.4a1.75,1.75,0,0,0-.15-.69,2.34,2.34,0,0,0-.43-.66,2.52,2.52,0,0,0-.62-.51" transform="translate(-0.01 -0.86)"/><path d="M26.82,29.09a1.22,1.22,0,0,0-.72-.2.63.63,0,0,0-.48.36,1.92,1.92,0,0,0-.17.87v.22a3.17,3.17,0,0,0,.36,1.55,2.48,2.48,0,0,0,1,1.06,1.08,1.08,0,0,0,.93.19c.23-.1.36-.34.39-.73L27.44,32c0,.22-.07.36-.17.41s-.26,0-.47-.11a1.23,1.23,0,0,1-.51-.57,2.53,2.53,0,0,1-.16-1v-.28a1.16,1.16,0,0,1,.17-.77c.11-.12.28-.12.51,0a1.25,1.25,0,0,1,.63,1.07l.68.39a2.75,2.75,0,0,0-.4-1.22,2.71,2.71,0,0,0-.91-.87" transform="translate(-0.01 -0.86)"/><path d="M29.59,32.51V31.38l.55.31a1,1,0,0,1,.4.38,1,1,0,0,1,.13.49c0,.18-.05.29-.14.33a.42.42,0,0,1-.4-.07l-.54-.31m.55-1.45-1.22-.71v3.77l.67.39V33.13l.53.31.61,1.73.73.42v0l-.7-2a.5.5,0,0,0,.44-.15.94.94,0,0,0,.15-.56,1.86,1.86,0,0,0-.32-1,2.59,2.59,0,0,0-.89-.81" transform="translate(-0.01 -0.86)"/><polyline points="32.92 31.81 32.24 31.42 32.23 35.18 32.91 35.57 32.92 31.81"/><path d="M34.57,35.43V34.25l.62.36a1,1,0,0,1,.39.39,1.05,1.05,0,0,1,.14.53c0,.18,0,.3-.14.34a.5.5,0,0,1-.41-.09l-.6-.35m.6-1.46-1.27-.74V37l.67.39V36.06l.59.34a1.16,1.16,0,0,0,.92.21c.21-.09.32-.32.32-.68a2.11,2.11,0,0,0-.14-.74,2.49,2.49,0,0,0-.43-.69,2.61,2.61,0,0,0-.66-.53" transform="translate(-0.01 -0.86)"/><polyline points="39.68 35.71 37.01 34.17 37.01 34.8 38 35.37 37.99 38.51 38.66 38.89 38.67 35.76 39.68 36.34 39.68 35.71"/><path d="M21.34,44V43l.62.36a.86.86,0,0,1,.47.79c0,.15-.05.25-.14.28a.47.47,0,0,1-.37-.08L21.34,44m0-1.56v-1l.47.28a1.32,1.32,0,0,1,.41.35.74.74,0,0,1,.13.44c0,.31-.17.37-.52.18l-.5-.29m.48-1.31-1.15-.66v3.76l1.28.74a1.13,1.13,0,0,0,.86.21c.2-.07.3-.28.3-.65A1.55,1.55,0,0,0,23,43.9a1.68,1.68,0,0,0-.4-.52.39.39,0,0,0,.35-.11.62.62,0,0,0,.12-.42,1.67,1.67,0,0,0-.3-1,3.12,3.12,0,0,0-.91-.78" transform="translate(-0.01 -0.86)"/><polyline points="26.39 42.9 25.64 42.47 24.96 43.77 24.29 41.69 23.54 41.26 24.62 44.28 24.61 45.65 25.3 46.04 25.3 44.68 26.39 42.9"/><path d="M10.65,42.1,10,41.71v2.62a.43.43,0,0,1-.12.36c-.08.06-.18.05-.31,0a.79.79,0,0,1-.31-.32,1,1,0,0,1-.11-.47l-.68-.39a2,2,0,0,0,.29,1,2.31,2.31,0,0,0,.81.77,1.2,1.2,0,0,0,.57.18.45.45,0,0,0,.39-.2.9.9,0,0,0,.14-.55V42.1" transform="translate(-0.01 -0.86)"/><path d="M12.37,45.46l.41-1.17.41,1.64-.82-.47m.73-1.94-.63-.37-1.23,3.07.72.41.23-.64,1.18.68.23.91.71.41L13.1,43.52" transform="translate(-0.01 -0.86)"/><polyline points="17.64 45.28 16.97 44.89 16.96 47.38 15.64 44.13 14.97 43.74 14.96 47.51 15.63 47.9 15.64 45.42 16.95 48.66 17.63 49.05 17.64 45.28"/><polyline points="20.77 47.09 18.57 45.82 18.57 49.59 20.76 50.86 20.76 50.24 19.24 49.35 19.24 48.34 20.54 49.09 20.54 48.49 19.24 47.73 19.24 46.84 20.76 47.72 20.77 47.09"/><path d="M24.19,49.87a1.52,1.52,0,0,0-.63-.23.53.53,0,0,0-.43.12.66.66,0,0,0-.15.47,2,2,0,0,0,.55,1.25c.14.16.33.36.56.58a3.33,3.33,0,0,1,.48.53.66.66,0,0,1,.14.42c0,.13-.05.21-.14.23a.55.55,0,0,1-.37-.1,1.12,1.12,0,0,1-.65-1l-.68-.39a1.79,1.79,0,0,0,.16.73,2.47,2.47,0,0,0,.48.71,2.87,2.87,0,0,0,.69.56,1.18,1.18,0,0,0,.86.22c.22-.06.33-.25.33-.58a1.81,1.81,0,0,0-.26-.89,4.61,4.61,0,0,0-.84-1,4.13,4.13,0,0,1-.48-.51.73.73,0,0,1-.16-.4.22.22,0,0,1,.14-.24.48.48,0,0,1,.38.1,1,1,0,0,1,.4.38.82.82,0,0,1,.14.48l.68.39a1.8,1.8,0,0,0-.15-.7,2.23,2.23,0,0,0-.43-.65,2.31,2.31,0,0,0-.62-.51" transform="translate(-0.01 -0.86)"/><polyline points="29.64 52.21 28.75 51.7 27.91 53.95 27.07 50.73 26.19 50.22 26.18 53.99 26.86 54.38 26.86 53.35 26.8 51.53 27.67 54.85 28.14 55.12 29.02 52.82 28.95 54.55 28.95 55.59 29.63 55.98 29.64 52.21"/><polyline points="31.29 53.16 30.62 52.77 30.61 56.54 31.28 56.94 31.29 53.16"/><polyline points="34.67 55.11 32 53.57 31.99 54.2 32.99 54.77 32.98 57.91 33.66 58.31 33.67 55.17 34.67 55.74 34.67 55.11"/><polyline points="38.07 57.08 37.4 56.69 37.39 58.21 36.07 57.45 36.08 55.92 35.4 55.53 35.39 59.3 36.06 59.7 36.07 58.08 37.39 58.84 37.39 60.46 38.06 60.85 38.07 57.08"/><polyline points="19.71 61.34 18.96 60.91 18.21 63.31 17.48 60.05 16.73 59.62 17.86 64.05 18.56 64.46 19.71 61.34"/><polyline points="22.86 61.12 22.75 61.06 20.66 60.71 20.65 61.64 21.86 61.91 21.84 66.35 22.84 66.93 22.86 61.12"/><path d="M25,67.82a.4.4,0,0,0-.4,0c-.11,0-.17.17-.17.34a1,1,0,0,0,.16.54,1.1,1.1,0,0,0,.4.4.4.4,0,0,0,.41.06c.11,0,.16-.16.16-.34a1,1,0,0,0-.15-.54,1.24,1.24,0,0,0-.41-.41" transform="translate(-0.01 -0.86)"/><path d="M27.89,69.85a1.27,1.27,0,0,1-.54-.66A3.35,3.35,0,0,1,27.19,68V66.63a1.6,1.6,0,0,1,.18-.87c.11-.15.29-.15.52,0a1.27,1.27,0,0,1,.54.64,3.09,3.09,0,0,1,.16,1.15v1.38a1.8,1.8,0,0,1-.17.91c-.11.16-.29.17-.53,0m0-5c-.55-.32-1-.36-1.26-.11a2.14,2.14,0,0,0-.44,1.6v1.06a4.58,4.58,0,0,0,.45,2,3.05,3.05,0,0,0,1.26,1.35c.55.32,1,.35,1.26.1a2.14,2.14,0,0,0,.44-1.59V68.22a4.84,4.84,0,0,0-.44-2,3.13,3.13,0,0,0-1.27-1.35" transform="translate(-0.01 -0.86)"/><path d="M38.55,42.75,8.1,25.17c-.35-.2-.65,0-.65.38a1.45,1.45,0,0,0,.65,1.13L38.54,44.25c.37.21.66,0,.66-.37a1.44,1.44,0,0,0-.65-1.13" transform="translate(-0.01 -0.86)"/></g></g></g></g></svg>