<svg xmlns="http://www.w3.org/2000/svg" xmlns:xlink="http://www.w3.org/1999/xlink" viewBox="0 0 15.83 22.75"><defs><style>.cls-1{fill:none;}.cls-2{isolation:isolate;}.cls-3{clip-path:url(#clip-path);}.cls-4{fill:#fff;}</style><clipPath id="clip-path" transform="translate(-0.02 -4.29)"><polygon class="cls-1" points="0.06 31.16 0 9.14 15.84 0 15.9 22.01 0.06 31.16"/></clipPath></defs><title>Page-1 (2)</title><g id="Layer_2" data-name="Layer 2"><g id="Layer_3" data-name="Layer 3"><g id="Page-1"><g class="cls-2"><g class="cls-3"><path class="cls-4" d="M5.38,22l-2,1.1.06-2.36,6-10.06,2,1.27L5.38,22m6.68-11-2-1.27,1-1.63a1,1,0,0,1,.36-.38.35.35,0,0,1,.38,0L13,8.42c.2.14.19.51,0,.87L12.06,11m-4-4.83L1.46,13l-.12,5.11C1.22,23,3.91,26,7.6,25.25A21.45,21.45,0,0,0,14.39,11.1L14.52,6l-6.45.14" transform="translate(-0.02 -4.29)"/><path class="cls-4" d="M7.6,25.25C3.91,26,1.22,23,1.34,18.15L1.46,13,8.07,6.13,14.52,6l-.13,5.11A21.45,21.45,0,0,1,7.6,25.25M8.12,4.46.18,12.76,0,18.86c-.14,5.64,3.07,9.12,7.53,8,4.53-3.71,8-10.79,8.14-16.43l.15-6.11-7.73.17" transform="translate(-0.02 -4.29)"/></g></g></g></g></g></svg>