<svg xmlns="http://www.w3.org/2000/svg" xmlns:xlink="http://www.w3.org/1999/xlink" viewBox="0 0 12.78 18.6"><defs><style>.cls-1{fill:none;}.cls-2{isolation:isolate;}.cls-3{clip-path:url(#clip-path);}.cls-4{fill:#fff;}</style><clipPath id="clip-path" transform="translate(-0.03 -3.26)"><polygon class="cls-1" points="0 17.93 0.05 0 12.82 7.37 12.77 25.3 0 17.93"/></clipPath></defs><title>Page-1 (3)</title><g id="Layer_2" data-name="Layer 2"><g id="Layer_3" data-name="Layer 3"><g id="Page-1"><g class="cls-2"><g class="cls-3"><path class="cls-4" d="M10.82,20.8l-.08.07.08-.07m.06-.06v0h0M12.1,19h0m.06-.14,0,.06,0-.06m.06-.15,0,.07,0-.07m.08-.2-.05.14.05-.14m0-.15,0,.09,0-.09m.06-.16a.42.42,0,0,0,0,.1.42.42,0,0,1,0-.1m.06-.2c0,.05,0,.1-.05.15s0-.1.05-.15m0-.16c0,.05,0,.09,0,.14s0-.09,0-.14m0-.17,0,.12,0-.12m0-.21c0,.06,0,.11,0,.17s0-.11,0-.17m0-.17,0,.17,0-.17m0-.17a.59.59,0,0,1,0,.13.59.59,0,0,0,0-.13m0-.2a.77.77,0,0,1,0,.15.77.77,0,0,0,0-.15m0-.21c0,.06,0,.12,0,.18s0-.12,0-.18m0-.18c0,.05,0,.1,0,.15s0-.1,0-.15m0-.19c0,.05,0,.1,0,.14s0-.09,0-.14m0-.23c0,.06,0,.12,0,.18s0-.12,0-.18m0-.18a.86.86,0,0,0,0,.16.86.86,0,0,1,0-.16m0-.2v0m0-.25a1.15,1.15,0,0,1,0,.19,1.15,1.15,0,0,0,0-.19M6.06,9.19c-1-.57-1.78-.12-1.78,1a3.9,3.9,0,0,0,1.77,3.06c1,.56,1.78.11,1.78-1A3.89,3.89,0,0,0,6.06,9.19M0,3.26V8.15c0,4.53,2.69,10.32,6.35,13.47a4.52,4.52,0,0,0,4.35-.74,4.57,4.57,0,0,1-4.35.74C2.72,18.47,0,12.68,0,8.15V3.26M6.43,5,1.1,4.67V8.76a17.32,17.32,0,0,0,5.3,11.59,3.84,3.84,0,0,0,3.74-.92L7.75,15.31a2.67,2.67,0,0,1-1.7-.41A7,7,0,0,1,2.86,9.38c0-2,1.44-2.84,3.21-1.82a7,7,0,0,1,3.18,5.51,2.6,2.6,0,0,1-.5,1.67l2.14,3.7a7.06,7.06,0,0,0,.84-3.53v-4.1L6.43,5" transform="translate(-0.03 -3.26)"/><path class="cls-4" d="M6.39,20.35A17.32,17.32,0,0,1,1.09,8.76V4.67L6.43,5l5.31,5.79v4.1a7.06,7.06,0,0,1-.84,3.53,4.48,4.48,0,0,1-.76,1,3.84,3.84,0,0,1-3.74.92M6.44,3.69,0,3.26V8.15c0,4.53,2.69,10.32,6.35,13.47a4.57,4.57,0,0,0,4.35-.74h0l.08-.07,0,0v0a5.08,5.08,0,0,0,1.21-1.69h0a.2.2,0,0,1,0-.08l0-.06,0-.08,0-.07,0-.06.05-.14,0-.06,0-.09,0-.06a.42.42,0,0,1,0-.1v0c0-.05,0-.1.05-.15v0c0-.05,0-.09,0-.14v-.05l0-.12v0c0-.06,0-.11,0-.17h0l0-.17v0a.59.59,0,0,0,0-.13v-.05a.77.77,0,0,0,0-.15v0c0-.06,0-.12,0-.18v0s0-.1,0-.15v-.05s0-.09,0-.14v-.05c0-.06,0-.12,0-.18v0a.86.86,0,0,1,0-.16v-.26a1.15,1.15,0,0,0,0-.19V10.63L6.44,3.69" transform="translate(-0.03 -3.26)"/></g></g></g></g></g></svg>