<svg xmlns="http://www.w3.org/2000/svg" xmlns:xlink="http://www.w3.org/1999/xlink" viewBox="0 0 14.2 20.67"><defs><style>.cls-1{fill:none;}.cls-2{isolation:isolate;}.cls-3{clip-path:url(#clip-path);}.cls-4{fill:#fff;}</style><clipPath id="clip-path" transform="translate(-0.03 -3.62)"><polygon class="cls-1" points="0 19.93 0.06 0 14.24 8.19 14.19 28.12 0 19.93"/></clipPath></defs><title>Page-1</title><g id="Layer_2" data-name="Layer 2"><g id="Layer_3" data-name="Layer 3"><g id="Page-1"><g class="cls-2"><g class="cls-3"><path class="cls-4" d="M4.91,15.14,2.39,10.78l1.26-.72,2.52,4.35-1.26.73m5.67,5.45L4.29,9.7,5.56,9l6.28,10.89-1.26.72M8.7,13,6.19,8.62,7.45,7.9,10,12.25,8.7,13M7.15,5.58,1.22,5.19V9.74a16.35,16.35,0,0,0,1.17,5.7v-.21l5.35,3.09v1.81L3.36,17.61a17.89,17.89,0,0,0,3.74,5c3.37.83,5.92-1.73,5.94-6V12L7.15,5.58" transform="translate(-0.03 -3.62)"/><path class="cls-4" d="M2.38,15.44a16.35,16.35,0,0,1-1.17-5.7V5.19l5.93.39L13.05,12v4.56c0,4.31-2.57,6.87-5.94,6a17.89,17.89,0,0,1-3.74-5,20,20,0,0,1-1-2.17M7.15,4.1.05,3.62,0,9.06c0,5,3,11.48,7.06,15,4.07,1.21,7.11-1.74,7.13-6.77V11.81L7.15,4.1" transform="translate(-0.03 -3.62)"/></g></g></g></g></g></svg>