<svg xmlns="http://www.w3.org/2000/svg" xmlns:xlink="http://www.w3.org/1999/xlink" viewBox="0 0 47.01 95.79"><defs><style>.cls-1{fill:none;}.cls-2{isolation:isolate;}.cls-3{clip-path:url(#clip-path);}.cls-4{fill:#fff;}</style><clipPath id="clip-path" transform="translate(-0.01 -3.26)"><polygon class="cls-1" points="0.21 99.91 0 27.03 46.82 0 47.02 72.88 0.21 99.91"/></clipPath></defs><title>public-ms</title><g id="Layer_2" data-name="Layer 2"><g id="Layer_3" data-name="Layer 3"><g class="cls-2"><g class="cls-3"><path class="cls-4" d="M11.37,57.5,11,59.15l.82-.47-.41-1.18M20.51,46l-.62.36v1l.58-.33a1.13,1.13,0,0,0,.37-.35.78.78,0,0,0,.13-.44c0-.34-.16-.43-.47-.26m-.15-1.41-.47.27v1l.5-.29a.9.9,0,0,0,.51-.76c0-.18,0-.27-.13-.3s-.22,0-.41.12M11.65,35l-.41,1.65.83-.47L11.65,35m16.94-10.1-.54.31v1.13l.55-.32a1,1,0,0,0,.39-.37.92.92,0,0,0,.13-.49c0-.18,0-.29-.12-.35s-.23,0-.41.09M33.65,22l-.62.36v1.18l.6-.34a1.16,1.16,0,0,0,.41-.38.88.88,0,0,0,.14-.5A.41.41,0,0,0,34,22a.44.44,0,0,0-.39.05M8.14,61.61a.83.83,0,0,0,.31-.33,1,1,0,0,0,.11-.5V58.17l.67-.39v2.61a1.84,1.84,0,0,1-.14.72,2.29,2.29,0,0,1-.39.65,2,2,0,0,1-.57.47c-.35.2-.61.26-.81.17S7,62.08,7,61.71l.68-.4c0,.19,0,.3.1.35s.18,0,.32,0m1.7-.41,1.21-4.47.63-.36,1.23,3.06-.71.41L12,59.2l-1.19.69-.22.9-.72.41m5.71-4.58V54.14l.67-.39v3.76l-.67.39-1.32-1.71v2.47l-.67.39,0-3.76.68-.39,1.32,1.72m1.62.35V53.21l2.19-1.27v.63l-1.52.88v.89l1.3-.75v.61l-1.3.75v1l1.53-.88v.62L17.17,57m9.34-6.43.83-3.21.89-.51v3.76l-.68.39v-1l.06-1.81-.88,3.31-.46.27-.89-2.29.07,1.74v1l-.67.39V48.81l.88-.51.85,2.24m2.7-.53V46.25l.68-.39v3.76l-.68.39m1.37-3.92v-.64l2.68-1.54v.63l-1,.58v3.14l-.67.38V45.51l-1,.58m4.09-1.46L36,43.87V42.34l.67-.39v3.76L36,46.1V44.49l-1.31.76v1.61l-.67.39V43.49l.67-.39v1.53M22.79,53.17a1.16,1.16,0,0,0,.38-.34.67.67,0,0,0,.14-.39c0-.15-.06-.23-.15-.26a1.27,1.27,0,0,0-.48,0,3.57,3.57,0,0,1-.56.06.54.54,0,0,1-.56-.62,1.56,1.56,0,0,1,.15-.63,2.24,2.24,0,0,1,.43-.62,2.49,2.49,0,0,1,.63-.49,1.37,1.37,0,0,1,.62-.22.51.51,0,0,1,.43.16.75.75,0,0,1,.16.52l-.68.39a.33.33,0,0,0-.14-.32.47.47,0,0,0-.4.09,1.09,1.09,0,0,0-.39.34.72.72,0,0,0-.14.4.19.19,0,0,0,.17.21,1,1,0,0,0,.47,0,1.28,1.28,0,0,1,.84,0A.6.6,0,0,1,24,52a1.63,1.63,0,0,1-.32,1,2.52,2.52,0,0,1-.87.77,1.66,1.66,0,0,1-.69.25.57.57,0,0,1-.47-.17.79.79,0,0,1-.16-.55l.67-.39c0,.42.22.5.65.26m-3.57-4.81V44.58l1.15-.66a1.3,1.3,0,0,1,.91-.26q.3.09.3.6a1.18,1.18,0,0,1-.12.56,1.64,1.64,0,0,1-.34.5.39.39,0,0,1,.4.07.62.62,0,0,1,.15.45,1.71,1.71,0,0,1-.31,1,2.58,2.58,0,0,1-.85.78l-1.28.74m5.71-7.08-1.07,3v1.37l-.69.39V44.71l-1.08-1.79.74-.43.68,1.32.68-2.1.74-.43M6.6,45.35c-.36.21-.65,0-.65-.38a1.43,1.43,0,0,1,.65-1.13L37,26.27c.36-.21.66-.05.66.37A1.44,1.44,0,0,1,37,27.77L6.6,45.35m1.1-6.24.82-3.21.89-.52v3.77l-.67.39v-1l.07-1.82L7.93,40l-.47.27L6.57,38l.08,1.74v1L6,41.14V37.37l.89-.51.85,2.25m2.42-.37,1.21-4.47.63-.36L13.2,37l-.72.41-.23-.64-1.18.68-.23.91-.72.41m5.72-4.59V31.67l.68-.38v3.76l-.68.39-1.32-1.72V36.2l-.67.39V32.82l.67-.38,1.33,1.71m2.84-.92a1.1,1.1,0,0,0,.57-1v-2.5l.69-.4v2.48A2.16,2.16,0,0,1,19.6,33a2.46,2.46,0,0,1-.92.89,1,1,0,0,1-.91.18c-.23-.1-.34-.36-.35-.76V30.76l.68-.39v2.49c0,.24,0,.4.15.45a.46.46,0,0,0,.43-.08m8.7-4.45V25l1.21-.7a1.17,1.17,0,0,1,.91-.22c.21.07.31.29.31.66a1.71,1.71,0,0,1-.14.72,2.45,2.45,0,0,1-.44.66l.72,1.14v0l-.73.42-.62-1-.53.31v1.38l-.68.39m3.34-1.93,0-3.76.67-.39,0,3.77-.67.38m1.64-1V22.14l1.28-.74a1.39,1.39,0,0,1,.65-.22.48.48,0,0,1,.43.19.92.92,0,0,1,.15.57A1.79,1.79,0,0,1,34.53,23a2.47,2.47,0,0,1-.91.84l-.58.34v1.33l-.68.39M35.47,21v-.62l2.67-1.55v.63l-1,.58v3.14l-.67.39V20.39l-1,.57M22,31.31A1.24,1.24,0,0,0,22.4,31a.68.68,0,0,0,.13-.4c0-.14,0-.23-.13-.26a1.32,1.32,0,0,0-.49,0,2.09,2.09,0,0,1-.56.06.53.53,0,0,1-.56-.61,1.52,1.52,0,0,1,.15-.63,2.24,2.24,0,0,1,.43-.62,2.72,2.72,0,0,1,.63-.5,1.37,1.37,0,0,1,.62-.22.5.5,0,0,1,.43.18.79.79,0,0,1,.16.51l-.68.39c0-.17-.05-.28-.14-.32a.47.47,0,0,0-.4.09,1.17,1.17,0,0,0-.39.34.67.67,0,0,0-.13.39c0,.13.05.2.16.22a1.19,1.19,0,0,0,.47,0,1.4,1.4,0,0,1,.85,0,.63.63,0,0,1,.26.59,1.64,1.64,0,0,1-.32.95,2.5,2.5,0,0,1-.86.78,1.59,1.59,0,0,1-.69.24.54.54,0,0,1-.48-.16.78.78,0,0,1-.17-.54l.68-.4c0,.42.22.5.65.25m3.25-1.26q-.63.36-1,.09A1.38,1.38,0,0,1,23.91,29v-.22a3.73,3.73,0,0,1,.16-1.06,3.43,3.43,0,0,1,.48-.91,2.43,2.43,0,0,1,.72-.64,1.05,1.05,0,0,1,.92-.18c.23.1.36.35.4.75l-.68.39c0-.23-.07-.37-.18-.42s-.25,0-.46.1a1.16,1.16,0,0,0-.5.57,2.23,2.23,0,0,0-.17,1v.29a1.29,1.29,0,0,0,.16.79q.16.2.51,0a1.33,1.33,0,0,0,.47-.44,1.28,1.28,0,0,0,.17-.61l.68-.39a2.5,2.5,0,0,1-.39,1.19,2.8,2.8,0,0,1-.93.88m15-22.9L3,28.71l.19,66.13L44.07,71.21l-.17-62-3.59-2" transform="translate(-0.01 -3.26)"/><path class="cls-4" d="M2.16,97.66c-.54.31-1,.06-1-.57L1,28.73A2.16,2.16,0,0,1,2,27L40.71,4.66a.68.68,0,0,1,.69-.07L45.57,7a.74.74,0,0,1,.29.64L46,71.2a2.16,2.16,0,0,1-1,1.69L2.16,97.66M40.71,3.53,2,25.9A4.27,4.27,0,0,0,0,29.29L.2,97.66c0,1.25.88,1.75,2,1.12L45.07,74a4.32,4.32,0,0,0,2-3.38L46.84,7a1.35,1.35,0,0,0-.58-1.26L42.1,3.39a1.4,1.4,0,0,0-1.39.14" transform="translate(-0.01 -3.26)"/><path d="M3.14,94.84,3,28.71,40.31,7.15l3.59,2,.17,62L3.14,94.84M40.71,4.66,2,27a2.16,2.16,0,0,0-1,1.7l.2,68.36c0,.63.44.88,1,.57l42.9-24.77a2.16,2.16,0,0,0,1-1.69L45.86,7.6A.74.74,0,0,0,45.57,7L41.4,4.59a.68.68,0,0,0-.69.07" transform="translate(-0.01 -3.26)"/><polyline points="9.4 32.12 8.52 32.63 7.69 35.84 6.84 33.6 5.96 34.11 5.97 37.87 6.64 37.48 6.64 36.46 6.57 34.72 7.46 37.02 7.92 36.75 8.8 33.42 8.74 35.25 8.74 36.27 9.42 35.88 9.4 32.12"/><path d="M11.24,36.69,11.65,35l.42,1.18-.83.47M12,33.91l-.63.36-1.21,4.47.72-.41.23-.91,1.18-.68.23.64L13.2,37,12,33.91" transform="translate(-0.01 -3.26)"/><polyline points="16.5 28.02 15.83 28.41 15.84 30.89 14.51 29.18 13.84 29.56 13.85 33.33 14.52 32.94 14.51 30.46 15.83 32.18 16.51 31.79 16.5 28.02"/><path d="M19.93,29.31l-.69.4v2.5a1.1,1.1,0,0,1-.57,1,.46.46,0,0,1-.43.08c-.1-.05-.15-.21-.15-.45V30.37l-.68.39v2.51c0,.4.12.66.35.76a1,1,0,0,0,.91-.18A2.46,2.46,0,0,0,19.6,33a2.16,2.16,0,0,0,.33-1.17V29.31" transform="translate(-0.01 -3.26)"/><path d="M22,28.06a2.72,2.72,0,0,0-.63.5,2.24,2.24,0,0,0-.43.62,1.52,1.52,0,0,0-.15.63.53.53,0,0,0,.56.61,2.09,2.09,0,0,0,.56-.06,1.32,1.32,0,0,1,.49,0c.09,0,.13.12.13.26a.68.68,0,0,1-.13.4,1.24,1.24,0,0,1-.38.33c-.43.25-.65.17-.65-.25l-.68.4a.78.78,0,0,0,.17.54.54.54,0,0,0,.48.16,1.59,1.59,0,0,0,.69-.24,2.5,2.5,0,0,0,.86-.78,1.64,1.64,0,0,0,.32-.95A.63.63,0,0,0,23,29.6a1.4,1.4,0,0,0-.85,0,1.19,1.19,0,0,1-.47,0c-.11,0-.16-.09-.16-.22A.67.67,0,0,1,21.6,29a1.17,1.17,0,0,1,.39-.34.47.47,0,0,1,.4-.09c.09,0,.14.15.14.32l.68-.39a.79.79,0,0,0-.16-.51.5.5,0,0,0-.43-.18,1.37,1.37,0,0,0-.62.22" transform="translate(-0.01 -3.26)"/><path d="M25.27,26.17a2.43,2.43,0,0,0-.72.64,3.43,3.43,0,0,0-.48.91,3.73,3.73,0,0,0-.16,1.06V29a1.38,1.38,0,0,0,.37,1.14q.36.27,1-.09a2.8,2.8,0,0,0,.93-.88A2.5,2.5,0,0,0,26.59,28l-.68.39a1.28,1.28,0,0,1-.17.61,1.33,1.33,0,0,1-.47.44q-.35.2-.51,0a1.29,1.29,0,0,1-.16-.79v-.29a2.23,2.23,0,0,1,.17-1,1.16,1.16,0,0,1,.5-.57c.21-.12.36-.15.46-.1s.16.19.18.42l.68-.39c0-.4-.17-.65-.4-.75a1.05,1.05,0,0,0-.92.18" transform="translate(-0.01 -3.26)"/><path d="M28.05,26.38V25.25l.54-.31c.18-.11.32-.14.41-.09s.12.17.12.35a.92.92,0,0,1-.13.49,1,1,0,0,1-.39.37l-.55.32m.53-2.07-1.21.7v3.77l.68-.39V27l.53-.31.62,1,.73-.42v0l-.72-1.14a2.45,2.45,0,0,0,.44-.66,1.71,1.71,0,0,0,.14-.72c0-.37-.1-.59-.31-.66a1.17,1.17,0,0,0-.91.22" transform="translate(-0.01 -3.26)"/><polyline points="31.37 19.44 30.7 19.83 30.71 23.59 31.38 23.2 31.37 19.44"/><path d="M33,23.55V22.37l.62-.36A.44.44,0,0,1,34,22a.41.41,0,0,1,.14.37.88.88,0,0,1-.14.5,1.16,1.16,0,0,1-.41.38l-.6.34m.6-2.15-1.28.74V25.9l.68-.39V24.18l.58-.34a2.47,2.47,0,0,0,.91-.84,1.79,1.79,0,0,0,.33-1.06.92.92,0,0,0-.15-.57.48.48,0,0,0-.43-.19,1.39,1.39,0,0,0-.65.22" transform="translate(-0.01 -3.26)"/><polyline points="38.14 15.53 35.46 17.08 35.46 17.7 36.45 17.13 36.46 20.27 37.14 19.88 37.13 16.74 38.14 16.16 38.14 15.53"/><path d="M19.9,47.34v-1l.62-.36c.31-.17.47-.08.47.26a.78.78,0,0,1-.13.44,1.13,1.13,0,0,1-.37.35l-.58.33m0-1.56v-1l.47-.27c.19-.1.32-.15.41-.12s.13.12.13.3a.9.9,0,0,1-.51.76l-.5.29m.47-1.86-1.15.66v3.78l1.28-.74a2.58,2.58,0,0,0,.85-.78,1.71,1.71,0,0,0,.31-1,.62.62,0,0,0-.15-.45.39.39,0,0,0-.4-.07,1.64,1.64,0,0,0,.34-.5,1.18,1.18,0,0,0,.12-.56q0-.51-.3-.6a1.3,1.3,0,0,0-.91.26" transform="translate(-0.01 -3.26)"/><polyline points="24.92 38.02 24.18 38.45 23.5 40.54 22.82 39.23 22.08 39.66 23.16 41.45 23.17 42.81 23.86 42.41 23.85 41.05 24.92 38.02"/><path d="M9.23,57.78l-.67.39v2.61a1,1,0,0,1-.11.5.83.83,0,0,1-.31.33c-.14.08-.25.1-.32,0s-.1-.16-.1-.35l-.68.4c0,.37.09.6.29.69s.46,0,.81-.17a2,2,0,0,0,.57-.47,2.29,2.29,0,0,0,.39-.65,1.84,1.84,0,0,0,.14-.72V57.78" transform="translate(-0.01 -3.26)"/><path d="M11,59.15l.41-1.65.41,1.18-.82.47m.72-2.78-.63.36L9.84,61.2l.72-.41.22-.9L12,59.2l.23.64.71-.41-1.23-3.06" transform="translate(-0.01 -3.26)"/><polyline points="16.22 50.48 15.54 50.87 15.55 53.35 14.22 51.63 13.55 52.02 13.56 55.79 14.24 55.4 14.23 52.92 15.55 54.64 16.23 54.25 16.22 50.48"/><polyline points="19.34 48.68 17.15 49.94 17.16 53.71 19.36 52.44 19.36 51.81 17.84 52.69 17.83 51.69 19.13 50.94 19.13 50.33 17.83 51.08 17.83 50.18 19.35 49.31 19.34 48.68"/><path d="M22.77,49.92a2.49,2.49,0,0,0-.63.49,2.24,2.24,0,0,0-.43.62,1.56,1.56,0,0,0-.15.63.54.54,0,0,0,.56.62,3.57,3.57,0,0,0,.56-.06,1.27,1.27,0,0,1,.48,0c.09,0,.15.11.15.26a.67.67,0,0,1-.14.39,1.16,1.16,0,0,1-.38.34c-.43.24-.65.16-.65-.26l-.67.39a.79.79,0,0,0,.16.55.57.57,0,0,0,.47.17,1.66,1.66,0,0,0,.69-.25,2.52,2.52,0,0,0,.87-.77A1.63,1.63,0,0,0,24,52a.6.6,0,0,0-.27-.58,1.28,1.28,0,0,0-.84,0,1,1,0,0,1-.47,0,.19.19,0,0,1-.17-.21.72.72,0,0,1,.14-.4,1.09,1.09,0,0,1,.39-.34.47.47,0,0,1,.4-.09.33.33,0,0,1,.14.32l.68-.39a.75.75,0,0,0-.16-.52.51.51,0,0,0-.43-.16,1.37,1.37,0,0,0-.62.22" transform="translate(-0.01 -3.26)"/><polyline points="28.22 43.55 27.33 44.06 26.5 47.28 25.65 45.03 24.77 45.54 24.78 49.31 25.45 48.92 25.45 47.89 25.38 46.15 26.27 48.45 26.74 48.18 27.61 44.87 27.55 46.68 27.55 47.71 28.23 47.32 28.22 43.55"/><polyline points="29.87 42.6 29.2 42.99 29.21 46.75 29.88 46.36 29.87 42.6"/><polyline points="33.25 40.65 30.58 42.19 30.58 42.82 31.57 42.25 31.58 45.38 32.25 44.99 32.24 41.86 33.25 41.28 33.25 40.65"/><polyline points="36.65 38.69 35.97 39.08 35.98 40.6 34.66 41.36 34.66 39.84 33.98 40.23 33.99 43.99 34.67 43.6 34.66 41.99 35.98 41.23 35.98 42.84 36.66 42.45 36.65 38.69"/><path d="M37,26.27,6.6,43.84A1.43,1.43,0,0,0,6,45c0,.41.29.59.65.38L37,27.77a1.44,1.44,0,0,0,.66-1.13c0-.42-.3-.58-.66-.37" transform="translate(-0.01 -3.26)"/></g></g></g></g></svg>