<svg xmlns="http://www.w3.org/2000/svg" xmlns:xlink="http://www.w3.org/1999/xlink" viewBox="0 0 22.63 26.97"><defs><style>.cls-1{fill:none;}.cls-2{isolation:isolate;}.cls-3{clip-path:url(#clip-path);}.cls-4{fill:#b13d95;}.cls-5{fill:#fff;}</style><clipPath id="clip-path" transform="translate(-0.02 -3)"><polygon class="cls-1" points="0.07 36.26 0 13.06 22.63 0 22.69 23.2 0.07 36.26"/></clipPath></defs><title>public-patron</title><g id="Layer_2" data-name="Layer 2"><g id="Layer_3" data-name="Layer 3"><g class="cls-2"><g class="cls-3"><path class="cls-4" d="M11.33,20.57a2.41,2.41,0,0,0,1.44-1.93c0-.56-.27-.95-1.62-.55S8.64,18.42,8.64,17a4.65,4.65,0,0,1,1.86-3.3V12.38l1.6-.92V12.8c1.11-.33,1.68.31,1.72,1.35l-1.18.68c0-.75-.4-1.07-1.34-.52a2.53,2.53,0,0,0-1.44,2c0,.59.39.74,1.61.39S14,16.19,14,17.93a4.38,4.38,0,0,1-1.86,3.26v1.32l-1.6.93V22.1c-1,.35-1.91.1-2-1.22l1.18-.68c.06.7.49,1,1.6.37m4.49-15.8a10.54,10.54,0,0,0-1.41,1,13.54,13.54,0,0,0-3.09,3.9,3.56,3.56,0,0,0-3.1-.33A7.27,7.27,0,0,0,6.81,10,10.54,10.54,0,0,0,4.63,11.7a14.3,14.3,0,0,0-2.82,4.19,11.43,11.43,0,0,0-1,4.57c0,5.62,4.64,7,9.54,8.41l.46.14a.82.82,0,0,0,.62-.12,2.09,2.09,0,0,0,.6-.59l.47-.67c4.87-7.08,9.48-13.77,9.47-19.39a5,5,0,0,0-1.08-3.33A3.12,3.12,0,0,0,18,4a6.15,6.15,0,0,0-2.18.79" transform="translate(-0.02 -3)"/><path class="cls-5" d="M11.32,9.68a13.54,13.54,0,0,1,3.09-3.9,10.54,10.54,0,0,1,1.41-1A6.15,6.15,0,0,1,18,4a3.12,3.12,0,0,1,2.84.93,5,5,0,0,1,1.08,3.33c0,5.62-4.6,12.31-9.47,19.39L12,28.3a2.09,2.09,0,0,1-.6.59.82.82,0,0,1-.62.12l-.46-.14C5.4,27.44.77,26.08.76,20.46a11.43,11.43,0,0,1,1.05-4.57A14.3,14.3,0,0,1,4.63,11.7,10.54,10.54,0,0,1,6.81,10a7.27,7.27,0,0,1,1.41-.63,3.56,3.56,0,0,1,3.1.33m4.5-5.75a10.73,10.73,0,0,0-1.58,1.13,14.84,14.84,0,0,0-2.92,3.43,4.24,4.24,0,0,0-2.93-.06,8,8,0,0,0-1.58.7,11.65,11.65,0,0,0-2.45,1.94A16.13,16.13,0,0,0,1.2,15.76,12.89,12.89,0,0,0,0,20.88c0,6,4.79,7.43,9.84,8.92l.46.13a1.33,1.33,0,0,0,1.06-.2,3.34,3.34,0,0,0,1-1l.46-.67c5-7.3,9.78-14.19,9.76-20.23a5.47,5.47,0,0,0-1.21-3.74,3.52,3.52,0,0,0-3.18-1,6.92,6.92,0,0,0-2.44.89" transform="translate(-0.02 -3)"/><path class="cls-5" d="M12.1,11.46l-1.6.92v1.33A4.65,4.65,0,0,0,8.64,17c0,1.41,1,1.53,2.51,1.08s1.62,0,1.62.55a2.41,2.41,0,0,1-1.44,1.93c-1.11.64-1.54.33-1.6-.37l-1.18.68c.07,1.32.95,1.57,2,1.22v1.34l1.6-.93V21.19A4.38,4.38,0,0,0,14,17.93c0-1.74-1.3-1.59-2.51-1.26s-1.61.2-1.61-.39a2.53,2.53,0,0,1,1.44-2c.94-.55,1.3-.23,1.34.52l1.18-.68c0-1-.61-1.68-1.72-1.35V11.46" transform="translate(-0.02 -3)"/></g></g></g></g></svg>