<svg xmlns="http://www.w3.org/2000/svg" xmlns:xlink="http://www.w3.org/1999/xlink" viewBox="0 0 46.85 95.49"><defs><style>.cls-1{fill:none;}.cls-2{opacity:0.85;}.cls-3{isolation:isolate;}.cls-4{clip-path:url(#clip-path);}.cls-5{fill:#fff;}</style><clipPath id="clip-path" transform="translate(-0.01 -3.24)"><polygon class="cls-1" points="0.21 99.58 0 26.94 46.66 0 46.87 72.65 0.21 99.58"/></clipPath></defs><title>public-data</title><g id="Layer_2" data-name="Layer 2"><g id="Layer_3" data-name="Layer 3"><g class="cls-2"><g class="cls-3"><g class="cls-4"><path class="cls-5" d="M12.61,82.32l-1,.57a5.35,5.35,0,0,0-.47,2.34.17.17,0,0,0,.09,0l.13-.09a6,6,0,0,0,1.23-2.79m.49-2.18a20.39,20.39,0,0,0-1.18,2l.85-.48c.12-.51.22-1,.33-1.57M35,66a1.63,1.63,0,0,0-.75,1.29c0,.3.13.48.33.53V69c0,.27.19.38.42.24a.91.91,0,0,0,.42-.72V67.36a1.57,1.57,0,0,0,.33-.92c0-.47-.34-.66-.75-.42m0-5a3.07,3.07,0,0,0-1.37,2.39v1.84l2.75-1.59V61.84c0-.87-.63-1.22-1.39-.79m-19.31,11a2,2,0,0,0-.63,1,16.78,16.78,0,0,0-.46,2.11,5.42,5.42,0,0,0,.54-.84c.69-1.48.74-2.11.65-2.26s0,0-.1,0M24,50.63a2.18,2.18,0,0,1-.67.62,1,1,0,0,1-.52.16l-2.58,4.48L23,57.47a2.7,2.7,0,0,1,.34-.25,1.05,1.05,0,0,1,.5-.15l2.83-4.91L24,50.63M27.1,44l-2.74,4.76a1.12,1.12,0,0,1,.12.53,2,2,0,0,1-.09.57l2.73,1.56,2.68-4.63a1,1,0,0,1-.12-.51,2,2,0,0,1,.15-.73L27.1,44m-7.59,4.12-2.79,4.84a.93.93,0,0,1,.23.67,2,2,0,0,1,0,.41l2.85,1.63,2.56-4.44a1,1,0,0,1-.17-.6,2.26,2.26,0,0,1,.21-.89l-2.85-1.62m3.08-5.34L20,47.29l2.9,1.65a2.6,2.6,0,0,1,.45-.37,1.09,1.09,0,0,1,.61-.15l2.73-4.72-2.79-1.59a2.32,2.32,0,0,1-.56.49.93.93,0,0,1-.71.14m-3.11-3.12-2.72,4.72a1,1,0,0,1,.17.6,1.88,1.88,0,0,1-.09.57L19.51,47l2.69-4.67a1.32,1.32,0,0,1-.08-.43,2.27,2.27,0,0,1,.15-.74l-2.79-1.58M27.08,35l-2.86,5a.94.94,0,0,1,.24.68,2.21,2.21,0,0,1-.15.73l2.79,1.59,2.73-4.73a1,1,0,0,1-.17-.6,2.4,2.4,0,0,1,.26-1L27.08,35M24,33.22a2.15,2.15,0,0,1-.74.73,1,1,0,0,1-.61.16l-2.72,4.72,2.78,1.59a2.23,2.23,0,0,1,.57-.5,1.21,1.21,0,0,1,.41-.15l2.93-5.06L24,33.22m-4.32-2.46-2.9,5a1.07,1.07,0,0,1,.11.51,2.14,2.14,0,0,1-.14.73l2.72,1.55,2.75-4.75a1.06,1.06,0,0,1-.13-.53,2.25,2.25,0,0,1,.27-1l-2.68-1.52m7.36-4.25-2.79,4.83a1,1,0,0,1,.17.6,2.28,2.28,0,0,1-.05.44l2.7,1.54,2.63-4.55a1.14,1.14,0,0,1-.08-.43,2,2,0,0,1,.2-.85l-2.78-1.58M23.89,24.7a2.14,2.14,0,0,1-.64.6,1,1,0,0,1-.5.16L20.14,30l2.77,1.58a1.73,1.73,0,0,1,.35-.27,1.07,1.07,0,0,1,.53-.16l2.81-4.87L23.89,24.7M9.23,81.19l.53-.91a.38.38,0,0,1,.16-.17.14.14,0,0,1,.16,0c.09,0,.09.22,0,.37l-.52.92.53.29c.09,0,.09.22,0,.38l-.16.17-.17,0-.52-.31-.53.91L8.54,83H8.38c-.09,0-.09-.22,0-.37l.53-.91-.53-.3c-.09,0-.09-.22,0-.38a.52.52,0,0,1,.16-.17.16.16,0,0,1,.16,0l.53.3m23.4-9c-.45.26-.82,0-.82-.48V67.3a1.77,1.77,0,0,1,.82-1.43l.26-.16V63.86A4.67,4.67,0,0,1,35,60.2c1.17-.68,2.13-.13,2.14,1.21v1.85l.26-.15c.46-.27.83,0,.84.47V68a1.84,1.84,0,0,1-.83,1.43l-4.78,2.76M11.53,79c-.19.11-.34,0-.34-.2a.72.72,0,0,1,.34-.59,12.63,12.63,0,0,0,2.26-2.09,23.63,23.63,0,0,1,.64-3.08,3.41,3.41,0,0,1,1.25-1.79c.31-.18.58-.15.72.09s.27,1-.71,3.12a9.5,9.5,0,0,1-1.3,1.85,2.58,2.58,0,0,1-.06.37c-.05.31-.1.63-.16,1,.24-.29.46-.55.66-.76a3.45,3.45,0,0,1,.7-.58.53.53,0,0,1,.56-.07c.15.1.21.31.19.65a9.9,9.9,0,0,1,.58-1,3.14,3.14,0,0,1,.83-.83.59.59,0,0,1,.48-.09c.39.13.44.84.13,2a.77.77,0,0,1-.32.45.28.28,0,0,1-.12,0c-.18,0-.27-.14-.21-.39.23-.84.16-1.17.09-1.19l0,0a1.65,1.65,0,0,0-.44.47,21.31,21.31,0,0,0-1.15,2.12c-.37.72-.53,1-.71,1.15a.28.28,0,0,1-.2,0c-.18,0-.2-.24-.08-.61.58-1.67.48-2,.47-2l0,0a2,2,0,0,0-.46.4A14.07,14.07,0,0,0,14,78.87c-.14.83-.3,1.64-.48,2.42L19.13,78c.13-.07.23,0,.23.13a.49.49,0,0,1-.23.4L13.34,81.9c-.45,1.8-1,3.28-1.84,3.93l-.24.16c-.35.2-.55.14-.66,0-.39-.4,0-1.83.27-2.69L8.55,84.67c-.13.08-.23,0-.23-.13a.51.51,0,0,1,.23-.4l2.55-1.47a20.09,20.09,0,0,1,2.25-3.9c.1-.54.19-1.06.26-1.55A11.77,11.77,0,0,1,11.53,79M8.19,34c-.64.37-1.17.07-1.17-.67a2.55,2.55,0,0,1,1.17-2c.63-.37,1.16-.08,1.16.66a2.59,2.59,0,0,1-1.16,2M29.73,20.82a1.19,1.19,0,0,1-.12-.53,2.53,2.53,0,0,1,1.16-2c.64-.37,1.17-.08,1.17.66a2.17,2.17,0,0,1-.16.77l5.95,3.4a2.42,2.42,0,0,1,.59-.53c.64-.37,1.17-.07,1.17.66a2.59,2.59,0,0,1-1.16,2c-.64.37-1.17.07-1.17-.67a2.26,2.26,0,0,1,.13-.7l-6-3.4a2.37,2.37,0,0,1-.54.47,1,1,0,0,1-.61.15l-2.66,4.61,2.81,1.6a1.91,1.91,0,0,1,.47-.39c.65-.37,1.17-.07,1.17.66a1.63,1.63,0,0,1-.1.61l6,3.43a2,2,0,0,1,.47-.4c.65-.37,1.17-.07,1.18.67a2.57,2.57,0,0,1-1.17,2c-.64.37-1.16.07-1.16-.66a2.23,2.23,0,0,1,.19-.86L31.45,29a2.29,2.29,0,0,1-.65.6.9.9,0,0,1-.7.13l-2.57,4.44,2.93,1.67a1.54,1.54,0,0,1,.36-.27c.64-.37,1.17-.07,1.17.67a1.72,1.72,0,0,1-.06.44L38,40.15a1.88,1.88,0,0,1,.36-.27c.64-.37,1.17-.07,1.17.67a2.58,2.58,0,0,1-1.16,2c-.64.37-1.17.07-1.17-.66a2.37,2.37,0,0,1,.26-1l-5.9-3.37a2.4,2.4,0,0,1-.75.74,1,1,0,0,1-.52.16l-2.75,4.76,2.72,1.55a2.05,2.05,0,0,1,.57-.5c.65-.37,1.17-.07,1.17.67a2.14,2.14,0,0,1-.14.73l6,3.4a2.17,2.17,0,0,1,.56-.5c.65-.37,1.17-.07,1.18.67a2.55,2.55,0,0,1-1.17,2c-.64.37-1.16.08-1.16-.66a2,2,0,0,1,.14-.74l-6-3.4a2,2,0,0,1-.56.5,1,1,0,0,1-.63.15l-2.64,4.58,2.83,1.61a1.78,1.78,0,0,1,.46-.37c.64-.37,1.17-.07,1.17.67a2.57,2.57,0,0,1-1.17,2c-.64.37-1.16.07-1.16-.67a2.2,2.2,0,0,1,.2-.88l-2.78-1.59-2.81,4.86a.94.94,0,0,1,.18.62,2.51,2.51,0,0,1-1.15,2c-.65.37-1.17.08-1.18-.66a2.34,2.34,0,0,1,.28-1l-2.69-1.54-2.91,5a1.06,1.06,0,0,1,.13.53,2.57,2.57,0,0,1-1.16,2c-.65.37-1.17.08-1.17-.66a2.56,2.56,0,0,1,1.16-2,.92.92,0,0,1,.61-.15l2.89-5-2.76-1.57a2.3,2.3,0,0,1-.76.76.89.89,0,0,1-.7.13L9.21,65.92a.88.88,0,0,1,.24.67,2.53,2.53,0,0,1-1.16,2c-.64.38-1.17.08-1.17-.66a2.57,2.57,0,0,1,1.16-2,1,1,0,0,1,.41-.15l6-10.41a1,1,0,0,1-.08-.42,2.57,2.57,0,0,1,1.17-2,1.21,1.21,0,0,1,.41-.15l2.86-5-2.63-1.5a2.08,2.08,0,0,1-.66.63.92.92,0,0,1-.61.15L9.25,57.34a1,1,0,0,1,.17.6,2.51,2.51,0,0,1-1.15,2c-.65.38-1.17.08-1.18-.66a2.55,2.55,0,0,1,1.17-2,1,1,0,0,1,.52-.16l5.94-10.3a1,1,0,0,1-.12-.52,2.59,2.59,0,0,1,1.16-2,1.06,1.06,0,0,1,.52-.16L19,39.36l-2.72-1.55a2.32,2.32,0,0,1-.56.49,1.2,1.2,0,0,1-.51.16l-6,10.32a1.07,1.07,0,0,1,.11.51,2.55,2.55,0,0,1-1.16,2c-.64.38-1.17.08-1.17-.66a2.57,2.57,0,0,1,1.16-2,.93.93,0,0,1,.63-.15l5.9-10.22a.94.94,0,0,1-.19-.62,2.57,2.57,0,0,1,1.17-2,1,1,0,0,1,.62-.15l2.87-5-2.77-1.58a2.27,2.27,0,0,1-.74.74.92.92,0,0,1-.69.14L9.15,40a.94.94,0,0,1,.23.65,2.59,2.59,0,0,1-1.16,2c-.65.37-1.17.07-1.17-.67a2.54,2.54,0,0,1,1.16-2,1.2,1.2,0,0,1,.43-.16l6-10.38a1.17,1.17,0,0,1-.08-.45,2.57,2.57,0,0,1,1.16-2c.65-.37,1.17-.08,1.17.67a1.72,1.72,0,0,1-.06.44l2.87,1.63,2.57-4.46a.92.92,0,0,1-.18-.61,2.53,2.53,0,0,1,1.16-2c.65-.38,1.16-.08,1.17.66a2.15,2.15,0,0,1-.1.6l2.74,1.57,2.68-4.64m8.57-4.21c-.64.37-1.16.07-1.16-.67a2.57,2.57,0,0,1,1.16-2c.64-.37,1.17-.08,1.17.66a2.55,2.55,0,0,1-1.17,2m1.9-9.56L2.9,28.58l.19,66L44,71,43.79,9.1l-3.59-2" transform="translate(-0.01 -3.24)"/><path class="cls-5" d="M2.13,97.36c-.53.31-1,.07-1-.55L1,28.6a2.13,2.13,0,0,1,1-1.67L40.59,4.61a.71.71,0,0,1,.68-.07l4.16,2.37a.66.66,0,0,1,.28.62L45.89,71a2.09,2.09,0,0,1-1,1.66L2.13,97.36M40.59,3.51,1.93,25.83A4.21,4.21,0,0,0,0,29.15L.2,97.37c0,1.22.87,1.71,1.93,1.1L44.94,73.76a4.26,4.26,0,0,0,1.92-3.33L46.68,7a1.33,1.33,0,0,0-.57-1.23L42,3.37a1.35,1.35,0,0,0-1.36.14" transform="translate(-0.01 -3.24)"/><path d="M3.09,94.59l-.19-66L40.2,7.05,43.79,9.1,44,71,3.09,94.59m37.5-90L1.93,26.93A2.13,2.13,0,0,0,1,28.6l.19,68.21c0,.62.44.86,1,.55l42.8-24.71a2.09,2.09,0,0,0,1-1.66L45.71,7.53a.66.66,0,0,0-.28-.62L41.27,4.54a.71.71,0,0,0-.68.07" transform="translate(-0.01 -3.24)"/><path d="M11.25,85.2a.17.17,0,0,1-.09,0,5.35,5.35,0,0,1,.47-2.34l1-.57a6,6,0,0,1-1.23,2.79l-.13.09m.67-3a20.39,20.39,0,0,1,1.18-2c-.11.53-.21,1.06-.33,1.57l-.85.48m2.67-7a16.78,16.78,0,0,1,.46-2.11,2,2,0,0,1,.63-1c.06,0,.09,0,.1,0s0,.78-.65,2.26a5.42,5.42,0,0,1-.54.84m1.09-3.9a3.41,3.41,0,0,0-1.25,1.79,23.63,23.63,0,0,0-.64,3.08,12.63,12.63,0,0,1-2.26,2.09.72.72,0,0,0-.34.59c0,.22.15.31.34.2a11.77,11.77,0,0,0,2.08-1.82c-.07.49-.16,1-.26,1.55a20.09,20.09,0,0,0-2.25,3.9L8.55,84.14a.51.51,0,0,0-.23.4c0,.15.1.21.23.13l2.32-1.34c-.28.86-.66,2.29-.27,2.69.11.11.31.17.66,0l.24-.16c.82-.65,1.39-2.13,1.84-3.93l5.79-3.34a.49.49,0,0,0,.23-.4c0-.14-.1-.2-.23-.13l-5.64,3.26c.18-.78.34-1.59.48-2.42a14.07,14.07,0,0,1,1.12-1.36,2,2,0,0,1,.46-.4l0,0s.11.33-.47,2c-.12.37-.1.57.08.61a.28.28,0,0,0,.2,0c.18-.1.34-.43.71-1.15a21.31,21.31,0,0,1,1.15-2.12,1.65,1.65,0,0,1,.44-.47l0,0c.07,0,.14.35-.09,1.19-.06.25,0,.42.21.39a.28.28,0,0,0,.12,0A.77.77,0,0,0,18.3,77c.31-1.12.26-1.83-.13-2a.59.59,0,0,0-.48.09,3.14,3.14,0,0,0-.83.83,9.9,9.9,0,0,0-.58,1c0-.34,0-.55-.19-.65a.53.53,0,0,0-.56.07,3.45,3.45,0,0,0-.7.58c-.2.21-.42.47-.66.76.06-.32.11-.64.16-1a2.58,2.58,0,0,0,.06-.37,9.5,9.5,0,0,0,1.3-1.85c1-2.09.87-2.85.71-3.12s-.41-.27-.72-.09" transform="translate(-0.01 -3.24)"/><path d="M9.92,80.11a.38.38,0,0,0-.16.17l-.53.91-.53-.3a.16.16,0,0,0-.16,0,.52.52,0,0,0-.16.17c-.09.16-.09.33,0,.38l.53.3-.53.91c-.09.15-.09.32,0,.37h.16l.17-.18.53-.91.52.31.17,0,.16-.17c.09-.16.09-.33,0-.38l-.53-.29.52-.92c.09-.15.09-.32,0-.37a.14.14,0,0,0-.16,0" transform="translate(-0.01 -3.24)"/><path d="M35,69.26c-.23.14-.42,0-.42-.24V67.84c-.2,0-.32-.23-.33-.53A1.63,1.63,0,0,1,35,66c.41-.24.75,0,.75.42a1.57,1.57,0,0,1-.33.92v1.18a.91.91,0,0,1-.42.72m-1.39-4V63.44A3.07,3.07,0,0,1,35,61.05c.76-.43,1.39-.08,1.39.79v1.85l-2.75,1.59M35,60.2a4.67,4.67,0,0,0-2.11,3.66v1.85l-.26.16a1.77,1.77,0,0,0-.82,1.43v4.4c0,.53.37.74.82.48l4.78-2.76A1.84,1.84,0,0,0,38.24,68V63.58c0-.52-.38-.74-.84-.47l-.26.15V61.41c0-1.34-1-1.89-2.14-1.21" transform="translate(-0.01 -3.24)"/><path d="M8.19,31.32a2.55,2.55,0,0,0-1.17,2c0,.74.53,1,1.17.67a2.59,2.59,0,0,0,1.16-2c0-.74-.53-1-1.16-.66" transform="translate(-0.01 -3.24)"/><path d="M15.77,28.52,15,29.79a.92.92,0,0,0,.69-.14,2.27,2.27,0,0,0,.74-.74l-.69-.39M15.71,27a2.57,2.57,0,0,0-1.16,2,1.17,1.17,0,0,0,.08.45l.91-1.56.22.13.23-.39.83.47a1.72,1.72,0,0,0,.06-.44c0-.75-.52-1-1.17-.67" transform="translate(-0.01 -3.24)"/><path d="M23.36,24.4l-.61,1.06a1,1,0,0,0,.5-.16,2.14,2.14,0,0,0,.64-.6l-.53-.3m-.12-1.77a2.53,2.53,0,0,0-1.16,2,.92.92,0,0,0,.18.61l.64-1.11h0l.46-.79.95.54a2.15,2.15,0,0,0,.1-.6c0-.74-.52-1-1.17-.66" transform="translate(-0.01 -3.24)"/><path d="M30.73,20.15l-.56,1a1,1,0,0,0,.61-.15,2.37,2.37,0,0,0,.54-.47l-.59-.34m0-1.87a2.53,2.53,0,0,0-1.16,2,1.19,1.19,0,0,0,.12.53l.54-.93h0l.45-.78,1.06.61a2.17,2.17,0,0,0,.16-.77c0-.74-.53-1-1.17-.66" transform="translate(-0.01 -3.24)"/><path d="M38.3,13.93a2.57,2.57,0,0,0-1.16,2c0,.74.52,1,1.16.67a2.55,2.55,0,0,0,1.17-2c0-.74-.53-1-1.17-.66" transform="translate(-0.01 -3.24)"/><path d="M8.21,40a2.54,2.54,0,0,0-1.16,2c0,.74.52,1,1.17.67a2.59,2.59,0,0,0,1.16-2A.94.94,0,0,0,9.15,40l-.73,1.26L8,41l.67-1.17a1.2,1.2,0,0,0-.43.16" transform="translate(-0.01 -3.24)"/><path d="M15.79,37.51l-.55,1a1.2,1.2,0,0,0,.51-.16,2.32,2.32,0,0,0,.56-.49l-.52-.3m1-1.73-.55.95.52.29a2.14,2.14,0,0,0,.14-.73,1.07,1.07,0,0,0-.11-.51m-1-.16a2.57,2.57,0,0,0-1.17,2,.94.94,0,0,0,.19.62l.57-1h0l.45-.78h0l.57-1a1,1,0,0,0-.62.15" transform="translate(-0.01 -3.24)"/><path d="M23.38,32.86l-.72,1.25a1,1,0,0,0,.61-.16,2.15,2.15,0,0,0,.74-.73l-.63-.36m.88-1.52-.42.74.54.3a2.28,2.28,0,0,0,.05-.44,1,1,0,0,0-.17-.6m-1.89.94a2.25,2.25,0,0,0-.27,1,1.06,1.06,0,0,0,.13.53l.7-1.22-.56-.32m.89-1a1.73,1.73,0,0,0-.35.27l.47.27.41-.7a1.07,1.07,0,0,0-.53.16" transform="translate(-0.01 -3.24)"/><path d="M29.83,28.09a2,2,0,0,0-.2.85,1.14,1.14,0,0,0,.08.43l.58-1,.46.26-.65,1.12a.9.9,0,0,0,.7-.13,2.29,2.29,0,0,0,.65-.6l-1.62-.92m1-1.16a1.91,1.91,0,0,0-.47.39l1.54.88a1.63,1.63,0,0,0,.1-.61c0-.73-.52-1-1.17-.66" transform="translate(-0.01 -3.24)"/><path d="M38.32,22.58a2.42,2.42,0,0,0-.59.53l.84.47-.46.78-.82-.47a2.26,2.26,0,0,0-.13.7c0,.74.53,1,1.17.67a2.59,2.59,0,0,0,1.16-2c0-.73-.53-1-1.17-.66" transform="translate(-0.01 -3.24)"/><path d="M8.23,48.62a2.57,2.57,0,0,0-1.16,2c0,.74.53,1,1.17.66a2.55,2.55,0,0,0,1.16-2,1.07,1.07,0,0,0-.11-.51l-.84,1.45L8,50l.86-1.5a.93.93,0,0,0-.63.15" transform="translate(-0.01 -3.24)"/><path d="M15.81,46l-.65,1.13a.92.92,0,0,0,.61-.15,2.08,2.08,0,0,0,.66-.63L15.81,46m1-1.63-.49.85.57.32a1.88,1.88,0,0,0,.09-.57,1,1,0,0,0-.17-.6m-1-.07a2.59,2.59,0,0,0-1.16,2,1,1,0,0,0,.12.52l1.56-2.7a1.06,1.06,0,0,0-.52.16" transform="translate(-0.01 -3.24)"/><path d="M23.18,41.72l-.59,1a.93.93,0,0,0,.71-.14,2.32,2.32,0,0,0,.56-.49l-.68-.39m-.91-.52a2.27,2.27,0,0,0-.15.74,1.32,1.32,0,0,0,.08.43l.52-.91-.45-.26m1.95-1.28-.59,1,.68.39a2.21,2.21,0,0,0,.15-.73.94.94,0,0,0-.24-.68m-.93,0a2.23,2.23,0,0,0-.57.5l.46.26.52-.91a1.21,1.21,0,0,0-.41.15" transform="translate(-0.01 -3.24)"/><path d="M31,37.2l-.7,1.22a1,1,0,0,0,.52-.16,2.4,2.4,0,0,0,.75-.74L31,37.2m-1.08-.62a2.4,2.4,0,0,0-.26,1,1,1,0,0,0,.17.6l.72-1.25-.63-.36m.9-1a1.54,1.54,0,0,0-.36.27l.54.31h0l.46.26h0l.47.27a1.72,1.72,0,0,0,.06-.44c0-.74-.53-1-1.17-.67" transform="translate(-0.01 -3.24)"/><path d="M38.34,31.23a2,2,0,0,0-.47.4l.72.41-.45.78-.76-.43a2.23,2.23,0,0,0-.19.86c0,.73.52,1,1.16.66a2.57,2.57,0,0,0,1.17-2c0-.74-.53-1-1.18-.67" transform="translate(-0.01 -3.24)"/><path d="M8.26,57.27a2.55,2.55,0,0,0-1.17,2c0,.74.53,1,1.18.66a2.51,2.51,0,0,0,1.15-2,1,1,0,0,0-.17-.6l-.78,1.35L8,58.43l.76-1.32a1,1,0,0,0-.52.16" transform="translate(-0.01 -3.24)"/><path d="M15.84,54.43l-.75,1.3a.89.89,0,0,0,.7-.13,2.3,2.3,0,0,0,.76-.76l-.71-.41m.88-1.51-.43.73.62.35a2,2,0,0,0,0-.41.93.93,0,0,0-.23-.67m-.93,0a2.57,2.57,0,0,0-1.17,2,1,1,0,0,0,.08.42l1.5-2.59a1.21,1.21,0,0,0-.41.15" transform="translate(-0.01 -3.24)"/><path d="M23.43,50.31l-.63,1.1a1,1,0,0,0,.52-.16,2.18,2.18,0,0,0,.67-.62l-.56-.32m.93-1.59-.47.81.5.29a2,2,0,0,0,.09-.57,1.12,1.12,0,0,0-.12-.53m-2,1a2.26,2.26,0,0,0-.21.89,1,1,0,0,0,.17.6L23,50.05l-.62-.35m.95-1.13a2.6,2.6,0,0,0-.45.37l.57.33.49-.85a1.09,1.09,0,0,0-.61.15" transform="translate(-0.01 -3.24)"/><path d="M30.8,46.06l-.58,1a1,1,0,0,0,.63-.15,2,2,0,0,0,.56-.5l-.61-.35m-1-.55a2,2,0,0,0-.15.73,1,1,0,0,0,.12.51l.54-1-.51-.29m1-1.28a2.05,2.05,0,0,0-.57.5l.52.29h0l.45.26h0l.62.35A2.14,2.14,0,0,0,32,44.9c0-.74-.52-1-1.17-.67" transform="translate(-0.01 -3.24)"/><path d="M38.37,39.88a1.88,1.88,0,0,0-.36.27l.83.48-.45.78-.92-.52a2.37,2.37,0,0,0-.26,1c0,.73.53,1,1.17.66a2.58,2.58,0,0,0,1.16-2c0-.74-.53-1-1.17-.67" transform="translate(-0.01 -3.24)"/><path d="M8.28,65.92a2.57,2.57,0,0,0-1.16,2c0,.74.53,1,1.17.66a2.53,2.53,0,0,0,1.16-2,.88.88,0,0,0-.24-.67l-.94,1.63-.46-.26.88-1.52a1,1,0,0,0-.41.15" transform="translate(-0.01 -3.24)"/><path d="M15.81,61.57a2.56,2.56,0,0,0-1.16,2c0,.74.52,1,1.17.66a2.57,2.57,0,0,0,1.16-2,1.06,1.06,0,0,0-.13-.53L16.09,63l-.45-.26.78-1.35a.92.92,0,0,0-.61.15" transform="translate(-0.01 -3.24)"/><path d="M22.45,58.21a2.34,2.34,0,0,0-.28,1c0,.74.53,1,1.18.66a2.51,2.51,0,0,0,1.15-2,.94.94,0,0,0-.18-.62l-.86,1.5L23,58.52h0l-.55-.31m.89-1a2.7,2.7,0,0,0-.34.25l.46.26.38-.66a1.05,1.05,0,0,0-.5.15" transform="translate(-0.01 -3.24)"/><path d="M30.87,52.88a1.78,1.78,0,0,0-.46.37l.87.49-.45.79L29.91,54a2.2,2.2,0,0,0-.2.88c0,.74.52,1,1.16.67a2.57,2.57,0,0,0,1.17-2c0-.74-.53-1-1.17-.67" transform="translate(-0.01 -3.24)"/><path d="M38.39,48.53a2.17,2.17,0,0,0-.56.5l1,.59-.45.79-1-.6a2,2,0,0,0-.14.74c0,.74.52,1,1.16.66a2.55,2.55,0,0,0,1.17-2c0-.74-.53-1-1.18-.67" transform="translate(-0.01 -3.24)"/><polyline points="15.53 24.63 14.63 26.19 8.64 36.57 7.96 37.74 8.42 38 9.15 36.74 15.03 26.55 15.76 25.28 15.53 25.15 15.76 24.75 15.53 24.63"/><path d="M15.33,37.25l-.57,1L8.86,48.47,8,50l.45.26.84-1.45,6-10.32.55-1-.46-.26m3.9-6.76-2.87,5-.57,1,.45.26.55-.95,2.9-5-.46-.27m3.67-6.35-.64,1.11-2.57,4.46.45.26,2.61-4.51.61-1.06-.46-.26" transform="translate(-0.01 -3.24)"/><path d="M19,39.36l-2.75,4.75-1.56,2.7L8.78,57.11,8,58.43l.45.26.78-1.35L15.16,47.1,15.81,46l-.22-.13.45-.78.23.13.49-.85,2.72-4.72L19,39.36m3.9-6.76-.7,1.22-2.75,4.75.46.26,2.72-4.72.72-1.25-.45-.26m3.67-6.35-2.81,4.87-.41.7.46.26.42-.74,2.79-4.83-.45-.26m3.67-6.36-.54.93-2.68,4.64.46.26,2.66-4.61.56-1-.46-.26" transform="translate(-0.01 -3.24)"/><path d="M19.06,47.82l-2.86,5-1.5,2.59-6,10.41-.88,1.52.46.26.94-1.63,5.88-10.19.75-1.3-.23-.13.45-.78.23.13.43-.73,2.79-4.84-.45-.26m3.66-6.36-.52.91L19.51,47l.45.25,2.63-4.55.59-1-.46-.26m3.91-6.75L23.7,39.77l-.52.91.45.26.59-1,2.86-5-.45-.26m3.66-6.35-.58,1-2.63,4.55.45.26,2.57-4.44.65-1.12-.46-.26" transform="translate(-0.01 -3.24)"/><path d="M19.31,56.41l-2.89,5-.78,1.35.45.26.76-1.32,2.91-5-.45-.26M23,50.05l-.66,1.14-2.56,4.44.46.26,2.58-4.48.63-1.1L23,50.05m3.67-6.35-2.73,4.72-.49.85.46.26.47-.81L27.1,44l-.45-.26m3.9-6.76-.72,1.25L27.1,42.92l.45.26,2.75-4.76L31,37.2l-.45-.26m.45-.79h0l.46.26h0L31,36.15" transform="translate(-0.01 -3.24)"/><polyline points="30.71 15.86 30.26 16.64 30.26 16.64 30.72 16.9 31.32 17.24 37.29 20.65 38.11 21.12 38.56 20.34 37.73 19.86 31.78 16.47 30.71 15.86"/><polyline points="23.35 20.11 22.89 20.9 22.9 20.9 23.35 21.16 23.89 21.46 26.59 23 27.05 23.26 29.82 24.84 31.44 25.77 37.37 29.15 38.13 29.58 38.58 28.8 37.86 28.39 31.86 24.96 30.31 24.08 27.5 22.48 27.05 22.22 24.3 20.65 23.35 20.11"/><path d="M27.58,51.64l-.45.78L29.91,54l.92.52.45-.79-.87-.49-2.83-1.61M16,45.06l-.45.78.22.13.62.35,2.63,1.5.45.26,2.85,1.62.62.35.45.26.56.32,2.68,1.53.45-.78-2.73-1.56-.5-.29-.46-.26-.57-.33L20,47.29,19.51,47l-2.67-1.53-.57-.32L16,45.06" transform="translate(-0.01 -3.24)"/><polyline points="15.98 24.36 15.76 24.75 15.53 25.15 15.76 25.28 16.45 25.67 19.23 27.25 19.69 27.51 22.36 29.04 22.92 29.36 23.38 29.62 24.01 29.98 26.62 31.46 27.07 31.72 29.91 33.34 30.54 33.7 31 33.96 31.56 34.28 37.47 37.65 38.39 38.17 38.84 37.39 38.01 36.91 31.93 33.45 31.45 33.18 31 32.92 30.45 32.61 27.53 30.94 27.07 30.68 24.37 29.14 23.83 28.84 23.38 28.58 22.9 28.3 20.14 26.73 19.68 26.47 16.82 24.84 15.98 24.36"/><path d="M31.25,45.28l-.45.78.61.35,6,3.4,1,.6.45-.79-1-.59-6-3.4-.62-.35M15.78,36.47l-.45.78h0l.46.26.52.3L19,39.36l.45.26,2.79,1.58.45.26.46.26.68.39,2.79,1.59.45.26,2.73,1.55.51.29.45-.78-.52-.29-2.72-1.55-.45-.26-2.79-1.59-.68-.39-.45-.26-.46-.26-2.78-1.59-.46-.26L16.76,37l-.52-.29-.45-.26h0" transform="translate(-0.01 -3.24)"/><polyline points="16.06 50.28 15.61 51.06 15.84 51.19 16.55 51.59 19.3 53.17 19.76 53.43 22.45 54.96 22.99 55.28 23.45 54.49 23 54.23 20.21 52.64 19.76 52.38 16.9 50.76 16.29 50.41 16.06 50.28"/><polyline points="30.79 41.77 30.79 41.78 30.33 42.56 29.79 43.51 27.12 48.13 26.67 48.92 23.83 53.82 23.45 54.49 22.99 55.28 22.99 55.28 23.45 55.54 24.32 54.04 27.12 49.18 27.57 48.39 30.22 43.81 30.79 42.82 31.24 42.04 31.25 42.03 30.79 41.77"/></g></g></g></g></g></svg>