<svg xmlns="http://www.w3.org/2000/svg" xmlns:xlink="http://www.w3.org/1999/xlink" viewBox="0 0 18.65 29.44"><defs><style>.cls-1{fill:none;}.cls-2{isolation:isolate;}.cls-3{clip-path:url(#clip-path);}.cls-4{fill:#fff;}</style><clipPath id="clip-path" transform="translate(0 -0.62)"><polygon class="cls-1" points="0 19.95 0.06 0 18.66 10.74 18.61 30.69 0 19.95"/></clipPath></defs><title>reviewer-note</title><g id="Layer_2" data-name="Layer 2"><g id="Layer_3" data-name="Layer 3"><g class="cls-2"><g class="cls-3"><path class="cls-4" d="M3.8,17v-.82l8.05,4.65v.81L3.8,17m0-2.44v-.82l9.93,5.73v.82L3.81,14.53m0-2.45v-.82L13.75,17v.82L3.81,12.08m0-3.8V6.65l9.93,5.73V14L3.83,8.28M16.53,12,2.18,3.67,2.13,18.73,16.49,27l0-15.06" transform="translate(0 -0.62)"/><path class="cls-4" d="M1.42,20a1.51,1.51,0,0,1-.5-.53,1.48,1.48,0,0,1-.21-.69L.76,2A.52.52,0,0,1,1,1.58a.54.54,0,0,1,.5,0l15.77,9.11A1.48,1.48,0,0,1,18,12L17.9,28.65a.52.52,0,0,1-.2.46.53.53,0,0,1-.51-.05L1.42,20m15.82-10L1.47.82C.69.36.05.73.05,1.63L0,18.32a3.14,3.14,0,0,0,1.42,2.45l15.77,9.1c.78.45,1.42.09,1.42-.81l.05-16.69a3.13,3.13,0,0,0-1.42-2.45" transform="translate(0 -0.62)"/><path d="M2.13,18.73,2.18,3.67,16.53,12l0,15.06L2.13,18.73m15.11-8L1.47,1.63a.54.54,0,0,0-.5,0A.52.52,0,0,0,.76,2L.71,18.73a1.48,1.48,0,0,0,.21.69,1.51,1.51,0,0,0,.5.53l15.77,9.11a.53.53,0,0,0,.51.05.52.52,0,0,0,.2-.46L18,12a1.48,1.48,0,0,0-.71-1.22" transform="translate(0 -0.62)"/><polyline points="13.75 11.76 3.83 6.02 3.82 7.65 13.75 13.38 13.75 11.76"/><polyline points="13.74 16.37 3.81 10.64 3.81 11.45 13.74 17.18 13.74 16.37"/><polyline points="13.73 18.82 3.81 13.09 3.8 13.9 13.73 19.64 13.73 18.82"/><polyline points="11.84 20.18 3.8 15.53 3.8 16.35 11.84 20.99 11.84 20.18"/></g></g></g></g></svg>