<svg xmlns="http://www.w3.org/2000/svg" xmlns:xlink="http://www.w3.org/1999/xlink" viewBox="0 0 47.01 95.79"><defs><style>.cls-1{fill:none;}.cls-2{isolation:isolate;}.cls-3{clip-path:url(#clip-path);}.cls-4{fill:#fff;}</style><clipPath id="clip-path" transform="translate(-0.01 -3.26)"><polygon class="cls-1" points="0 72.89 0.21 0 47.02 27.03 46.82 99.92 0 72.89"/></clipPath></defs><title>reviewer-ms</title><g id="Layer_2" data-name="Layer 2"><g id="qube_bg" data-name="qube bg"><g class="cls-2"><g class="cls-3"><path class="cls-4" d="M19.06,60.65c-.24-.14-.42-.13-.54,0a1.8,1.8,0,0,0-.17.95V63a3.36,3.36,0,0,0,.17,1.11,1.14,1.14,0,0,0,.53.63c.24.15.42.13.54,0a1.86,1.86,0,0,0,.17-1V62.34a2.94,2.94,0,0,0-.17-1.08,1.21,1.21,0,0,0-.52-.61m6.66-15.14-.62-.36c-.32-.18-.47-.09-.47.25a.76.76,0,0,0,.13.44,1,1,0,0,0,.37.35l.58.33v-1m0-1.5-.47-.28a.6.6,0,0,0-.41-.11c-.09,0-.13.12-.13.29a.85.85,0,0,0,.51.76l.5.29V44M34,34.23l-.42,1.17.82.47L34,34.23M12.58,21.56,12,21.2c-.17-.09-.3-.11-.39-.05s-.14.18-.14.36a.86.86,0,0,0,.14.5,1,1,0,0,0,.4.38l.6.35V21.56m5,2.88L17,24.12c-.17-.1-.31-.13-.4-.08s-.13.16-.13.34a1,1,0,0,0,.14.49,1,1,0,0,0,.39.38l.54.32V24.44M22,67.33a1.1,1.1,0,0,1-.41-.42,1,1,0,0,1-.16-.53.35.35,0,0,1,.16-.35.46.46,0,0,1,.41.06,1.21,1.21,0,0,1,.4.41,1,1,0,0,1,.16.53c0,.19-.05.3-.16.35a.4.4,0,0,1-.4,0m6.75,2.91.75-2.41.74.44-1.14,3.11-.71-.4-1.13-4.44L28,67l.73,3.26m-4.63-1.73V62.7l.11.06,2.09,2.07v.93l-1.19-1.12,0,4.44-1-.57m-5-2.84a3.19,3.19,0,0,1-1.26-1.36,4.77,4.77,0,0,1-.43-2.1V61.15a2,2,0,0,1,.46-1.53c.29-.25.71-.22,1.26.1a3.16,3.16,0,0,1,1.26,1.35,4.62,4.62,0,0,1,.43,2.11v1.06a2,2,0,0,1-.45,1.53c-.3.25-.71.22-1.27-.1M12.66,45.5v-.61L15,46.23v.61L12.66,45.5m3.25,1.88v-.61l2.34,1.35v.6l-2.34-1.34m3.27,1.88v-.61L21.51,50v.6l-2.33-1.34m3.26,1.88v-.61l2.33,1.35v.61l-2.33-1.35M25.69,53v-.61L28,53.76v.61L25.69,53M29,54.91V54.3l2.33,1.34v.61L29,54.91m3.26,1.88v-.61l2.33,1.35v.61l-2.33-1.35M22.1,43l.68-1.31.74.43-1.09,1.78v1.36l-.68-.39V43.49l-1.07-3,.74.43L22.1,43m3,3.81a2.51,2.51,0,0,1-.86-.78,1.76,1.76,0,0,1-.3-1,.58.58,0,0,1,.15-.45.39.39,0,0,1,.4-.06,1.93,1.93,0,0,1-.35-.51,1.41,1.41,0,0,1-.12-.56c0-.34.11-.54.31-.6a1.38,1.38,0,0,1,.91.27l1.15.66v3.77l-1.28-.74M8.57,27a1.44,1.44,0,0,1-.66-1.13c0-.41.3-.58.66-.37L39,43a1.46,1.46,0,0,1,.65,1.14c0,.41-.3.57-.65.37L8.57,27M7.46,18.61V18l2.67,1.54v.63l-1-.57v3.13l-.67-.39V19.19l-1-.58M12,23a2.63,2.63,0,0,1-.91-.84,1.92,1.92,0,0,1-.33-1.06,1,1,0,0,1,.15-.57.52.52,0,0,1,.44-.19,1.43,1.43,0,0,1,.65.22l1.28.74v3.76l-.68-.39V23.36L12,23m2.24,2.62V21.88l.67.39V26l-.67-.39m1.45.84v0l.71-1.13a2.33,2.33,0,0,1-.43-.66,1.83,1.83,0,0,1-.15-.73c0-.36.11-.59.32-.66a1.16,1.16,0,0,1,.9.22l1.22.71V28l-.68-.39V26.19L17,25.88l-.62,1-.73-.42m11.26,5.93c.18.1.33.14.43.08s.15-.21.15-.45V29.55l.68.4v2.5c0,.4-.12.66-.35.77a1,1,0,0,1-.91-.19,2.39,2.39,0,0,1-.92-.89A2.24,2.24,0,0,1,25.67,31V28.49l.68.39v2.51a1.12,1.12,0,0,0,.58,1m2.84.93,1.32-1.72.68.39,0,3.76-.67-.39V32.9l-1.32,1.72-.67-.39V30.47l.67.39v2.48m2.64,2.81,1.24-3.06.62.36,1.21,4.47-.72-.41-.22-.9-1.18-.69-.23.64-.72-.41m5.5,2.14.85-2.24.88.5v3.77L39,39.93v-1L39,37.17l-.89,2.29-.46-.27-.88-3.31.07,1.81v1l-.67-.39V34.56l.88.51.83,3.22M19,25.92a.85.85,0,0,1,.4-.75,1.1,1.1,0,0,1,.92.19,2.52,2.52,0,0,1,.72.63,3.14,3.14,0,0,1,.47.91A3.46,3.46,0,0,1,21.7,28v.22a1.4,1.4,0,0,1-.37,1.14c-.24.18-.58.15-1-.09a2.54,2.54,0,0,1-.93-.88A2.44,2.44,0,0,1,19,27.16l.68.39a1.15,1.15,0,0,0,.64,1.05c.23.13.4.13.51,0a1.43,1.43,0,0,0,.16-.8v-.29a2.39,2.39,0,0,0-.17-1,1.21,1.21,0,0,0-.5-.57c-.21-.12-.37-.15-.47-.1s-.16.19-.18.43l-.67-.4m3.38,1.79a.71.71,0,0,1,.16-.51A.47.47,0,0,1,23,27a1.34,1.34,0,0,1,.63.21,3.38,3.38,0,0,1,.63.5,2.34,2.34,0,0,1,.42.62,1.43,1.43,0,0,1,.16.63c0,.4-.19.6-.57.62a2.72,2.72,0,0,1-.55-.07,1.26,1.26,0,0,0-.49,0c-.09,0-.14.12-.14.26a.67.67,0,0,0,.14.39,1.08,1.08,0,0,0,.37.33q.66.38.66-.24l.67.39a.83.83,0,0,1-.16.54.61.61,0,0,1-.48.17,1.71,1.71,0,0,1-.69-.25,2.71,2.71,0,0,1-.87-.77,1.68,1.68,0,0,1-.31-.95c0-.3.08-.5.26-.59a1.31,1.31,0,0,1,.85,0,1.46,1.46,0,0,0,.47,0,.2.2,0,0,0,.16-.22.7.7,0,0,0-.13-.4,1.17,1.17,0,0,0-.39-.34.46.46,0,0,0-.4-.08c-.1,0-.14.14-.14.31l-.68-.39m21.67,1L6.72,7.15l-3.59,2L3,71.2,43.88,94.84l.19-66.13" transform="translate(-0.01 -3.26)"/><path class="cls-4" d="M2,72.89A2.15,2.15,0,0,1,1,71.2L1.17,7.6A.7.7,0,0,1,1.46,7L5.62,4.59a.68.68,0,0,1,.69.07L45.06,27a2.16,2.16,0,0,1,1,1.7l-.19,68.36c0,.63-.45.88-1,.57L2,72.89m43.11-47L6.32,3.53a1.4,1.4,0,0,0-1.39-.14L.77,5.77A1.33,1.33,0,0,0,.19,7L0,70.63A4.29,4.29,0,0,0,2,74l42.9,24.77c1.08.62,2,.12,2-1.13L47,29.29a4.33,4.33,0,0,0-2-3.39" transform="translate(-0.01 -3.26)"/><path d="M3,71.2l.18-62,3.59-2L44.07,28.71l-.19,66.13L3,71.2M45.06,27,6.31,4.66a.68.68,0,0,0-.69-.07L1.46,7a.7.7,0,0,0-.29.64L1,71.2a2.15,2.15,0,0,0,1,1.69l42.9,24.77c.54.31,1,.06,1-.57L46,28.73a2.16,2.16,0,0,0-1-1.7" transform="translate(-0.01 -3.26)"/><polyline points="39.64 33.29 38.76 32.78 37.91 35.03 37.07 31.81 36.19 31.3 36.18 35.06 36.86 35.46 36.86 34.43 36.79 32.61 37.67 35.93 38.13 36.19 39.03 33.9 38.95 35.64 38.95 36.66 39.63 37.06 39.64 33.29"/><path d="M33.54,35.4,34,34.23l.4,1.64-.82-.47m.73-1.95-.62-.36-1.24,3.06.72.41.23-.64,1.18.69.22.9.72.41-1.21-4.47" transform="translate(-0.01 -3.26)"/><polyline points="31.76 28.74 31.08 28.35 29.76 30.07 29.77 27.59 29.1 27.21 29.09 30.97 29.76 31.36 31.08 29.64 31.07 32.12 31.75 32.51 31.76 28.74"/><path d="M28.2,30l-.68-.4V32c0,.24-.05.4-.15.45s-.25,0-.43-.08a1.12,1.12,0,0,1-.58-1V28.88l-.68-.39V31A2.24,2.24,0,0,0,26,32.14a2.39,2.39,0,0,0,.92.89,1,1,0,0,0,.91.19c.23-.11.34-.37.35-.77V30" transform="translate(-0.01 -3.26)"/><path d="M23.61,27.24A1.34,1.34,0,0,0,23,27a.47.47,0,0,0-.42.17.71.71,0,0,0-.16.51l.68.39c0-.17,0-.27.14-.31a.46.46,0,0,1,.4.08,1.17,1.17,0,0,1,.39.34.7.7,0,0,1,.13.4.2.2,0,0,1-.16.22,1.46,1.46,0,0,1-.47,0,1.31,1.31,0,0,0-.85,0c-.18.09-.26.29-.26.59a1.68,1.68,0,0,0,.31.95,2.71,2.71,0,0,0,.87.77,1.71,1.71,0,0,0,.69.25.61.61,0,0,0,.48-.17.83.83,0,0,0,.16-.54l-.67-.39q0,.62-.66.24a1.08,1.08,0,0,1-.37-.33.67.67,0,0,1-.14-.39c0-.14.05-.23.14-.26a1.26,1.26,0,0,1,.49,0,2.72,2.72,0,0,0,.55.07c.38,0,.56-.22.57-.62a1.43,1.43,0,0,0-.16-.63,2.34,2.34,0,0,0-.42-.62,3.38,3.38,0,0,0-.63-.5" transform="translate(-0.01 -3.26)"/><path d="M20.34,25.36a1.1,1.1,0,0,0-.92-.19.85.85,0,0,0-.4.75l.67.4c0-.24.08-.38.18-.43s.26,0,.47.1a1.21,1.21,0,0,1,.5.57,2.39,2.39,0,0,1,.17,1v.29a1.43,1.43,0,0,1-.16.8c-.11.12-.28.12-.51,0a1.15,1.15,0,0,1-.64-1.05L19,27.16a2.44,2.44,0,0,0,.39,1.19,2.54,2.54,0,0,0,.93.88c.41.24.75.27,1,.09a1.4,1.4,0,0,0,.37-1.14V28a3.46,3.46,0,0,0-.17-1.06,3.14,3.14,0,0,0-.47-.91,2.52,2.52,0,0,0-.72-.63" transform="translate(-0.01 -3.26)"/><path d="M17,25.25a1,1,0,0,1-.39-.38,1,1,0,0,1-.14-.49c0-.18,0-.29.13-.34s.23,0,.4.08l.55.32v1.13L17,25.25m1.23-1.05L17,23.49a1.16,1.16,0,0,0-.9-.22c-.21.07-.32.3-.32.66a1.83,1.83,0,0,0,.15.73,2.33,2.33,0,0,0,.43.66l-.71,1.13v0l.73.42.62-1,.53.31v1.38l.68.39V24.2" transform="translate(-0.01 -3.26)"/><polyline points="14.9 19.01 14.22 18.62 14.21 22.38 14.89 22.77 14.9 19.01"/><path d="M12,22.39a1,1,0,0,1-.4-.38.86.86,0,0,1-.14-.5c0-.18,0-.3.14-.36s.22,0,.39.05l.62.36v1.18l-.6-.35m1.29-1.07L12,20.58a1.43,1.43,0,0,0-.65-.22.52.52,0,0,0-.44.19,1,1,0,0,0-.15.57,1.92,1.92,0,0,0,.33,1.06A2.63,2.63,0,0,0,12,23l.59.34v1.33l.68.39V21.32" transform="translate(-0.01 -3.26)"/><polyline points="10.13 16.26 7.46 14.71 7.46 15.35 8.47 15.93 8.46 19.06 9.13 19.45 9.14 16.31 10.13 16.89 10.13 16.26"/><path d="M25.13,46.19a1,1,0,0,1-.37-.35.76.76,0,0,1-.13-.44c0-.34.15-.43.47-.25l.62.36v1l-.58-.33m.09-1.52a.85.85,0,0,1-.51-.76c0-.17,0-.27.13-.29a.6.6,0,0,1,.41.11l.47.28v1l-.5-.29m1.18-.9-1.15-.66a1.38,1.38,0,0,0-.91-.27c-.2.06-.31.26-.31.6a1.41,1.41,0,0,0,.12.56,1.93,1.93,0,0,0,.35.51.39.39,0,0,0-.4.06A.58.58,0,0,0,24,45a1.76,1.76,0,0,0,.3,1,2.51,2.51,0,0,0,.86.78l1.28.74V43.77" transform="translate(-0.01 -3.26)"/><polyline points="23.51 38.85 22.77 38.42 22.09 39.73 21.41 37.63 20.67 37.21 21.74 40.23 21.74 41.59 22.42 41.99 22.43 40.62 23.51 38.85"/><polyline points="34.55 54.26 32.22 52.92 32.21 53.53 34.54 54.87 34.55 54.26"/><polyline points="31.28 52.38 28.95 51.03 28.95 51.64 31.28 52.99 31.28 52.38"/><polyline points="28.02 50.5 25.69 49.15 25.69 49.76 28.02 51.1 28.02 50.5"/><polyline points="24.76 48.62 22.43 47.27 22.43 47.88 24.76 49.23 24.76 48.62"/><polyline points="21.5 46.73 19.17 45.39 19.17 46 21.5 47.34 21.5 46.73"/><polyline points="18.25 44.85 15.91 43.5 15.91 44.11 18.24 45.46 18.25 44.85"/><polyline points="14.98 42.97 12.65 41.62 12.65 42.23 14.98 43.58 14.98 42.97"/><polyline points="30.2 65 29.45 64.57 28.7 66.98 27.97 63.72 27.22 63.28 28.35 67.71 29.05 68.12 30.2 65"/><polyline points="24.19 59.5 24.09 59.44 24.07 65.24 25.07 65.82 25.08 61.38 26.28 62.5 26.28 61.57 24.19 59.5"/><path d="M22,66.09a.46.46,0,0,0-.41-.06.35.35,0,0,0-.16.35,1,1,0,0,0,.16.53,1.1,1.1,0,0,0,.41.42.4.4,0,0,0,.4,0c.11,0,.16-.16.16-.35a1,1,0,0,0-.16-.53,1.21,1.21,0,0,0-.4-.41" transform="translate(-0.01 -3.26)"/><path d="M19,64.74a1.14,1.14,0,0,1-.53-.63A3.36,3.36,0,0,1,18.34,63V61.62a1.8,1.8,0,0,1,.17-.95c.12-.15.3-.16.54,0a1.21,1.21,0,0,1,.52.61,2.94,2.94,0,0,1,.17,1.08v1.41a1.86,1.86,0,0,1-.17,1c-.12.16-.3.18-.54,0m0-5c-.55-.32-1-.35-1.26-.1a2,2,0,0,0-.46,1.53v1.06a4.77,4.77,0,0,0,.43,2.1A3.19,3.19,0,0,0,19,65.67c.56.32,1,.35,1.27.1a2,2,0,0,0,.45-1.53V63.18a4.62,4.62,0,0,0-.43-2.11,3.16,3.16,0,0,0-1.26-1.35" transform="translate(-0.01 -3.26)"/><path d="M39,43,8.57,25.45c-.36-.21-.66,0-.66.37A1.44,1.44,0,0,0,8.57,27L39,44.53c.35.2.65,0,.65-.37A1.46,1.46,0,0,0,39,43" transform="translate(-0.01 -3.26)"/></g></g></g></g></svg>