<svg xmlns="http://www.w3.org/2000/svg" xmlns:xlink="http://www.w3.org/1999/xlink" viewBox="0 0 63.19 107.98"><defs><style>.cls-1,.cls-3{fill:none;}.cls-2{fill:#9e8db2;}.cls-3{stroke:#fff;stroke-linejoin:round;stroke-width:2px;}.cls-4{isolation:isolate;}.cls-5{clip-path:url(#clip-path);}.cls-6{fill:#fff;}</style><clipPath id="clip-path"><polygon class="cls-1" points="7.63 31.59 7.68 13.66 20.45 21.03 20.4 38.96 7.63 31.59"/></clipPath></defs><title>reviewer-panel</title><g id="Layer_2" data-name="Layer 2"><g id="Layer_3" data-name="Layer 3"><polygon class="cls-2" points="62.18 36.32 1 1 1 71.64 1.01 71.66 62.19 106.98 62.19 36.33 62.18 36.32"/><polygon class="cls-3" points="62.18 36.32 1 1 1 71.64 1.01 71.66 62.19 106.98 62.19 36.33 62.18 36.32"/><g id="Page-1"><g class="cls-4"><g class="cls-5"><path class="cls-6" d="M18.45,34.46l-.07.06.07-.06m.06-.06h0m1.22-1.71v0m.06-.14,0,.06,0-.06m.06-.15,0,.08,0-.08m.08-.19s0,.09-.05.13,0-.09.05-.13m.05-.15,0,.09,0-.09M20,31.9l0,.1,0-.1m.06-.21c0,.06,0,.11-.05.16s0-.1.05-.16m0-.16s0,.1,0,.15,0-.1,0-.15m0-.17,0,.13,0-.13m.05-.2c0,.05,0,.11,0,.16s0-.1,0-.16m0-.18,0,.18,0-.18m0-.17a.68.68,0,0,1,0,.14.68.68,0,0,0,0-.14m0-.19a.68.68,0,0,1,0,.14.68.68,0,0,0,0-.14m0-.21a1.1,1.1,0,0,1,0,.18,1.1,1.1,0,0,0,0-.18m0-.18c0,.05,0,.1,0,.14s0-.09,0-.14m0-.19c0,.05,0,.09,0,.14s0-.09,0-.14m0-.23a1.09,1.09,0,0,0,0,.18,1.09,1.09,0,0,1,0-.18m0-.19c0,.06,0,.11,0,.17s0-.11,0-.17m0-.2v0m0-.24v0m-6.74-6.34c-1-.56-1.77-.11-1.78,1a3.92,3.92,0,0,0,1.77,3.06c1,.56,1.78.11,1.78-1a3.89,3.89,0,0,0-1.77-3.07m-6-5.93v4.9A19.59,19.59,0,0,0,14,35.27a4.5,4.5,0,0,0,4.34-.74,4.5,4.5,0,0,1-4.34.74A19.59,19.59,0,0,1,7.66,21.81v-4.9m6.39,1.77-5.33-.35v4.09A17.32,17.32,0,0,0,14,34a3.84,3.84,0,0,0,3.74-.92L15.38,29a2.68,2.68,0,0,1-1.7-.42A7,7,0,0,1,10.49,23c0-2,1.45-2.84,3.21-1.82a7,7,0,0,1,3.18,5.51,2.55,2.55,0,0,1-.5,1.66l2.14,3.71a7.13,7.13,0,0,0,.84-3.54V24.47l-5.31-5.79"/><path class="cls-6" d="M14,34a17.32,17.32,0,0,1-5.3-11.59V18.33l5.33.35,5.31,5.79v4.09a7.13,7.13,0,0,1-.84,3.54,4.48,4.48,0,0,1-.76,1A3.84,3.84,0,0,1,14,34m.05-16.67-6.4-.43v4.9A19.59,19.59,0,0,0,14,35.27a4.5,4.5,0,0,0,4.34-.74h0l.07-.06.05-.05h0a5.08,5.08,0,0,0,1.21-1.69v0l0-.08,0-.06,0-.07,0-.08,0-.06s0-.09.05-.13l0-.06,0-.09L20,32l0-.1v0c0-.05,0-.1.05-.16h0c0-.05,0-.1,0-.15v0l0-.13v0c0-.05,0-.11,0-.16h0l0-.18v0a.68.68,0,0,0,0-.14v0a.68.68,0,0,0,0-.14v0a1.1,1.1,0,0,0,0-.18v0s0-.09,0-.14v-.05c0-.05,0-.09,0-.14V30a1.09,1.09,0,0,1,0-.18v0c0-.06,0-.11,0-.17V24.29l-6.37-6.95"/></g></g></g></g></g></svg>