<svg xmlns="http://www.w3.org/2000/svg" xmlns:xlink="http://www.w3.org/1999/xlink" viewBox="0 0 52.15 107.49"><defs><style>.cls-1{fill:none;}.cls-2{isolation:isolate;}.cls-3{clip-path:url(#clip-path);}.cls-4{fill:#fff;}</style><clipPath id="clip-path" transform="translate(0 -3.37)"><polygon class="cls-1" points="0.23 111.49 0 29.98 51.93 0 52.16 81.51 0.23 111.49"/></clipPath></defs><title>workflow</title><g id="Layer_2" data-name="Layer 2"><g id="Layer_2-2" data-name="Layer 2"><g class="cls-2"><g class="cls-3"><path class="cls-4" d="M13.67,93.06l-1.12.65A5.94,5.94,0,0,0,12,96.39s0,0,.11,0l.13-.09a6.89,6.89,0,0,0,1.42-3.2m.56-2.51a20.81,20.81,0,0,0-1.34,2.35l1-.55c.13-.58.26-1.18.38-1.8m25.13-16.2a1.91,1.91,0,0,0-.86,1.49c0,.35.15.56.38.61V77.8c0,.31.22.44.49.28a1.05,1.05,0,0,0,.48-.84V75.89a1.79,1.79,0,0,0,.37-1c0-.55-.39-.77-.86-.5m0-5.69a3.47,3.47,0,0,0-1.57,2.73v2.12l3.17-1.82V69.57c0-1-.71-1.41-1.59-.91M17.19,81.31a2.26,2.26,0,0,0-.72,1.15,17,17,0,0,0-.53,2.42,6.21,6.21,0,0,0,.62-1c.8-1.69.85-2.42.75-2.59s0,0-.12,0m11-20.63-4.68,2.7a.54.54,0,0,0-.25.43l0,5.38c0,.16.11.22.25.14l4.68-2.7a.54.54,0,0,0,.25-.43l0-5.38c0-.16-.11-.22-.25-.14m0-10.61-4.68,2.7a.56.56,0,0,0-.25.43l0,5.38c0,.16.11.23.25.15L28.16,56a.56.56,0,0,0,.25-.44l0-5.38c0-.15-.11-.22-.25-.14m0-10.72-4.68,2.7a.56.56,0,0,0-.25.44v5.37c0,.16.12.22.26.14l4.68-2.7a.57.57,0,0,0,.25-.43l0-5.38c0-.15-.11-.22-.25-.14m0-10.73-4.68,2.7a.54.54,0,0,0-.25.43v5.38c0,.15.12.22.26.14l4.68-2.7a.59.59,0,0,0,.25-.43l0-5.38c0-.16-.11-.22-.25-.14M9.79,91.76l.61-1.05a.59.59,0,0,1,.18-.2.19.19,0,0,1,.19,0c.1.06.1.25,0,.44l-.61,1,.61.34c.11.06.11.25,0,.44a.55.55,0,0,1-.18.19.19.19,0,0,1-.19,0l-.6-.35-.61,1a.59.59,0,0,1-.18.2.19.19,0,0,1-.19,0c-.1-.06-.1-.25,0-.43l.6-1-.6-.35c-.11-.06-.11-.25,0-.43A.57.57,0,0,1,9,91.43a.17.17,0,0,1,.18,0l.61.35M36.64,81.42c-.53.3-1,.06-1-.54l0-5.06a2.08,2.08,0,0,1,.95-1.64l.3-.17V71.89a5.33,5.33,0,0,1,2.42-4.21c1.34-.78,2.44-.14,2.44,1.4V71.2l.3-.18c.53-.3.95,0,.95.55l0,5.05a2.06,2.06,0,0,1-1,1.63l-5.47,3.17M12.43,89.29c-.22.13-.4,0-.4-.22a.91.91,0,0,1,.39-.69A13.7,13.7,0,0,0,15,86a25.7,25.7,0,0,1,.74-3.52,3.88,3.88,0,0,1,1.43-2.06c.35-.2.67-.17.83.1s.31,1.19-.82,3.59a11.66,11.66,0,0,1-1.49,2.12c0,.14,0,.28-.07.43-.05.35-.12.71-.17,1.08a10.3,10.3,0,0,1,.75-.87,4.23,4.23,0,0,1,.8-.67c.23-.13.46-.2.64-.07s.24.35.22.74a9.56,9.56,0,0,1,.66-1.1,3.42,3.42,0,0,1,.95-1,.66.66,0,0,1,.55-.11c.45.15.51,1,.16,2.26a.88.88,0,0,1-.37.5l-.14.06c-.21,0-.31-.18-.23-.46.26-1,.18-1.34.1-1.36s0,0-.07,0a2.24,2.24,0,0,0-.5.54,26.5,26.5,0,0,0-1.33,2.44c-.41.82-.6,1.2-.81,1.32a.28.28,0,0,1-.22,0c-.21,0-.24-.27-.09-.7.66-1.91.54-2.26.53-2.29l0,0a2.92,2.92,0,0,0-.53.46,17.08,17.08,0,0,0-1.28,1.56c-.17,1-.35,1.89-.55,2.78l6.47-3.74a.17.17,0,0,1,.27.15.57.57,0,0,1-.27.46l-6.64,3.83c-.52,2.07-1.18,3.76-2.11,4.5a2.79,2.79,0,0,1-.28.19c-.4.23-.63.16-.75,0-.45-.45,0-2.09.3-3.08L9,95.75c-.15.08-.26,0-.26-.16A.56.56,0,0,1,9,95.14l2.92-1.69A24,24,0,0,1,14.52,89c.1-.62.21-1.22.3-1.77a13.25,13.25,0,0,1-2.39,2.08M22.05,72c-.23.13-.4,0-.41-.23l0-8.74a.91.91,0,0,1,.4-.71L29.63,58a.25.25,0,0,1,.41.23l0,8.75a.91.91,0,0,1-.41.7L22.05,72m-7.51.76c-.43.25-.78,0-.78-.44l0-10.91a1.74,1.74,0,0,1,.78-1.35l5.56-3.21c.44-.25.78,0,.79.44a1.72,1.72,0,0,1-.78,1.35l-4.79,2.76,0,9.12L18,69v-.58a1.72,1.72,0,0,1,.59-1.19.49.49,0,0,1,.14-.11.09.09,0,0,1,.07,0l.24-.1h.16l.08,0h.05l1.28.73.06,0,0,.06h0l0,0a.34.34,0,0,1,.09.2v.27l0,.14v.08a.68.68,0,0,1-.11.3l0,.07-.05.09-.3.53-.18.31-.26.44-.54.93a1.55,1.55,0,0,1-.55.58c-.4.23-.78.1-.78-.44v-.58l-3.51,2M22,61.43c-.23.13-.4,0-.41-.23l0-8.74a.9.9,0,0,1,.4-.7l7.61-4.4c.22-.12.41,0,.41.23l0,8.75a.91.91,0,0,1-.41.7L22,61.43M31.12,44c-.43.25-.78.05-.78-.45a1.71,1.71,0,0,1,.77-1.34L36.68,39c.43-.24.78,0,.78.45l0,8.16A1.72,1.72,0,0,1,36.71,49l-3.5,2v.59A1.72,1.72,0,0,1,32.42,53a.53.53,0,0,1-.54,0l-.1,0-.55-.31-.54-.31-.1-.06-.05,0,0,0a.29.29,0,0,1-.11-.18V52l0-.13v-.3a.63.63,0,0,1,.1-.29l0-.06,0-.08,0-.1,1.29-2.21,0-.06.09-.12.16-.19.23-.18.16-.08c.37-.12.58,0,.64.44v.62l2.73-1.57,0-6.38L31.12,44m1.27-3.52a.54.54,0,0,1-.54.06l-.11-.06-.54-.31-.55-.31-.1,0,0,0-.05-.06,0,0a.33.33,0,0,1-.08-.21v-.25l0-.14V39a.89.89,0,0,1,.11-.3l0-.06.05-.1,1.28-2.22,0,0,.09-.13.16-.19.24-.18h0l.15-.09c.38-.11.59,0,.65.44v.65l6.34-3.67c.43-.25.78,0,.78.45L40.36,57a1.74,1.74,0,0,1-.78,1.35L31.17,63.2c-.43.25-.78,0-.78-.45a1.72,1.72,0,0,1,.78-1.34L38.8,57l-.06-21.61-5.57,3.22v.56a1.71,1.71,0,0,1-.78,1.35M22,50.71c-.23.13-.41,0-.41-.23l0-8.74A.9.9,0,0,1,22,41l7.61-4.4c.22-.13.41,0,.41.24l0,8.74a.91.91,0,0,1-.41.7L22,50.71m-7.51.34c-.43.25-.78.05-.78-.45l0-10.9a1.71,1.71,0,0,1,.77-1.34L20,35.14c.44-.25.78,0,.78.45A1.71,1.71,0,0,1,20,36.93L15.23,39.7l0,9.12L18,47.24v-.58a1.7,1.7,0,0,1,.59-1.19l.13-.11.07,0,.25-.1h.16l.08,0h0l1.28.73.05,0,.05.05h0l0,0a.26.26,0,0,1,.08.2v.26l0,.15v.08a.79.79,0,0,1-.11.29l0,.07,0,.1-.36.62-.12.21c-.12.19-.2.35-.41.7l-.39.68a1.63,1.63,0,0,1-.55.58c-.4.23-.78.09-.78-.45V49l-3.51,2M22,40c-.23.13-.41,0-.41-.24l0-8.74a.9.9,0,0,1,.4-.7l7.61-4.39c.22-.13.41,0,.41.23l0,8.74a.92.92,0,0,1-.41.71L22,40M45.47,6.18,2.14,31.2l.22,76.61L50,80.29l-.2-71.63L45.47,6.18" transform="translate(0 -3.37)"/><path class="cls-4" d="M1.65,109.86c-.39.22-.71,0-.71-.41L.71,31.21A1.57,1.57,0,0,1,1.42,30L45.76,4.38a.51.51,0,0,1,.51,0L51,7a.49.49,0,0,1,.21.46l.2,72.79a1.53,1.53,0,0,1-.7,1.22L1.65,109.86M45.76,3.56,1.42,29.16A3.14,3.14,0,0,0,0,31.62l.23,78.24c0,.9.64,1.26,1.42.81L50.74,82.33a3.09,3.09,0,0,0,1.41-2.45L52,7.09a1,1,0,0,0-.42-.91L46.76,3.47a1,1,0,0,0-1,.09" transform="translate(0 -3.37)"/><path d="M2.36,107.81,2.14,31.2l43.33-25,4.35,2.48L50,80.29,2.36,107.81M45.76,4.38,1.42,30a1.57,1.57,0,0,0-.71,1.23l.23,78.24c0,.45.32.63.71.41L50.74,81.51a1.53,1.53,0,0,0,.7-1.22L51.24,7.5A.49.49,0,0,0,51,7L46.27,4.33a.51.51,0,0,0-.51,0" transform="translate(0 -3.37)"/><path d="M12.12,96.35c-.07,0-.11.05-.11,0a5.94,5.94,0,0,1,.54-2.68l1.12-.65a6.89,6.89,0,0,1-1.42,3.2l-.13.09m.77-3.45a20.81,20.81,0,0,1,1.34-2.35c-.12.62-.25,1.22-.38,1.8l-1,.55m3-8a17,17,0,0,1,.53-2.42,2.26,2.26,0,0,1,.72-1.15c.08,0,.1,0,.12,0s.05.9-.75,2.59a6.21,6.21,0,0,1-.62,1m1.25-4.48a3.88,3.88,0,0,0-1.43,2.06A25.7,25.7,0,0,0,15,86a13.7,13.7,0,0,1-2.6,2.4.91.91,0,0,0-.39.69c0,.25.18.35.4.22a13.25,13.25,0,0,0,2.39-2.08c-.09.55-.2,1.15-.3,1.77a24,24,0,0,0-2.59,4.47L9,95.14a.56.56,0,0,0-.26.45c0,.17.11.24.26.16l2.66-1.54c-.32,1-.75,2.63-.3,3.08.12.13.35.2.75,0a2.79,2.79,0,0,0,.28-.19c.93-.74,1.59-2.43,2.11-4.5l6.64-3.83a.57.57,0,0,0,.27-.46.17.17,0,0,0-.27-.15l-6.47,3.74c.2-.89.38-1.83.55-2.78a17.08,17.08,0,0,1,1.28-1.56,2.92,2.92,0,0,1,.53-.46l0,0s.13.38-.53,2.29c-.15.43-.12.67.09.7a.28.28,0,0,0,.22,0c.21-.12.4-.5.81-1.32A26.5,26.5,0,0,1,19,86.25a2.24,2.24,0,0,1,.5-.54s.06,0,.07,0,.16.4-.1,1.36c-.08.28,0,.49.23.46l.14-.06a.88.88,0,0,0,.37-.5c.35-1.29.29-2.11-.16-2.26a.66.66,0,0,0-.55.11,3.42,3.42,0,0,0-.95,1,9.56,9.56,0,0,0-.66,1.1c0-.39-.05-.63-.22-.74s-.41-.06-.64.07a4.23,4.23,0,0,0-.8.67,10.3,10.3,0,0,0-.75.87c0-.37.12-.73.17-1.08,0-.15,0-.29.07-.43a11.66,11.66,0,0,0,1.49-2.12c1.13-2.4,1-3.28.82-3.59s-.48-.3-.83-.1" transform="translate(0 -3.37)"/><path d="M10.58,90.51a.59.59,0,0,0-.18.2l-.61,1.05-.61-.35a.17.17,0,0,0-.18,0,.57.57,0,0,0-.19.19c-.1.18-.1.37,0,.43l.6.35-.6,1c-.1.18-.1.37,0,.43a.19.19,0,0,0,.19,0,.59.59,0,0,0,.18-.2l.61-1,.6.35a.19.19,0,0,0,.19,0,.55.55,0,0,0,.18-.19c.11-.19.11-.38,0-.44L10.16,92l.61-1c.1-.19.1-.38,0-.44a.19.19,0,0,0-.19,0" transform="translate(0 -3.37)"/><path d="M39.37,78.08c-.27.16-.49,0-.49-.28V76.45c-.23,0-.38-.26-.38-.61a1.91,1.91,0,0,1,.86-1.49c.47-.27.86,0,.86.5a1.79,1.79,0,0,1-.37,1v1.35a1.05,1.05,0,0,1-.48.84m-1.6-4.57V71.39a3.47,3.47,0,0,1,1.57-2.73c.88-.5,1.59-.1,1.59.91v2.12l-3.17,1.82m1.57-5.83a5.33,5.33,0,0,0-2.42,4.21V74l-.3.17a2.08,2.08,0,0,0-.95,1.64l0,5.06c0,.6.42.84,1,.54l5.47-3.17a2.06,2.06,0,0,0,1-1.63l0-5.05c0-.6-.42-.85-.95-.55l-.3.18V69.08c0-1.54-1.1-2.18-2.44-1.4" transform="translate(0 -3.37)"/><path d="M23.51,69.33c-.14.08-.25,0-.25-.14l0-5.38a.54.54,0,0,1,.25-.43l4.68-2.7c.14-.08.25,0,.25.14l0,5.38a.54.54,0,0,1-.25.43l-4.68,2.7M29.63,58,22,62.36a.91.91,0,0,0-.4.71l0,8.74c0,.26.18.36.41.23l7.61-4.39a.91.91,0,0,0,.41-.7l0-8.75a.25.25,0,0,0-.41-.23" transform="translate(0 -3.37)"/><path d="M20.35,68.56h0m-.28-11.67L14.51,60.1a1.74,1.74,0,0,0-.78,1.35l0,10.91c0,.49.35.69.78.44l3.51-2v.58c0,.54.38.67.78.44a1.55,1.55,0,0,0,.55-.58l.54-.93.26-.44.18-.31.3-.53.05-.09,0-.07a.68.68,0,0,0,.11-.3v-.08l0-.14v-.27a.34.34,0,0,0-.09-.2l0,0h0l0-.06-.06,0L19.37,67h-.05l-.08,0h-.16l-.24.1a.09.09,0,0,0-.07,0,.49.49,0,0,0-.14.11A1.72,1.72,0,0,0,18,68.41V69l-2.72,1.57,0-9.12,4.79-2.76a1.72,1.72,0,0,0,.78-1.35c0-.49-.35-.69-.79-.44" transform="translate(0 -3.37)"/><path d="M32.36,35.81l-.24.18-.16.19-.09.13,0,0-1.28,2.22-.05.1,0,.06a.89.89,0,0,0-.11.3v.08l0,.14v.25a.33.33,0,0,0,.08.21l0,0,.05.06,0,0,.1,0,.55.31.54.31.11.06a.54.54,0,0,0,.54-.06,1.71,1.71,0,0,0,.78-1.35v-.56l5.57-3.22L38.8,57l-7.63,4.41a1.72,1.72,0,0,0-.78,1.34c0,.5.35.7.78.45l8.41-4.85A1.74,1.74,0,0,0,40.36,57l-.07-23.4c0-.49-.35-.7-.78-.45l-6.34,3.67v-.65c-.06-.4-.27-.55-.65-.44l-.15.09h0" transform="translate(0 -3.37)"/><path d="M23.48,58.73c-.14.08-.25,0-.25-.15l0-5.38a.56.56,0,0,1,.25-.43l4.68-2.7c.14-.08.25,0,.25.14l0,5.38a.56.56,0,0,1-.25.44l-4.68,2.7M29.6,47.36,22,51.76a.9.9,0,0,0-.4.7l0,8.74c0,.26.18.36.41.23L29.63,57a.91.91,0,0,0,.41-.7l0-8.75c0-.25-.19-.35-.41-.23" transform="translate(0 -3.37)"/><path d="M36.68,39l-5.57,3.22a1.71,1.71,0,0,0-.77,1.34c0,.5.35.7.78.45l4.79-2.77,0,6.38L33.2,49.22V48.6c-.06-.4-.27-.56-.64-.44l-.16.08-.23.18-.16.19-.09.12,0,.06L30.58,51l0,.1,0,.08,0,.06a.63.63,0,0,0-.1.29v.3l0,.13V52a.29.29,0,0,0,.11.18l0,0,.05,0,.1.06.54.31.55.31.1,0a.53.53,0,0,0,.54,0,1.72,1.72,0,0,0,.79-1.35V51l3.5-2a1.72,1.72,0,0,0,.78-1.35l0-8.16c0-.49-.35-.69-.78-.45" transform="translate(0 -3.37)"/><path d="M23.45,48c-.14.08-.25,0-.26-.14V42.49a.56.56,0,0,1,.25-.44l4.68-2.7c.14-.08.25,0,.25.14l0,5.38a.57.57,0,0,1-.25.43L23.45,48m6.12-11.36L22,41a.9.9,0,0,0-.4.7l0,8.74c0,.26.18.36.41.23l7.61-4.39a.91.91,0,0,0,.41-.7l0-8.74c0-.26-.19-.37-.41-.24" transform="translate(0 -3.37)"/><path d="M20,35.14l-5.57,3.22a1.71,1.71,0,0,0-.77,1.34l0,10.9c0,.5.35.7.78.45L18,49v.58c0,.54.38.68.78.45a1.63,1.63,0,0,0,.55-.58l.39-.68c.21-.35.29-.51.41-.7l.12-.21.36-.62,0-.1,0-.07a.79.79,0,0,0,.11-.29v-.08l0-.15v-.26a.26.26,0,0,0-.08-.2l0,0h0L20.64,46l-.05,0-1.28-.73h0l-.08,0H19l-.25.1-.07,0-.13.11A1.7,1.7,0,0,0,18,46.66v.58l-2.73,1.58,0-9.12L20,36.93a1.71,1.71,0,0,0,.77-1.34c0-.5-.34-.7-.78-.45" transform="translate(0 -3.37)"/><path d="M23.42,37.27c-.14.08-.26,0-.26-.14V31.75a.54.54,0,0,1,.25-.43l4.68-2.7c.14-.08.25,0,.25.14l0,5.38a.59.59,0,0,1-.25.43l-4.68,2.7m6.12-11.36L21.93,30.3a.9.9,0,0,0-.4.7l0,8.74c0,.26.18.37.41.24l7.61-4.39a.92.92,0,0,0,.41-.71l0-8.74c0-.26-.19-.36-.41-.23" transform="translate(0 -3.37)"/></g></g></g></g></svg>