<svg xmlns="http://www.w3.org/2000/svg" x="0px" y="0px" viewBox="0 0 300 72">
	<rect fill="#999999" width="300" height="72"/>
	<g fill='#fff'>
		<path d="M38.8,50.2c-2.2,2.2-5.3,3.2-8.8,3.2H18V19.2h12c3.6,0,6.7,1.1,8.8,3.2c3.7,3.7,3.5,8.7,3.5,13.6
			S42.5,46.5,38.8,50.2z M35.3,26.2c-1.4-1.6-3.4-2.3-5.8-2.3h-6.3v24.9h6.3c2.4,0,4.4-0.7,5.8-2.3c1.8-2,1.8-5.7,1.8-10.4
			S37.1,28.1,35.3,26.2z"/>
		<path d="M69.8,50c-2.4,2.4-5.4,3.6-9,3.6s-6.6-1.3-9-3.6c-3.4-3.4-3.3-7.2-3.3-13.7c0-6.6,0-10.4,3.3-13.7
			c2.4-2.4,5.3-3.6,9-3.6s6.7,1.3,9,3.6c3.4,3.4,3.3,7.2,3.3,13.7C73,42.9,73.1,46.7,69.8,50z M65.8,25.7c-1.2-1.3-3.1-2.1-5.1-2.1
			c-2,0-3.9,0.8-5.1,2.1c-1.7,1.8-2,3.7-2,10.6c0,6.9,0.3,8.8,2,10.6c1.2,1.3,3.1,2.1,5.1,2.1c2,0,3.9-0.8,5.1-2.1
			c1.7-1.8,2-3.7,2-10.6C67.8,29.4,67.5,27.5,65.8,25.7z"/>
		<path d="M90.8,53.7c-3.6,0-6.6-1.3-9-3.6c-3.4-3.4-3.3-7.2-3.3-13.7c0-6.6,0-10.4,3.3-13.7c2.4-2.4,5.4-3.6,9-3.6
			c6.3,0,11,3.7,12.2,10.5h-5.3c-0.8-3.5-3.1-5.9-6.9-5.9c-2,0-3.8,0.8-5,2.1c-1.7,1.8-2.1,3.8-2.1,10.7c0,6.9,0.4,8.8,2.1,10.7
			c1.2,1.3,3,2.1,5,2.1c3.8,0,6.1-2.4,7-5.9h5.2C101.8,50,97,53.7,90.8,53.7z"/>
		<path d="M282.3,40l-7.4,13H269l10.5-17.4L269.7,19h5.9l6.7,12.2l2.7,4.4L282.3,40z M285,35.6"/>
		<path d="M147.8,35.7c-2.4,0-4-0.5-5.5-2.1l1.6-1.6c1.1,1.1,2.4,1.5,4,1.5c2,0,3.2-0.9,3.2-2.4
			c0-0.7-0.2-1.3-0.6-1.6c-0.4-0.4-0.8-0.5-1.7-0.7l-1.8-0.3c-1.3-0.2-2.3-0.6-3-1.3c-0.8-0.7-1.1-1.7-1.1-3c0-2.7,2-4.6,5.2-4.6
			c2.1,0,3.5,0.5,4.9,1.8l-1.5,1.5c-1-0.9-2.1-1.2-3.4-1.2c-1.8,0-2.9,1.1-2.9,2.4c0,0.6,0.2,1.1,0.6,1.5c0.4,0.4,1,0.6,1.8,0.7
			l1.8,0.3c1.5,0.2,2.3,0.6,2.9,1.2c0.9,0.7,1.3,1.9,1.3,3.2C153.4,34,151.1,35.7,147.8,35.7z"/>
		<path d="M163.3,22.1v13.5h-2.4V22.1h-4.3v-2.1h11v2.1H163.3z"/>
		<path d="M179.7,35.6l-1.1-3.1h-6.2l-1.1,3.1h-2.5l5.7-15.7h1.9l5.7,15.7H179.7z M175.6,23.5l-2.4,7h4.8L175.6,23.5z
			"/>
		<path d="M195.4,35.6l-7.2-11v11h-2.4V19.9h2.2l7.2,11v-11h2.4v15.7H195.4z"/>
		<path d="M212.5,34.1c-1,1-2.4,1.5-4,1.5H203V19.9h5.5c1.6,0,3.1,0.5,4,1.5c1.7,1.7,1.6,4,1.6,6.2
			C214.1,29.9,214.2,32.4,212.5,34.1z M210.9,23.1c-0.7-0.7-1.5-1.1-2.7-1.1h-2.9v11.4h2.9c1.1,0,2-0.3,2.7-1.1
			c0.8-0.9,0.8-2.6,0.8-4.8C211.7,25.5,211.7,24,210.9,23.1z"/>
		<path d="M227.7,35.6l-1.1-3.1h-6.2l-1.1,3.1h-2.5l5.7-15.7h1.9l5.7,15.7H227.7z M223.6,23.5l-2.4,7h4.8L223.6,23.5z
			"/>
		<path d="M242.4,35.6l-3.3-6.6h-3v6.6h-2.4V19.9h6.1c3,0,4.9,1.9,4.9,4.6c0,2.2-1.4,3.7-3.1,4.2l3.6,6.9H242.4z
			 M239.7,22.1h-3.5V27h3.5c1.6,0,2.7-0.9,2.7-2.4S241.3,22.1,239.7,22.1z"/>
		<path d="M259.1,34.1c-1,1-2.4,1.5-4,1.5h-5.5V19.9h5.5c1.6,0,3.1,0.5,4,1.5c1.7,1.7,1.6,4,1.6,6.2
			C260.7,29.9,260.8,32.4,259.1,34.1z M257.4,23.1c-0.7-0.7-1.5-1.1-2.7-1.1h-2.9v11.4h2.9c1.1,0,2-0.3,2.7-1.1
			c0.8-0.9,0.8-2.6,0.8-4.8C258.3,25.5,258.3,24,257.4,23.1z"/>
		<path d="M145.6,52.7c-1.5,0-2.6-0.3-3.5-1.3l1-1c0.7,0.7,1.5,1,2.5,1c1.3,0,2.1-0.6,2.1-1.5c0-0.4-0.1-0.8-0.4-1
			c-0.3-0.2-0.5-0.3-1.1-0.4l-1.2-0.2c-0.8-0.1-1.5-0.4-1.9-0.8c-0.5-0.5-0.7-1.1-0.7-1.9c0-1.7,1.3-2.9,3.3-2.9
			c1.3,0,2.2,0.3,3.1,1.1l-1,1c-0.6-0.6-1.3-0.8-2.2-0.8c-1.2,0-1.8,0.7-1.8,1.6c0,0.4,0.1,0.7,0.4,0.9c0.3,0.2,0.7,0.4,1.1,0.5
			l1.1,0.2c0.9,0.1,1.4,0.4,1.9,0.7c0.5,0.5,0.8,1.2,0.8,2C149.1,51.6,147.6,52.7,145.6,52.7z"/>
		<path d="M154.5,52.7c-1,0-1.9-0.4-2.6-1.1c-1-1-1-2.1-1-4s0-3,1-4c0.7-0.7,1.6-1.1,2.6-1.1c1.8,0,3.2,1.1,3.6,3.1
			h-1.5c-0.2-1-0.9-1.7-2-1.7c-0.6,0-1.1,0.2-1.5,0.6c-0.5,0.5-0.6,1.1-0.6,3.1s0.1,2.6,0.6,3.1c0.3,0.4,0.9,0.6,1.5,0.6
			c1.1,0,1.8-0.7,2-1.7h1.5C157.8,51.6,156.4,52.7,154.5,52.7z"/>
		<path d="M160.3,52.6v-10h1.5v10H160.3z"/>
		<path d="M164.5,52.6v-10h6.4V44h-4.9v2.9h4.1v1.3h-4.1v3h4.9v1.4H164.5z"/>
		<path d="M179.3,52.6l-4.6-7v7h-1.5v-10h1.4l4.6,7v-7h1.5v10H179.3z"/>
		<path d="M186.8,44v8.6h-1.5V44h-2.7v-1.4h7V44H186.8z"/>
		<path d="M191.4,52.6v-10h1.5v10H191.4z"/>
		<path d="M197.2,44v3h4.1v1.4h-4.1v4.2h-1.5v-10h6.4V44H197.2z"/>
		<path d="M204,52.6v-10h1.5v10H204z"/>
		<path d="M211.5,52.7c-1,0-1.9-0.4-2.6-1.1c-1-1-1-2.1-1-4s0-3,1-4c0.7-0.7,1.6-1.1,2.6-1.1c1.8,0,3.2,1.1,3.6,3.1
			h-1.5c-0.2-1-0.9-1.7-2-1.7c-0.6,0-1.1,0.2-1.5,0.6c-0.5,0.5-0.6,1.1-0.6,3.1s0.1,2.6,0.6,3.1c0.3,0.4,0.9,0.6,1.5,0.6
			c1.1,0,1.8-0.7,2-1.7h1.5C214.7,51.6,213.3,52.7,211.5,52.7z"/>
		<path d="M224.4,52.7c-1.5,0-2.6-0.3-3.5-1.3l1-1c0.7,0.7,1.5,1,2.5,1c1.3,0,2.1-0.6,2.1-1.5c0-0.4-0.1-0.8-0.4-1
			c-0.3-0.2-0.5-0.3-1.1-0.4l-1.2-0.2c-0.8-0.1-1.5-0.4-1.9-0.8c-0.5-0.5-0.7-1.1-0.7-1.9c0-1.7,1.3-2.9,3.3-2.9
			c1.3,0,2.2,0.3,3.1,1.1l-1,1c-0.6-0.6-1.3-0.8-2.2-0.8c-1.2,0-1.8,0.7-1.8,1.6c0,0.4,0.1,0.7,0.4,0.9c0.3,0.2,0.7,0.4,1.1,0.5
			l1.1,0.2c0.9,0.1,1.4,0.4,1.9,0.7c0.5,0.5,0.8,1.2,0.8,2C228,51.6,226.5,52.7,224.4,52.7z"/>
		<path d="M233.5,44v8.6H232V44h-2.7v-1.4h7V44H233.5z"/>
		<path d="M241.4,48.5v4.1h-1.5v-4.1l-3-5.9h1.7l2.1,4.4l2.1-4.4h1.7L241.4,48.5z"/>
		<path d="M245.9,52.6v-10h1.5v8.6h4.8v1.4H245.9z"/>
		<path d="M254.1,52.6v-10h6.4V44h-4.9v2.9h4.1v1.3h-4.1v3h4.9v1.4H254.1z"/>
		<polygon points="113.6,39.5 105.4,53 111.4,53 116.5,44"/>
		<polygon points="116.5,27.2 112,19 106.1,19 113.7,31.8"/>
		<polygon points="121.6,35.6 131.5,19 125.5,19 122.8,24 116,35.9 116,35.9 116,35.9 118.7,40.3 126.2,53 132.2,53"/>
	</g>
</svg>
