<svg id="Layer_1" data-name="Layer 1" xmlns="http://www.w3.org/2000/svg" viewBox="0 0 22 22"><defs><style>.cls-1{fill:#b13d95;}.cls-2{fill:#fff;}</style></defs><title>Artboard 1</title><path class="cls-1" d="M10,19.32l.43.33a.94.94,0,0,0,1.16,0l.43-.33c4.62-3.5,9-6.81,9-11.43a5.73,5.73,0,0,0-1-3.25,5.84,5.84,0,0,0-2.67-2.11A5.75,5.75,0,0,0,11,4.05,5.75,5.75,0,0,0,4.68,2.53,5.84,5.84,0,0,0,2,4.64,5.73,5.73,0,0,0,1,7.89C1,12.51,5.37,15.82,10,19.32Z"/><path class="cls-2" d="M11.13,9.87C10,9.57,9.61,9.26,9.61,8.78s.51-.93,1.36-.93,1.24.43,1.27,1.06h1.11A2,2,0,0,0,11.73,7V5.88H10.22V7A2,2,0,0,0,8.45,8.79c0,1.17,1,1.75,2.37,2.09s1.52.74,1.52,1.21S12.09,13,11,13s-1.45-.47-1.5-1.06H8.36a2.12,2.12,0,0,0,1.86,1.93V15h1.51V13.88c1-.18,1.77-.76,1.77-1.79C13.5,10.65,12.27,10.16,11.13,9.87Z"/></svg>