<?xml version="1.0" encoding="utf-8"?>
<!-- Generator: Adobe Illustrator 18.1.1, SVG Export Plug-In . SVG Version: 6.00 Build 0)  -->
<svg version="1.1" id="Layer_1" xmlns="http://www.w3.org/2000/svg" xmlns:xlink="http://www.w3.org/1999/xlink" x="0px" y="0px"
	 viewBox="0 0 100 100" enable-background="new 0 0 100 100" xml:space="preserve">
<g>
	<g>
		<g>
			<polygon fill="none" stroke="#FFFFFF" stroke-miterlimit="10" points="25.5,35.9 50.5,21.4 75.5,35.9 75.5,65 50.5,79.5 25.5,65 
							"/>
			<line fill="none" stroke="#FFFFFF" stroke-miterlimit="10" x1="25.5" y1="35.9" x2="50.5" y2="50.4"/>
			<line fill="none" stroke="#FFFFFF" stroke-miterlimit="10" x1="50.5" y1="50.4" x2="75.5" y2="35.9"/>
			<line fill="none" stroke="#FFFFFF" stroke-miterlimit="10" x1="50.5" y1="50" x2="50.5" y2="80"/>
		</g>
	</g>
	<g>
		<line fill="none" stroke="#FFFFFF" stroke-miterlimit="10" x1="50.5" y1="21" x2="50.5" y2="36"/>
		<line fill="none" stroke="#FFFFFF" stroke-miterlimit="10" x1="38.1" y1="43.2" x2="50.5" y2="35.9"/>
		<line fill="none" stroke="#FFFFFF" stroke-miterlimit="10" x1="50.5" y1="35.9" x2="63" y2="43"/>
	</g>
	<g>
		<line fill="none" stroke="#FFFFFF" stroke-miterlimit="10" x1="38.5" y1="43" x2="38.5" y2="58"/>
		<line fill="none" stroke="#FFFFFF" stroke-miterlimit="10" x1="25.7" y1="65.2" x2="38.1" y2="57.9"/>
		<line fill="none" stroke="#FFFFFF" stroke-miterlimit="10" x1="38.1" y1="57.9" x2="50.7" y2="65.1"/>
	</g>
	<g>
		<line fill="none" stroke="#FFFFFF" stroke-miterlimit="10" x1="63.5" y1="43" x2="63.5" y2="58"/>
		<line fill="none" stroke="#FFFFFF" stroke-miterlimit="10" x1="50.6" y1="65.2" x2="63" y2="57.9"/>
		<line fill="none" stroke="#FFFFFF" stroke-miterlimit="10" x1="63" y1="57.9" x2="75.5" y2="65.1"/>
	</g>
</g>
</svg>
