<?xml version="1.0" encoding="utf-8"?>
<!-- Generator: Adobe Illustrator 18.1.1, SVG Export Plug-In . SVG Version: 6.00 Build 0)  -->
<svg version="1.1" id="Layer_1" xmlns="http://www.w3.org/2000/svg" xmlns:xlink="http://www.w3.org/1999/xlink" x="0px" y="0px"
	 viewBox="0 0 100 100" enable-background="new 0 0 100 100" xml:space="preserve">
<g>
	<g opacity="0.2">
		<g>
			<polygon fill="none" stroke="#262625" stroke-miterlimit="10" points="37.5,57.6 50,50.4 62.5,57.6 62.5,72.2 50,79.5 37.5,72.2 
							"/>
			<line fill="none" stroke="#262625" stroke-miterlimit="10" x1="37.4" y1="57.6" x2="49.9" y2="64.9"/>
			<line fill="none" stroke="#262625" stroke-miterlimit="10" x1="49.9" y1="64.9" x2="62.4" y2="57.6"/>
			<line fill="none" stroke="#262625" stroke-miterlimit="10" x1="50.5" y1="65" x2="50.5" y2="79"/>
		</g>
		<g>
			<polygon fill="none" stroke="#262625" stroke-miterlimit="10" points="37.5,43.1 50,35.8 62.5,43.1 62.5,57.6 50,64.9 37.5,57.6 
							"/>
			<line fill="none" stroke="#262625" stroke-miterlimit="10" x1="37.6" y1="43.1" x2="50.1" y2="50.3"/>
			<line fill="none" stroke="#262625" stroke-miterlimit="10" x1="50.1" y1="50.3" x2="62.6" y2="43.1"/>
			<line fill="none" stroke="#262625" stroke-miterlimit="10" x1="50.5" y1="50" x2="50.5" y2="65"/>
		</g>
		<g>
			<polygon fill="none" stroke="#262625" stroke-miterlimit="10" points="25.5,35.8 38,28.6 50.5,35.8 50.5,50.4 38,57.7 25.5,50.4 
							"/>
			<line fill="none" stroke="#262625" stroke-miterlimit="10" x1="25" y1="35.8" x2="37.6" y2="43.1"/>
			<line fill="none" stroke="#262625" stroke-miterlimit="10" x1="37.6" y1="43.1" x2="50.1" y2="35.8"/>
			<line fill="none" stroke="#262625" stroke-miterlimit="10" x1="37.5" y1="43" x2="37.5" y2="58"/>
		</g>
		<g>
			<polygon fill="none" stroke="#262625" stroke-miterlimit="10" points="25.5,50.4 38,43.2 50.5,50.4 50.5,65 38,72.3 25.5,65 			
				"/>
			<line fill="none" stroke="#262625" stroke-miterlimit="10" x1="25" y1="50.4" x2="37.6" y2="57.7"/>
			<line fill="none" stroke="#262625" stroke-miterlimit="10" x1="37.6" y1="57.7" x2="50.1" y2="50.4"/>
			<line fill="none" stroke="#262625" stroke-miterlimit="10" x1="37.5" y1="58" x2="37.5" y2="72"/>
			<line fill="none" stroke="#262625" stroke-miterlimit="10" x1="25.1" y1="65" x2="37.6" y2="57.7"/>
		</g>
		<line fill="none" stroke="#262625" stroke-miterlimit="10" x1="62.4" y1="72.2" x2="49.9" y2="64.9"/>
		<line fill="none" stroke="#262625" stroke-miterlimit="10" x1="37.5" y1="29" x2="37.5" y2="43"/>
	</g>
	<g opacity="0.2">
		<g>
			<polygon fill="none" stroke="#262625" stroke-miterlimit="10" points="50.5,50.3 62.5,43.1 74.5,50.3 74.5,64.9 62.5,72.2 
				50.5,64.9 			"/>
			<line fill="none" stroke="#262625" stroke-miterlimit="10" x1="49.8" y1="50.3" x2="62.3" y2="57.6"/>
			<line fill="none" stroke="#262625" stroke-miterlimit="10" x1="62.3" y1="57.6" x2="74.9" y2="50.3"/>
			<line fill="none" stroke="#262625" stroke-miterlimit="10" x1="62.5" y1="58" x2="62.5" y2="72"/>
		</g>
		<g>
			<polygon fill="none" stroke="#262625" stroke-miterlimit="10" points="50.5,35.8 62.5,28.5 74.5,35.8 74.5,50.3 62.5,57.6 
				50.5,50.3 			"/>
			<line fill="none" stroke="#262625" stroke-miterlimit="10" x1="50" y1="35.8" x2="62.5" y2="43"/>
			<line fill="none" stroke="#262625" stroke-miterlimit="10" x1="62.5" y1="43" x2="74.6" y2="36"/>
			<line fill="none" stroke="#262625" stroke-miterlimit="10" x1="62.5" y1="43" x2="62.5" y2="58"/>
		</g>
		<g>
			<polygon fill="none" stroke="#262625" stroke-miterlimit="10" points="37.5,28.6 50,21.3 62.5,28.6 62.5,43.1 50,50.4 37.5,43.1 
							"/>
			<line fill="none" stroke="#262625" stroke-miterlimit="10" x1="37.5" y1="28.6" x2="50" y2="35.8"/>
			<line fill="none" stroke="#262625" stroke-miterlimit="10" x1="50" y1="35.8" x2="62.5" y2="28.6"/>
			<line fill="none" stroke="#262625" stroke-miterlimit="10" x1="50.5" y1="36" x2="50.5" y2="50"/>
		</g>
		<g>
			<polygon fill="none" stroke="#262625" stroke-miterlimit="10" points="37.5,43.1 50,35.9 62.5,43.1 62.5,57.7 50,65 37.5,57.7 
							"/>
			<line fill="none" stroke="#262625" stroke-miterlimit="10" x1="37.5" y1="43.1" x2="50" y2="50.4"/>
			<line fill="none" stroke="#262625" stroke-miterlimit="10" x1="50" y1="50.4" x2="62.5" y2="43.1"/>
			<line fill="none" stroke="#262625" stroke-miterlimit="10" x1="50.5" y1="50" x2="50.5" y2="65"/>
			<line fill="none" stroke="#262625" stroke-miterlimit="10" x1="37.6" y1="57.7" x2="50" y2="50.4"/>
		</g>
		<line fill="none" stroke="#262625" stroke-miterlimit="10" x1="74.9" y1="64.9" x2="62.3" y2="57.6"/>
		<line fill="none" stroke="#262625" stroke-miterlimit="10" x1="50.5" y1="36" x2="50.5" y2="21"/>
	</g>
	<g>
		<polygon fill="none" stroke="#262625" stroke-miterlimit="10" points="25.5,35.9 50,21.4 74.5,35.9 74.5,65 50,79.5 25.5,65 		"/>
		<line fill="none" stroke="#262625" stroke-miterlimit="10" x1="25" y1="35.9" x2="50" y2="50.4"/>
		<line fill="none" stroke="#262625" stroke-miterlimit="10" x1="50" y1="50.4" x2="74.6" y2="36.1"/>
		<line fill="none" stroke="#262625" stroke-miterlimit="10" x1="50.5" y1="50" x2="50.5" y2="79"/>
	</g>
</g>
</svg>
