<?xml version="1.0" encoding="utf-8"?>
<!-- Generator: Adobe Illustrator 18.1.1, SVG Export Plug-In . SVG Version: 6.00 Build 0)  -->
<svg version="1.1" id="Layer_1" xmlns="http://www.w3.org/2000/svg" xmlns:xlink="http://www.w3.org/1999/xlink" x="0px" y="0px"
	 viewBox="0 52 640 140" enable-background="new 0 52 640 140" xml:space="preserve">
<g>
	<path fill="#43304A" d="M-3249.8,689.5c-0.2-2.6-1.2-4.6-2.8-6c-1.8-1.4-4.4-2.2-7.6-2.2c-2.4,0-4.4,0.4-6.2,1.4s-2.8,2.4-2.8,4.2
		s1,3.2,2.8,4s4.2,1.6,7.2,2.2c2.8,0.6,6,1.2,9.2,1.8s6.4,1.6,9.2,3s5.2,3.2,7.2,5.6c1.8,2.4,2.8,5.6,2.8,9.8c0,1.2-0.2,3-0.8,5.2
		c-0.6,2.4-1.8,4.6-3.8,6.8s-4.8,4.2-8.4,6c-3.8,1.6-8.8,2.6-15,2.6c-2.2,0-4.8-0.2-7.8-0.8c-3-0.4-5.8-1.4-8.6-2.8
		c-2.8-1.4-5.2-3.6-7.4-6.2c-2.2-2.8-3.4-6.4-3.6-11h17.2c0,1.6,0.4,2.8,1,3.8s1.4,2,2.4,2.6s2.2,1.2,3.4,1.6
		c1.2,0.4,2.4,0.4,3.8,0.4c1.2,0,2.2,0,3.4-0.2s2.2-0.6,3.2-1s1.8-1.2,2.4-2c0.6-0.8,1-1.8,1-3.2c0-1.6-1-3-2.8-3.8s-4.2-1.4-6.8-2
		c-2.8-0.6-5.6-1.2-8.8-1.8s-6.2-1.6-8.8-3c-2.8-1.4-5-3.2-6.8-5.8c-1.8-2.4-2.8-5.8-2.8-10c0-2.4,0.4-4.8,1.4-7.2s2.4-4.4,4.4-6.4
		c2-1.8,4.6-3.4,8-4.6c3.2-1.2,7.2-1.8,11.8-1.8c8,0,14.4,1.8,19.2,5.2s7.6,8.6,8,15.2L-3249.8,689.5z"/>
	<path fill="#43304A" d="M-3186.4,694.1c0-2.2-0.4-4-1-5.4s-1.4-2.4-2.4-3.2s-2-1.2-3.2-1.6c-1.2-0.4-2.4-0.4-3.4-0.4
		c-2.6,0-4.8,0.6-6.4,1.8c-1.6,1.2-2.8,2.8-3.6,4.8s-1.4,4-1.6,6.2c-0.2,2.2-0.4,4.4-0.4,6.4s0.2,4.2,0.6,6.2c0.4,2,1,3.8,2,5.6
		c1,1.6,2.2,3,3.6,4c1.6,1,3.4,1.6,5.6,1.6c3.4,0,5.8-1,7.6-2.8s2.8-4.2,3.2-7.4l17,0.6c-0.6,3.4-1.6,6.4-3,9.4
		c-1.4,2.8-3.2,5.4-5.4,7.4s-4.8,3.8-8,4.8c-3.2,1.2-6.8,1.8-11,1.8c-5,0-9.4-0.8-13.2-2.4c-3.8-1.6-7-3.8-9.4-6.6
		c-2.6-2.8-4.4-6.2-5.8-10c-1.2-4-2-8.2-2-13c0-5,0.6-9.4,2-13.6c1.4-4,3.4-7.6,6-10.4c2.6-2.8,5.8-5.2,9.4-6.8
		c3.6-1.6,7.8-2.4,12.6-2.4c4.6,0,8.6,0.6,12,2s6.2,3.2,8.6,5.4c2.2,2.2,4,5,5.2,7.8c1.2,3,2,6,2.2,9.4L-3186.4,694.1z"/>
	<path fill="#43304A" d="M-3163,651.3c0-1.2,0.2-2.6,0.8-3.8s1.2-2.2,2.2-3.2c0.8-1,2-1.8,3.2-2.4c1.2-0.6,2.6-1,4-1
		c1.2,0,2.6,0.2,3.8,0.8s2.2,1.2,3.2,2.2s1.8,2,2.2,3.2c0.6,1.2,0.8,2.4,0.8,3.8s-0.2,2.6-0.8,3.8s-1.2,2.2-2.2,3.2s-2,1.8-3.2,2.2
		c-1.2,0.6-2.6,0.8-4,0.8s-2.8-0.2-4-1c-1.2-0.6-2.4-1.4-3.2-2.2c-0.8-1-1.6-2-2.2-3.2C-3162.6,653.7-3163,652.5-3163,651.3z
		 M-3161.6,670.5h17.2v61.6h-17.2V670.5z"/>
	<path fill="#43304A" d="M-3118.6,706.1c0.2,1.8,0.6,3.6,1.2,5.4c0.6,1.8,1.6,3.2,2.8,4.6c1.2,1.4,2.6,2.4,4.4,3.2
		c1.8,0.8,3.8,1.2,6,1.2c2.6,0,5-0.6,7.2-1.8s3.8-3,5-5.4l16.8,1.4c-2,6.4-5.8,11-11,14.4c-5.4,3.2-11.6,4.8-19,4.8
		c-4.6,0-9-0.8-12.8-2.2c-3.8-1.6-7.2-3.8-10-6.6s-5-6.2-6.4-10.2c-1.6-4-2.4-8.4-2.4-13.4s0.8-9.4,2.4-13.6c1.6-4,3.8-7.4,6.4-10.4
		c2.8-2.8,6-5,10-6.6c3.8-1.6,8.2-2.2,12.8-2.2s8.8,0.8,12.8,2.2c3.8,1.6,7.2,3.8,10,6.6s5,6.2,6.4,10.4c1.6,4,2.4,8.6,2.4,13.6v4.8
		h-45L-3118.6,706.1L-3118.6,706.1z M-3090.8,695.1c-0.2-1.6-0.6-3-1.2-4.6c-0.6-1.6-1.6-3-2.6-4.2c-1.2-1.2-2.4-2.4-4-3.2
		s-3.4-1.2-5.6-1.2s-4.2,0.4-5.8,1c-1.6,0.8-3.2,1.6-4.4,2.8s-2.2,2.6-2.8,4.2c-0.6,1.6-1.2,3.2-1.4,5h27.8V695.1z"/>
	<path fill="#43304A" d="M-3026.2,694.5c0-2.2-0.2-4.2-0.8-5.6c-0.6-1.6-1.4-2.8-2.4-3.6c-1-1-2.2-1.6-3.4-2s-2.6-0.6-4-0.6
		c-3.6,0-6.2,1.4-8.2,4s-3,6.2-3,10.4v35h-17.2v-61.6h16.6v8h0.2c2.6-3.8,5.4-6.4,8.4-7.6c3-1.4,6.4-2,9.8-2c3.6,0,6.8,0.6,9.6,1.6
		c2.8,1.2,5,2.6,6.8,4.6s3.2,4.2,4,6.8s1.2,5.4,1.2,8.4v41.8h-17.2v-37.6L-3026.2,694.5L-3026.2,694.5z"/>
	<path fill="#43304A" d="M-2963.6,694.1c0-2.2-0.4-4-1-5.4s-1.4-2.4-2.4-3.2s-2-1.2-3.2-1.6s-2.4-0.4-3.4-0.4
		c-2.6,0-4.8,0.6-6.4,1.8c-1.6,1.2-2.8,2.8-3.6,4.8s-1.4,4-1.6,6.2c-0.2,2.2-0.4,4.4-0.4,6.4s0.2,4.2,0.6,6.2c0.4,2,1,3.8,2,5.6
		c1,1.6,2.2,3,3.6,4c1.6,1,3.4,1.6,5.6,1.6c3.4,0,5.8-1,7.6-2.8s2.8-4.2,3.2-7.4l17,0.6c-0.6,3.4-1.6,6.4-3,9.4
		c-1.4,2.8-3.2,5.4-5.4,7.4s-4.8,3.8-8,4.8c-3.2,1.2-6.8,1.8-11,1.8c-5,0-9.4-0.8-13.2-2.4c-3.8-1.6-7-3.8-9.4-6.6
		c-2.6-2.8-4.4-6.2-5.8-10c-1.2-4-2-8.2-2-13c0-5,0.6-9.4,2-13.6c1.4-4,3.4-7.6,6-10.4s5.8-5.2,9.4-6.8c3.6-1.6,7.8-2.4,12.6-2.4
		c4.6,0,8.6,0.6,12,2s6.2,3.2,8.6,5.4c2.2,2.2,4,5,5.2,7.8c1.2,3,2,6,2.2,9.4L-2963.6,694.1z"/>
	<path fill="#43304A" d="M-2921.8,706.1c0.2,1.8,0.6,3.6,1.2,5.4c0.6,1.8,1.6,3.2,2.8,4.6c1.2,1.4,2.6,2.4,4.4,3.2
		c1.8,0.8,3.8,1.2,6,1.2c2.6,0,5-0.6,7.2-1.8s3.8-3,5-5.4l16.8,1.4c-2,6.4-5.8,11-11,14.4c-5.4,3.2-11.6,4.8-19,4.8
		c-4.6,0-9-0.8-12.8-2.2c-3.8-1.6-7.2-3.8-10-6.6s-5-6.2-6.4-10.2c-1.6-4-2.4-8.4-2.4-13.4s0.8-9.4,2.4-13.6c1.6-4,3.8-7.4,6.4-10.4
		c2.8-2.8,6-5,10-6.6c3.8-1.6,8.2-2.2,12.8-2.2s8.8,0.8,12.8,2.2c3.8,1.6,7.2,3.8,10,6.6s5,6.2,6.4,10.4c1.6,4,2.4,8.6,2.4,13.6v4.8
		h-45L-2921.8,706.1L-2921.8,706.1z M-2894,695.1c-0.2-1.6-0.6-3-1.2-4.6c-0.6-1.6-1.6-3-2.6-4.2c-1.2-1.2-2.4-2.4-4-3.2
		s-3.4-1.2-5.6-1.2c-2.2,0-4.2,0.4-5.8,1c-1.6,0.8-3.2,1.6-4.4,2.8s-2.2,2.6-2.8,4.2c-0.6,1.6-1.2,3.2-1.4,5h27.8V695.1z"/>
	<path fill="#43304A" d="M-2872.8,723.5c0-2.8,1-5.2,3-7.2s4.4-3,7.2-3s5.2,1,7.2,3s3,4.4,3,7.2s-1,5.2-3,7.2s-4.4,3-7.2,3
		s-5.2-1-7.2-3S-2872.8,726.3-2872.8,723.5z"/>
	<path fill="#43304A" d="M-2805,724.1h-0.2c-2.8,3.8-6.2,6.4-10,7.6c-3.8,1.4-7.6,2-11,2c-2.4,0-4.8-0.4-7.4-1c-2.6-0.6-5-1.6-7-3.2
		c-2.2-1.4-3.8-3.4-5.2-5.8c-1.4-2.4-2-5.4-2-8.8c0-1.6,0.2-3.6,0.8-5.6c0.4-2,1.6-4,3.4-5.8c1.8-1.8,4.4-3.4,8-4.8
		c3.6-1.4,8.2-2.2,14.2-2.8l16-1v-2.8c0-3.6-1-6.4-3.2-8.2s-5.2-2.8-9-2.8c-3.6,0-6.4,0.8-8.4,2.4s-3,3.8-3.2,6.6h-16.6
		c0.2-2.4,0.8-4.8,1.8-7.4s2.6-4.8,4.8-7s5.2-3.8,8.8-5.2s8.2-2,13.6-2c3.8,0,7.4,0.4,10.8,1.2c3.4,0.8,6.4,2,8.8,3.6
		c2.6,1.6,4.6,3.6,6,6.2c1.4,2.6,2.2,5.6,2.2,9v35.8c0,1.6,0,3,0.2,4.2s0.4,2.4,0.6,3.4h-16.6v-7.8L-2805,724.1L-2805,724.1z
		 M-2805.8,705.3l-14.4,1.4c-4,0.4-6.8,1.2-8.2,2.4c-1.6,1.2-2.2,3-2.2,5.2c0,1.4,0.2,2.6,1,3.4c0.6,1,1.4,1.6,2.4,2.2s2,1,3.4,1.2
		s2.8,0.4,4.2,0.4s2.8-0.2,4.4-0.6s3.2-1,4.6-1.8c1.4-0.8,2.6-2,3.6-3.2s1.4-2.8,1.4-4.8v-5.8L-2805.8,705.3L-2805.8,705.3z"/>
	<path fill="#43304A" d="M-2781.6,651.3c0-1.2,0.2-2.6,0.8-3.8s1.2-2.2,2.2-3.2c0.8-1,2-1.8,3.2-2.4s2.6-1,4-1
		c1.2,0,2.6,0.2,3.8,0.8s2.2,1.2,3.2,2.2s1.8,2,2.2,3.2c0.6,1.2,0.8,2.4,0.8,3.8s-0.2,2.6-0.8,3.8s-1.2,2.2-2.2,3.2s-2,1.8-3.2,2.2
		c-1.2,0.6-2.6,0.8-4,0.8s-2.8-0.2-4-1c-1.2-0.6-2.4-1.4-3.2-2.2c-0.8-1-1.6-2-2.2-3.2C-2781.4,653.7-2781.6,652.5-2781.6,651.3z
		 M-2780.2,670.5h17.2v61.6h-17.2V670.5z"/>
</g>
<rect x="-3422" y="761.1" fill="none" width="804" height="182"/>
<text transform="matrix(1 0 0 1 -3302.6016 782.0899)" fill="#43304A" font-family="'NeuzeitSLT-Book'" font-size="28">The intelligent science publishing platform.</text>
<g>
	<path d="M94.2,122.2c-0.2-2.6-1.2-4.6-2.8-6c-1.8-1.4-4.4-2.2-7.6-2.2c-2.4,0-4.4,0.4-6.2,1.4s-2.8,2.4-2.8,4.2s1,3.2,2.8,4
		s4.2,1.6,7.2,2.2c2.8,0.6,6,1.2,9.2,1.8c3.2,0.6,6.4,1.6,9.2,3s5.2,3.2,7.2,5.6c1.8,2.4,2.8,5.6,2.8,9.8c0,1.2-0.2,3-0.8,5.2
		c-0.6,2.4-1.8,4.6-3.8,6.8c-2,2.2-4.8,4.2-8.4,6c-3.8,1.6-8.8,2.6-15,2.6c-2.2,0-4.8-0.2-7.8-0.8c-3-0.4-5.8-1.4-8.6-2.8
		s-5.2-3.6-7.4-6.2c-2.2-2.8-3.4-6.4-3.6-11H75c0,1.6,0.4,2.8,1,3.8s1.4,2,2.4,2.6s2.2,1.2,3.4,1.6c1.2,0.4,2.4,0.4,3.8,0.4
		c1.2,0,2.2,0,3.4-0.2c1.2-0.2,2.2-0.6,3.2-1s1.8-1.2,2.4-2c0.6-0.8,1-1.8,1-3.2c0-1.6-1-3-2.8-3.8c-1.8-0.8-4.2-1.4-6.8-2
		c-2.8-0.6-5.6-1.2-8.8-1.8c-3.2-0.6-6.2-1.6-8.8-3c-2.8-1.4-5-3.2-6.8-5.8c-1.8-2.4-2.8-5.8-2.8-10c0-2.4,0.4-4.8,1.4-7.2
		s2.4-4.4,4.4-6.4c2-1.8,4.6-3.4,8-4.6c3.2-1.2,7.2-1.8,11.8-1.8c8,0,14.4,1.8,19.2,5.2s7.6,8.6,8,15.2L94.2,122.2z"/>
	<path d="M157.6,126.5c0-2.2-0.4-4-1-5.4s-1.4-2.4-2.4-3.2s-2-1.2-3.2-1.6c-1.2-0.4-2.4-0.4-3.4-0.4c-2.6,0-4.8,0.6-6.4,1.8
		c-1.6,1.2-2.8,2.8-3.6,4.8s-1.4,4-1.6,6.2c-0.2,2.2-0.4,4.4-0.4,6.4s0.2,4.2,0.6,6.2c0.4,2,1,3.8,2,5.6c1,1.6,2.2,3,3.6,4
		c1.6,1,3.4,1.6,5.6,1.6c3.4,0,5.8-1,7.6-2.8c1.8-1.8,2.8-4.2,3.2-7.4l17,0.6c-0.6,3.4-1.6,6.4-3,9.4c-1.4,2.8-3.2,5.4-5.4,7.4
		s-4.8,3.8-8,4.8c-3.2,1.2-6.8,1.8-11,1.8c-5,0-9.4-0.8-13.2-2.4s-7-3.8-9.4-6.6c-2.6-2.8-4.4-6.2-5.8-10c-1.2-4-2-8.2-2-13
		c0-5,0.6-9.4,2-13.6c1.4-4,3.4-7.6,6-10.4c2.6-2.8,5.8-5.2,9.4-6.8s7.8-2.4,12.6-2.4c4.6,0,8.6,0.6,12,2s6.2,3.2,8.6,5.4
		c2.2,2.2,4,5,5.2,7.8c1.2,3,2,6,2.2,9.4L157.6,126.5z"/>
	<path d="M181,83.8c0-1.2,0.2-2.6,0.8-3.8s1.2-2.2,2.2-3.2c0.8-1,2-1.8,3.2-2.4c1.2-0.6,2.6-1,4-1c1.2,0,2.6,0.2,3.8,0.8
		s2.2,1.2,3.2,2.2s1.8,2,2.2,3.2c0.6,1.2,0.8,2.4,0.8,3.8c0,1.4-0.2,2.6-0.8,3.8s-1.2,2.2-2.2,3.2s-2,1.8-3.2,2.2
		c-1.2,0.6-2.6,0.8-4,0.8s-2.8-0.2-4-1c-1.2-0.6-2.4-1.4-3.2-2.2c-0.8-1-1.6-2-2.2-3.2C181.4,86.3,181,85.2,181,83.8z M182.4,102.8
		h17.2v61.6h-17.2V102.8z"/>
	<path d="M225.4,138.6c0.2,1.8,0.6,3.6,1.2,5.4c0.6,1.8,1.6,3.2,2.8,4.6s2.6,2.4,4.4,3.2c1.8,0.8,3.8,1.2,6,1.2c2.6,0,5-0.6,7.2-1.8
		c2.2-1.2,3.8-3,5-5.4l16.8,1.4c-2,6.4-5.8,11-11,14.4c-5.4,3.2-11.6,4.8-19,4.8c-4.6,0-9-0.8-12.8-2.2c-3.8-1.6-7.2-3.8-10-6.6
		c-2.8-2.8-5-6.2-6.4-10.2c-1.6-4-2.4-8.4-2.4-13.4s0.8-9.4,2.4-13.6c1.6-4,3.8-7.4,6.4-10.4c2.8-2.8,6-5,10-6.6
		c3.8-1.6,8.2-2.2,12.8-2.2s8.8,0.8,12.8,2.2c3.8,1.6,7.2,3.8,10,6.6s5,6.2,6.4,10.4c1.6,4,2.4,8.6,2.4,13.6v4.8h-45L225.4,138.6
		L225.4,138.6z M253.2,127.7c-0.2-1.6-0.6-3-1.2-4.6c-0.6-1.6-1.6-3-2.6-4.2c-1.2-1.2-2.4-2.4-4-3.2s-3.4-1.2-5.6-1.2
		c-2.2,0-4.2,0.4-5.8,1c-1.6,0.8-3.2,1.6-4.4,2.8s-2.2,2.6-2.8,4.2c-0.6,1.6-1.2,3.2-1.4,5h27.8V127.7z"/>
	<path d="M317.8,127.2c0-2.2-0.2-4.2-0.8-5.6c-0.6-1.6-1.4-2.8-2.4-3.6c-1-1-2.2-1.6-3.4-2c-1.2-0.4-2.6-0.6-4-0.6
		c-3.6,0-6.2,1.4-8.2,4s-3,6.2-3,10.4v35h-17.2v-61.8h16.6v8h0.2c2.6-3.8,5.4-6.4,8.4-7.6c3-1.4,6.4-2,9.8-2c3.6,0,6.8,0.6,9.6,1.6
		c2.8,1.2,5,2.6,6.8,4.6s3.2,4.2,4,6.8s1.2,5.4,1.2,8.4v41.8h-17.2v-37.4C318.2,127.2,317.8,127.2,317.8,127.2z"/>
	<path d="M380.4,126.5c0-2.2-0.4-4-1-5.4s-1.4-2.4-2.4-3.2s-2-1.2-3.2-1.6s-2.4-0.4-3.4-0.4c-2.6,0-4.8,0.6-6.4,1.8
		s-2.8,2.8-3.6,4.8c-0.8,2-1.4,4-1.6,6.2c-0.2,2.2-0.4,4.4-0.4,6.4s0.2,4.2,0.6,6.2s1,3.8,2,5.6c1,1.6,2.2,3,3.6,4
		c1.6,1,3.4,1.6,5.6,1.6c3.4,0,5.8-1,7.6-2.8c1.8-1.8,2.8-4.2,3.2-7.4l17,0.6c-0.6,3.4-1.6,6.4-3,9.4c-1.4,2.8-3.2,5.4-5.4,7.4
		c-2.2,2-4.8,3.8-8,4.8c-3.2,1.2-6.8,1.8-11,1.8c-5,0-9.4-0.8-13.2-2.4s-7-3.8-9.4-6.6c-2.6-2.8-4.4-6.2-5.8-10c-1.2-4-2-8.2-2-13
		c0-5,0.6-9.4,2-13.6c1.4-4,3.4-7.6,6-10.4c2.6-2.8,5.8-5.2,9.4-6.8s7.8-2.4,12.6-2.4c4.6,0,8.6,0.6,12,2s6.2,3.2,8.6,5.4
		c2.2,2.2,4,5,5.2,7.8c1.2,3,2,6,2.2,9.4L380.4,126.5z"/>
	<path d="M422.2,138.6c0.2,1.8,0.6,3.6,1.2,5.4c0.6,1.8,1.6,3.2,2.8,4.6c1.2,1.4,2.6,2.4,4.4,3.2c1.8,0.8,3.8,1.2,6,1.2
		c2.6,0,5-0.6,7.2-1.8c2.2-1.2,3.8-3,5-5.4l16.8,1.4c-2,6.4-5.8,11-11,14.4c-5.4,3.2-11.6,4.8-19,4.8c-4.6,0-9-0.8-12.8-2.2
		c-3.8-1.6-7.2-3.8-10-6.6c-2.8-2.8-5-6.2-6.4-10.2c-1.6-4-2.4-8.4-2.4-13.4s0.8-9.4,2.4-13.6c1.6-4,3.8-7.4,6.4-10.4
		c2.8-2.8,6-5,10-6.6c3.8-1.6,8.2-2.2,12.8-2.2c4.6,0,8.8,0.8,12.8,2.2c3.8,1.6,7.2,3.8,10,6.6s5,6.2,6.4,10.4
		c1.6,4,2.4,8.6,2.4,13.6v4.8h-45L422.2,138.6L422.2,138.6z M450,127.7c-0.2-1.6-0.6-3-1.2-4.6s-1.6-3-2.6-4.2
		c-1.2-1.2-2.4-2.4-4-3.2s-3.4-1.2-5.6-1.2s-4.2,0.4-5.8,1c-1.6,0.8-3.2,1.6-4.4,2.8c-1.2,1.2-2.2,2.6-2.8,4.2
		c-0.6,1.6-1.2,3.2-1.4,5H450V127.7z"/>
	<path d="M471.2,155.9c0-2.8,1-5.2,3-7.2s4.4-3,7.2-3s5.2,1,7.2,3s3,4.4,3,7.2s-1,5.2-3,7.2s-4.4,3-7.2,3s-5.2-1-7.2-3
		S471.2,158.6,471.2,155.9z"/>
	<path d="M539,156.5h-0.2c-2.8,3.8-6.2,6.4-10,7.6c-3.8,1.4-7.6,2-11,2c-2.4,0-4.8-0.4-7.4-1s-5-1.6-7-3.2c-2.2-1.4-3.8-3.4-5.2-5.8
		s-2-5.4-2-8.8c0-1.6,0.2-3.6,0.8-5.6c0.4-2,1.6-4,3.4-5.8c1.8-1.8,4.4-3.4,8-4.8s8.2-2.2,14.2-2.8l16-1v-2.8c0-3.6-1-6.4-3.2-8.2
		s-5.2-2.8-9-2.8c-3.6,0-6.4,0.8-8.4,2.4c-2,1.6-3,3.8-3.2,6.6H498c0.2-2.4,0.8-4.8,1.8-7.4c1-2.6,2.6-4.8,4.8-7
		c2.2-2.2,5.2-3.8,8.8-5.2s8.2-2,13.6-2c3.8,0,7.4,0.4,10.8,1.2c3.4,0.8,6.4,2,8.8,3.6c2.6,1.6,4.6,3.6,6,6.2c1.4,2.6,2.2,5.6,2.2,9
		v35.7c0,1.6,0,3,0.2,4.2s0.4,2.4,0.6,3.4H539V156.5L539,156.5z M538.2,137.6l-14.4,1.4c-4,0.4-6.8,1.2-8.2,2.4
		c-1.6,1.2-2.2,3-2.2,5.2c0,1.4,0.2,2.6,1,3.4c0.6,1,1.4,1.6,2.4,2.2c1,0.6,2,1,3.4,1.2s2.8,0.4,4.2,0.4s2.8-0.2,4.4-0.6
		c1.6-0.4,3.2-1,4.6-1.8c1.4-0.8,2.6-2,3.6-3.2c1-1.2,1.4-2.8,1.4-4.8v-5.8H538.2L538.2,137.6z"/>
	<path d="M562.4,83.8c0-1.2,0.2-2.6,0.8-3.8s1.2-2.2,2.2-3.2c0.8-1,2-1.8,3.2-2.4c1.2-0.6,2.6-1,4-1c1.2,0,2.6,0.2,3.8,0.8
		s2.2,1.2,3.2,2.2s1.8,2,2.2,3.2c0.6,1.2,0.8,2.4,0.8,3.8c0,1.4-0.2,2.6-0.8,3.8s-1.2,2.2-2.2,3.2s-2,1.8-3.2,2.2
		c-1.2,0.6-2.6,0.8-4,0.8s-2.8-0.2-4-1c-1.2-0.6-2.4-1.4-3.2-2.2c-0.8-1-1.6-2-2.2-3.2C562.6,86.3,562.4,85.2,562.4,83.8z
		 M563.8,102.8H581v61.6h-17.2V102.8z"/>
</g>
<g>
	<path fill="#43304A" d="M-1929.8,652.9c-0.2-2.6-1.2-4.6-2.8-6c-1.8-1.4-4.4-2.2-7.6-2.2c-2.4,0-4.4,0.4-6.2,1.4
		c-1.8,1-2.8,2.4-2.8,4.2s1,3.2,2.8,4s4.2,1.6,7.2,2.2c2.8,0.6,6,1.2,9.2,1.8s6.4,1.6,9.2,3c2.8,1.4,5.2,3.2,7.2,5.6
		c1.8,2.4,2.8,5.6,2.8,9.8c0,1.2-0.2,3-0.8,5.2c-0.6,2.4-1.8,4.6-3.8,6.8s-4.8,4.2-8.4,6c-3.8,1.6-8.8,2.6-15,2.6
		c-2.2,0-4.8-0.2-7.8-0.8c-3-0.4-5.8-1.4-8.6-2.8c-2.8-1.4-5.2-3.6-7.4-6.2c-2.2-2.8-3.4-6.4-3.6-11h17.2c0,1.6,0.4,2.8,1,3.8
		s1.4,2,2.4,2.6s2.2,1.2,3.4,1.6c1.2,0.4,2.4,0.4,3.8,0.4c1.2,0,2.2,0,3.4-0.2c1.2-0.2,2.2-0.6,3.2-1s1.8-1.2,2.4-2s1-1.8,1-3.2
		c0-1.6-1-3-2.8-3.8s-4.2-1.4-6.8-2c-2.8-0.6-5.6-1.2-8.8-1.8c-3.2-0.6-6.2-1.6-8.8-3c-2.8-1.4-5-3.2-6.8-5.8
		c-1.8-2.4-2.8-5.8-2.8-10c0-2.4,0.4-4.8,1.4-7.2s2.4-4.4,4.4-6.4c2-1.8,4.6-3.4,8-4.6c3.2-1.2,7.2-1.8,11.8-1.8
		c8,0,14.4,1.8,19.2,5.2c4.8,3.4,7.6,8.6,8,15.2L-1929.8,652.9z"/>
	<path fill="#43304A" d="M-1866.4,657.5c0-2.2-0.4-4-1-5.4s-1.4-2.4-2.4-3.2s-2-1.2-3.2-1.6c-1.2-0.4-2.4-0.4-3.4-0.4
		c-2.6,0-4.8,0.6-6.4,1.8s-2.8,2.8-3.6,4.8s-1.4,4-1.6,6.2s-0.4,4.4-0.4,6.4s0.2,4.2,0.6,6.2s1,3.8,2,5.6c1,1.6,2.2,3,3.6,4
		c1.6,1,3.4,1.6,5.6,1.6c3.4,0,5.8-1,7.6-2.8c1.8-1.8,2.8-4.2,3.2-7.4l17,0.6c-0.6,3.4-1.6,6.4-3,9.4c-1.4,2.8-3.2,5.4-5.4,7.4
		s-4.8,3.8-8,4.8c-3.2,1.2-6.8,1.8-11,1.8c-5,0-9.4-0.8-13.2-2.4c-3.8-1.6-7-3.8-9.4-6.6c-2.6-2.8-4.4-6.2-5.8-10c-1.2-4-2-8.2-2-13
		c0-5,0.6-9.4,2-13.6c1.4-4,3.4-7.6,6-10.4c2.6-2.8,5.8-5.2,9.4-6.8s7.8-2.4,12.6-2.4c4.6,0,8.6,0.6,12,2s6.2,3.2,8.6,5.4
		c2.2,2.2,4,5,5.2,7.8c1.2,3,2,6,2.2,9.4L-1866.4,657.5z"/>
	<path fill="#43304A" d="M-1843,614.7c0-1.2,0.2-2.6,0.8-3.8c0.6-1.2,1.2-2.2,2.2-3.2c0.8-1,2-1.8,3.2-2.4c1.2-0.6,2.6-1,4-1
		c1.2,0,2.6,0.2,3.8,0.8c1.2,0.6,2.2,1.2,3.2,2.2s1.8,2,2.2,3.2c0.6,1.2,0.8,2.4,0.8,3.8s-0.2,2.6-0.8,3.8s-1.2,2.2-2.2,3.2
		s-2,1.8-3.2,2.2c-1.2,0.6-2.6,0.8-4,0.8s-2.8-0.2-4-1c-1.2-0.6-2.4-1.4-3.2-2.2c-0.8-1-1.6-2-2.2-3.2
		C-1842.6,617.1-1843,615.9-1843,614.7z M-1841.6,633.9h17.2v61.6h-17.2V633.9z"/>
	<path fill="#43304A" d="M-1798.6,669.7c0.2,1.8,0.6,3.6,1.2,5.4c0.6,1.8,1.6,3.2,2.8,4.6c1.2,1.4,2.6,2.4,4.4,3.2s3.8,1.2,6,1.2
		c2.6,0,5-0.6,7.2-1.8s3.8-3,5-5.4l16.8,1.4c-2,6.4-5.8,11-11,14.4c-5.4,3.2-11.6,4.8-19,4.8c-4.6,0-9-0.8-12.8-2.2
		c-3.8-1.6-7.2-3.8-10-6.6s-5-6.2-6.4-10.2c-1.6-4-2.4-8.4-2.4-13.4s0.8-9.4,2.4-13.6c1.6-4,3.8-7.4,6.4-10.4c2.8-2.8,6-5,10-6.6
		c3.8-1.6,8.2-2.2,12.8-2.2c4.6,0,8.8,0.8,12.8,2.2c3.8,1.6,7.2,3.8,10,6.6s5,6.2,6.4,10.4c1.6,4,2.4,8.6,2.4,13.6v4.8h-45
		L-1798.6,669.7L-1798.6,669.7z M-1770.8,658.5c-0.2-1.6-0.6-3-1.2-4.6s-1.6-3-2.6-4.2c-1.2-1.2-2.4-2.4-4-3.2s-3.4-1.2-5.6-1.2
		s-4.2,0.4-5.8,1c-1.6,0.8-3.2,1.6-4.4,2.8c-1.2,1.2-2.2,2.6-2.8,4.2c-0.6,1.6-1.2,3.2-1.4,5h27.8V658.5z"/>
	<path fill="#43304A" d="M-1706.2,657.9c0-2.2-0.2-4.2-0.8-5.6c-0.6-1.6-1.4-2.8-2.4-3.6c-1-1-2.2-1.6-3.4-2s-2.6-0.6-4-0.6
		c-3.6,0-6.2,1.4-8.2,4s-3,6.2-3,10.4v35h-17.2v-61.6h16.6v8h0.2c2.6-3.8,5.4-6.4,8.4-7.6c3-1.4,6.4-2,9.8-2c3.6,0,6.8,0.6,9.6,1.6
		c2.8,1.2,5,2.6,6.8,4.6s3.2,4.2,4,6.8s1.2,5.4,1.2,8.4v41.8h-17.2v-37.6L-1706.2,657.9L-1706.2,657.9z"/>
	<path fill="#43304A" d="M-1643.6,657.5c0-2.2-0.4-4-1-5.4s-1.4-2.4-2.4-3.2s-2-1.2-3.2-1.6s-2.4-0.4-3.4-0.4
		c-2.6,0-4.8,0.6-6.4,1.8s-2.8,2.8-3.6,4.8c-0.8,2-1.4,4-1.6,6.2s-0.4,4.4-0.4,6.4s0.2,4.2,0.6,6.2s1,3.8,2,5.6c1,1.6,2.2,3,3.6,4
		c1.6,1,3.4,1.6,5.6,1.6c3.4,0,5.8-1,7.6-2.8c1.8-1.8,2.8-4.2,3.2-7.4l17,0.6c-0.6,3.4-1.6,6.4-3,9.4c-1.4,2.8-3.2,5.4-5.4,7.4
		c-2.2,2-4.8,3.8-8,4.8c-3.2,1.2-6.8,1.8-11,1.8c-5,0-9.4-0.8-13.2-2.4s-7-3.8-9.4-6.6c-2.6-2.8-4.4-6.2-5.8-10c-1.2-4-2-8.2-2-13
		c0-5,0.6-9.4,2-13.6c1.4-4,3.4-7.6,6-10.4c2.6-2.8,5.8-5.2,9.4-6.8s7.8-2.4,12.6-2.4c4.6,0,8.6,0.6,12,2s6.2,3.2,8.6,5.4
		c2.2,2.2,4,5,5.2,7.8c1.2,3,2,6,2.2,9.4L-1643.6,657.5z"/>
	<path fill="#43304A" d="M-1601.8,669.7c0.2,1.8,0.6,3.6,1.2,5.4c0.6,1.8,1.6,3.2,2.8,4.6c1.2,1.4,2.6,2.4,4.4,3.2s3.8,1.2,6,1.2
		c2.6,0,5-0.6,7.2-1.8s3.8-3,5-5.4l16.8,1.4c-2,6.4-5.8,11-11,14.4c-5.4,3.2-11.6,4.8-19,4.8c-4.6,0-9-0.8-12.8-2.2
		c-3.8-1.6-7.2-3.8-10-6.6s-5-6.2-6.4-10.2c-1.6-4-2.4-8.4-2.4-13.4s0.8-9.4,2.4-13.6c1.6-4,3.8-7.4,6.4-10.4c2.8-2.8,6-5,10-6.6
		c3.8-1.6,8.2-2.2,12.8-2.2c4.6,0,8.8,0.8,12.8,2.2c3.8,1.6,7.2,3.8,10,6.6s5,6.2,6.4,10.4c1.6,4,2.4,8.6,2.4,13.6v4.8h-45
		L-1601.8,669.7L-1601.8,669.7z M-1574,658.5c-0.2-1.6-0.6-3-1.2-4.6s-1.6-3-2.6-4.2c-1.2-1.2-2.4-2.4-4-3.2s-3.4-1.2-5.6-1.2
		s-4.2,0.4-5.8,1c-1.6,0.8-3.2,1.6-4.4,2.8s-2.2,2.6-2.8,4.2c-0.6,1.6-1.2,3.2-1.4,5h27.8V658.5z"/>
	<path fill="#43304A" d="M-1552.8,686.9c0-2.8,1-5.2,3-7.2s4.4-3,7.2-3s5.2,1,7.2,3s3,4.4,3,7.2s-1,5.2-3,7.2s-4.4,3-7.2,3
		s-5.2-1-7.2-3S-1552.8,689.7-1552.8,686.9z"/>
	<path fill="#43304A" d="M-1485,687.5h-0.2c-2.8,3.8-6.2,6.4-10,7.6c-3.8,1.4-7.6,2-11,2c-2.4,0-4.8-0.4-7.4-1s-5-1.6-7-3.2
		c-2.2-1.4-3.8-3.4-5.2-5.8c-1.4-2.4-2-5.4-2-8.8c0-1.6,0.2-3.6,0.8-5.6c0.4-2,1.6-4,3.4-5.8s4.4-3.4,8-4.8
		c3.6-1.4,8.2-2.2,14.2-2.8l16-1v-2.8c0-3.6-1-6.4-3.2-8.2s-5.2-2.8-9-2.8c-3.6,0-6.4,0.8-8.4,2.4c-2,1.6-3,3.8-3.2,6.6h-16.6
		c0.2-2.4,0.8-4.8,1.8-7.4s2.6-4.8,4.8-7c2.2-2.2,5.2-3.8,8.8-5.2c3.6-1.4,8.2-2,13.6-2c3.8,0,7.4,0.4,10.8,1.2s6.4,2,8.8,3.6
		c2.6,1.6,4.6,3.6,6,6.2c1.4,2.6,2.2,5.6,2.2,9v35.8c0,1.6,0,3,0.2,4.2s0.4,2.4,0.6,3.4h-16.6v-7.8L-1485,687.5L-1485,687.5z
		 M-1485.8,668.7l-14.4,1.4c-4,0.4-6.8,1.2-8.2,2.4c-1.6,1.2-2.2,3-2.2,5.2c0,1.4,0.2,2.6,1,3.4c0.6,1,1.4,1.6,2.4,2.2s2,1,3.4,1.2
		s2.8,0.4,4.2,0.4s2.8-0.2,4.4-0.6c1.6-0.4,3.2-1,4.6-1.8s2.6-2,3.6-3.2s1.4-2.8,1.4-4.8v-5.8L-1485.8,668.7L-1485.8,668.7z"/>
	<path fill="#43304A" d="M-1461.6,614.7c0-1.2,0.2-2.6,0.8-3.8c0.6-1.2,1.2-2.2,2.2-3.2c0.8-1,2-1.8,3.2-2.4c1.2-0.6,2.6-1,4-1
		c1.2,0,2.6,0.2,3.8,0.8s2.2,1.2,3.2,2.2s1.8,2,2.2,3.2c0.6,1.2,0.8,2.4,0.8,3.8s-0.2,2.6-0.8,3.8c-0.6,1.2-1.2,2.2-2.2,3.2
		s-2,1.8-3.2,2.2c-1.2,0.6-2.6,0.8-4,0.8s-2.8-0.2-4-1c-1.2-0.6-2.4-1.4-3.2-2.2c-0.8-1-1.6-2-2.2-3.2
		C-1461.4,617.1-1461.6,615.9-1461.6,614.7z M-1460.2,633.9h17.2v61.6h-17.2V633.9z"/>
</g>
<rect x="-2342" y="751.3" fill="none" width="1280" height="182"/>
<text transform="matrix(1 0 0 1 -2180.4375 778.4043)" fill="#43304A" font-family="'NeuzeitSLT-Book'" font-size="36">The modern science publishing platform.</text>
</svg>
