<?xml version="1.0" encoding="utf-8"?>
<!-- Generator: Adobe Illustrator 18.1.1, SVG Export Plug-In . SVG Version: 6.00 Build 0)  -->
<svg version="1.1" id="Layer_1" xmlns="http://www.w3.org/2000/svg" xmlns:xlink="http://www.w3.org/1999/xlink" x="0px" y="0px"
	 viewBox="0 -25 960 225" enable-background="new 0 -25 960 225" xml:space="preserve">
<g>
	<path fill="#43304A" d="M-4874.7,799.3c-0.3-3.9-1.8-6.9-4.2-9c-2.7-2.1-6.6-3.3-11.4-3.3c-3.6,0-6.6,0.6-9.3,2.1
		c-2.7,1.5-4.2,3.6-4.2,6.3s1.5,4.8,4.2,6s6.3,2.4,10.8,3.3c4.2,0.9,9,1.8,13.8,2.7s9.6,2.4,13.8,4.5c4.2,2.1,7.8,4.8,10.8,8.4
		c2.7,3.6,4.2,8.4,4.2,14.7c0,1.8-0.3,4.5-1.2,7.8c-0.9,3.6-2.7,6.9-5.7,10.2s-7.2,6.3-12.6,9c-5.7,2.4-13.2,3.9-22.5,3.9
		c-3.3,0-7.2-0.3-11.7-1.2c-4.5-0.6-8.7-2.1-12.9-4.2c-4.2-2.1-7.8-5.4-11.1-9.3c-3.3-4.2-5.1-9.6-5.4-16.5h25.8
		c0,2.4,0.6,4.2,1.5,5.7s2.1,3,3.6,3.9s3.3,1.8,5.1,2.4c1.8,0.6,3.6,0.6,5.7,0.6c1.8,0,3.3,0,5.1-0.3s3.3-0.9,4.8-1.5s2.7-1.8,3.6-3
		s1.5-2.7,1.5-4.8c0-2.4-1.5-4.5-4.2-5.7s-6.3-2.1-10.2-3c-4.2-0.9-8.4-1.8-13.2-2.7c-4.8-0.9-9.3-2.4-13.2-4.5
		c-4.2-2.1-7.5-4.8-10.2-8.7c-2.7-3.6-4.2-8.7-4.2-15c0-3.6,0.6-7.2,2.1-10.8s3.6-6.6,6.6-9.6c3-2.7,6.9-5.1,12-6.9
		c4.8-1.8,10.8-2.7,17.7-2.7c12,0,21.6,2.7,28.8,7.8c7.2,5.1,11.4,12.9,12,22.8L-4874.7,799.3z"/>
	<path fill="#43304A" d="M-4779.6,806.2c0-3.3-0.6-6-1.5-8.1s-2.1-3.6-3.6-4.8s-3-1.8-4.8-2.4c-1.8-0.6-3.6-0.6-5.1-0.6
		c-3.9,0-7.2,0.9-9.6,2.7s-4.2,4.2-5.4,7.2s-2.1,6-2.4,9.3s-0.6,6.6-0.6,9.6s0.3,6.3,0.9,9.3s1.5,5.7,3,8.4c1.5,2.4,3.3,4.5,5.4,6
		c2.4,1.5,5.1,2.4,8.4,2.4c5.1,0,8.7-1.5,11.4-4.2s4.2-6.3,4.8-11.1l25.5,0.9c-0.9,5.1-2.4,9.6-4.5,14.1c-2.1,4.2-4.8,8.1-8.1,11.1
		s-7.2,5.7-12,7.2c-4.8,1.8-10.2,2.7-16.5,2.7c-7.5,0-14.1-1.2-19.8-3.6c-5.7-2.4-10.5-5.7-14.1-9.9c-3.9-4.2-6.6-9.3-8.7-15
		c-1.8-6-3-12.3-3-19.5c0-7.5,0.9-14.1,3-20.4c2.1-6,5.1-11.4,9-15.6c3.9-4.2,8.7-7.8,14.1-10.2s11.7-3.6,18.9-3.6
		c6.9,0,12.9,0.9,18,3s9.3,4.8,12.9,8.1c3.3,3.3,6,7.5,7.8,11.7c1.8,4.5,3,9,3.3,14.1L-4779.6,806.2z"/>
	<path fill="#43304A" d="M-4744.5,742c0-1.8,0.3-3.9,1.2-5.7c0.9-1.8,1.8-3.3,3.3-4.8c1.2-1.5,3-2.7,4.8-3.6s3.9-1.5,6-1.5
		c1.8,0,3.9,0.3,5.7,1.2c1.8,0.9,3.3,1.8,4.8,3.3s2.7,3,3.3,4.8c0.9,1.8,1.2,3.6,1.2,5.7s-0.3,3.9-1.2,5.7c-0.9,1.8-1.8,3.3-3.3,4.8
		s-3,2.7-4.8,3.3c-1.8,0.9-3.9,1.2-6,1.2s-4.2-0.3-6-1.5c-1.8-0.9-3.6-2.1-4.8-3.3c-1.2-1.5-2.4-3-3.3-4.8
		C-4743.9,745.6-4744.5,743.8-4744.5,742z M-4742.4,770.8h25.8v92.4h-25.8V770.8z"/>
	<path fill="#43304A" d="M-4677.9,824.2c0.3,2.7,0.9,5.4,1.8,8.1c0.9,2.7,2.4,4.8,4.2,6.9c1.8,2.1,3.9,3.6,6.6,4.8s5.7,1.8,9,1.8
		c3.9,0,7.5-0.9,10.8-2.7s5.7-4.5,7.5-8.1l25.2,2.1c-3,9.6-8.7,16.5-16.5,21.6c-8.1,4.8-17.4,7.2-28.5,7.2c-6.9,0-13.5-1.2-19.2-3.3
		c-5.7-2.4-10.8-5.7-15-9.9s-7.5-9.3-9.6-15.3c-2.4-6-3.6-12.6-3.6-20.1s1.2-14.1,3.6-20.4c2.4-6,5.7-11.1,9.6-15.6
		c4.2-4.2,9-7.5,15-9.9c5.7-2.4,12.3-3.3,19.2-3.3s13.2,1.2,19.2,3.3c5.7,2.4,10.8,5.7,15,9.9s7.5,9.3,9.6,15.6
		c2.4,6,3.6,12.9,3.6,20.4v7.2h-67.5L-4677.9,824.2L-4677.9,824.2z M-4636.2,807.7c-0.3-2.4-0.9-4.5-1.8-6.9s-2.4-4.5-3.9-6.3
		c-1.8-1.8-3.6-3.6-6-4.8s-5.1-1.8-8.4-1.8s-6.3,0.6-8.7,1.5c-2.4,1.2-4.8,2.4-6.6,4.2c-1.8,1.8-3.3,3.9-4.2,6.3s-1.8,4.8-2.1,7.5
		h41.7V807.7z"/>
	<path fill="#43304A" d="M-4539.3,806.8c0-3.3-0.3-6.3-1.2-8.4c-0.9-2.4-2.1-4.2-3.6-5.4c-1.5-1.5-3.3-2.4-5.1-3s-3.9-0.9-6-0.9
		c-5.4,0-9.3,2.1-12.3,6s-4.5,9.3-4.5,15.6v52.5h-25.8v-92.4h24.9v12h0.3c3.9-5.7,8.1-9.6,12.6-11.4c4.5-2.1,9.6-3,14.7-3
		c5.4,0,10.2,0.9,14.4,2.4c4.2,1.8,7.5,3.9,10.2,6.9s4.8,6.3,6,10.2s1.8,8.1,1.8,12.6v62.7h-25.8v-56.4L-4539.3,806.8L-4539.3,806.8
		z"/>
	<path fill="#43304A" d="M-4445.4,806.2c0-3.3-0.6-6-1.5-8.1s-2.1-3.6-3.6-4.8s-3-1.8-4.8-2.4s-3.6-0.6-5.1-0.6
		c-3.9,0-7.2,0.9-9.6,2.7s-4.2,4.2-5.4,7.2c-1.2,3-2.1,6-2.4,9.3s-0.6,6.6-0.6,9.6s0.3,6.3,0.9,9.3s1.5,5.7,3,8.4
		c1.5,2.4,3.3,4.5,5.4,6c2.4,1.5,5.1,2.4,8.4,2.4c5.1,0,8.7-1.5,11.4-4.2c2.7-2.7,4.2-6.3,4.8-11.1l25.5,0.9
		c-0.9,5.1-2.4,9.6-4.5,14.1c-2.1,4.2-4.8,8.1-8.1,11.1s-7.2,5.7-12,7.2c-4.8,1.8-10.2,2.7-16.5,2.7c-7.5,0-14.1-1.2-19.8-3.6
		c-5.7-2.4-10.5-5.7-14.1-9.9c-3.9-4.2-6.6-9.3-8.7-15c-1.8-6-3-12.3-3-19.5c0-7.5,0.9-14.1,3-20.4c2.1-6,5.1-11.4,9-15.6
		c3.9-4.2,8.7-7.8,14.1-10.2s11.7-3.6,18.9-3.6c6.9,0,12.9,0.9,18,3s9.3,4.8,12.9,8.1c3.3,3.3,6,7.5,7.8,11.7c1.8,4.5,3,9,3.3,14.1
		L-4445.4,806.2z"/>
	<path fill="#43304A" d="M-4382.7,824.2c0.3,2.7,0.9,5.4,1.8,8.1c0.9,2.7,2.4,4.8,4.2,6.9c1.8,2.1,3.9,3.6,6.6,4.8s5.7,1.8,9,1.8
		c3.9,0,7.5-0.9,10.8-2.7s5.7-4.5,7.5-8.1l25.2,2.1c-3,9.6-8.7,16.5-16.5,21.6c-8.1,4.8-17.4,7.2-28.5,7.2c-6.9,0-13.5-1.2-19.2-3.3
		c-5.7-2.4-10.8-5.7-15-9.9s-7.5-9.3-9.6-15.3c-2.4-6-3.6-12.6-3.6-20.1s1.2-14.1,3.6-20.4c2.4-6,5.7-11.1,9.6-15.6
		c4.2-4.2,9-7.5,15-9.9c5.7-2.4,12.3-3.3,19.2-3.3c6.9,0,13.2,1.2,19.2,3.3c5.7,2.4,10.8,5.7,15,9.9s7.5,9.3,9.6,15.6
		c2.4,6,3.6,12.9,3.6,20.4v7.2h-67.5L-4382.7,824.2L-4382.7,824.2z M-4341,807.7c-0.3-2.4-0.9-4.5-1.8-6.9s-2.4-4.5-3.9-6.3
		c-1.8-1.8-3.6-3.6-6-4.8s-5.1-1.8-8.4-1.8s-6.3,0.6-8.7,1.5c-2.4,1.2-4.8,2.4-6.6,4.2c-1.8,1.8-3.3,3.9-4.2,6.3
		c-0.9,2.4-1.8,4.8-2.1,7.5h41.7V807.7z"/>
	<path fill="#43304A" d="M-4309.2,850.3c0-4.2,1.5-7.8,4.5-10.8s6.6-4.5,10.8-4.5c4.2,0,7.8,1.5,10.8,4.5s4.5,6.6,4.5,10.8
		s-1.5,7.8-4.5,10.8s-6.6,4.5-10.8,4.5c-4.2,0-7.8-1.5-10.8-4.5S-4309.2,854.5-4309.2,850.3z"/>
	<path fill="#43304A" d="M-4207.5,851.2h-0.3c-4.2,5.7-9.3,9.6-15,11.4c-5.7,2.1-11.4,3-16.5,3c-3.6,0-7.2-0.6-11.1-1.5
		s-7.5-2.4-10.5-4.8c-3.3-2.1-5.7-5.1-7.8-8.7s-3-8.1-3-13.2c0-2.4,0.3-5.4,1.2-8.4c0.6-3,2.4-6,5.1-8.7s6.6-5.1,12-7.2
		c5.4-2.1,12.3-3.3,21.3-4.2l24-1.5v-4.2c0-5.4-1.5-9.6-4.8-12.3s-7.8-4.2-13.5-4.2c-5.4,0-9.6,1.2-12.6,3.6s-4.5,5.7-4.8,9.9h-24.9
		c0.3-3.6,1.2-7.2,2.7-11.1s3.9-7.2,7.2-10.5c3.3-3.3,7.8-5.7,13.2-7.8c5.4-2.1,12.3-3,20.4-3c5.7,0,11.1,0.6,16.2,1.8
		s9.6,3,13.2,5.4c3.9,2.4,6.9,5.4,9,9.3c2.1,3.9,3.3,8.4,3.3,13.5v53.7c0,2.4,0,4.5,0.3,6.3s0.6,3.6,0.9,5.1h-24.9v-11.7
		L-4207.5,851.2L-4207.5,851.2z M-4208.7,823l-21.6,2.1c-6,0.6-10.2,1.8-12.3,3.6c-2.4,1.8-3.3,4.5-3.3,7.8c0,2.1,0.3,3.9,1.5,5.1
		c0.9,1.5,2.1,2.4,3.6,3.3s3,1.5,5.1,1.8s4.2,0.6,6.3,0.6c2.1,0,4.2-0.3,6.6-0.9s4.8-1.5,6.9-2.7s3.9-3,5.4-4.8s2.1-4.2,2.1-7.2V823
		H-4208.7z"/>
	<path fill="#43304A" d="M-4172.4,742c0-1.8,0.3-3.9,1.2-5.7c0.9-1.8,1.8-3.3,3.3-4.8c1.2-1.5,3-2.7,4.8-3.6c1.8-0.9,3.9-1.5,6-1.5
		c1.8,0,3.9,0.3,5.7,1.2c1.8,0.9,3.3,1.8,4.8,3.3s2.7,3,3.3,4.8c0.9,1.8,1.2,3.6,1.2,5.7s-0.3,3.9-1.2,5.7c-0.9,1.8-1.8,3.3-3.3,4.8
		s-3,2.7-4.8,3.3c-1.8,0.9-3.9,1.2-6,1.2s-4.2-0.3-6-1.5c-1.8-0.9-3.6-2.1-4.8-3.3c-1.2-1.5-2.4-3-3.3-4.8
		C-4172.1,745.6-4172.4,743.8-4172.4,742z M-4170.3,770.8h25.8v92.4h-25.8V770.8z"/>
</g>
<rect x="-5133" y="906.7" fill="none" width="1206" height="273"/>
<text transform="matrix(1 0 0 1 -4953.9019 938.1348)" fill="#43304A" font-family="'NeuzeitSLT-Book'" font-size="42">The intelligent science publishing platform.</text>
<g>
	<path fill="#FFFFFF" d="M141.3,103.2c-0.3-3.9-1.8-6.9-4.2-9c-2.7-2.1-6.6-3.3-11.4-3.3c-3.6,0-6.6,0.6-9.3,2.1s-4.2,3.6-4.2,6.3
		c0,2.7,1.5,4.8,4.2,6s6.3,2.4,10.8,3.3c4.2,0.9,9,1.8,13.8,2.7c4.8,0.9,9.6,2.4,13.8,4.5s7.8,4.8,10.8,8.4
		c2.7,3.6,4.2,8.4,4.2,14.7c0,1.8-0.3,4.5-1.2,7.8c-0.9,3.6-2.7,6.9-5.7,10.2c-3,3.3-7.2,6.3-12.6,9c-5.7,2.4-13.2,3.9-22.5,3.9
		c-3.3,0-7.2-0.3-11.7-1.2c-4.5-0.6-8.7-2.1-12.9-4.2s-7.8-5.4-11.1-9.3c-3.3-4.2-5.1-9.6-5.4-16.5h25.8c0,2.4,0.6,4.2,1.5,5.7
		s2.1,3,3.6,3.9s3.3,1.8,5.1,2.4c1.8,0.6,3.6,0.6,5.7,0.6c1.8,0,3.3,0,5.1-0.3s3.3-0.9,4.8-1.5s2.7-1.8,3.6-3
		c0.9-1.2,1.5-2.7,1.5-4.8c0-2.4-1.5-4.5-4.2-5.7s-6.3-2.1-10.2-3c-4.2-0.9-8.4-1.8-13.2-2.7c-4.8-0.9-9.3-2.4-13.2-4.5
		c-4.2-2.1-7.5-4.8-10.2-8.7c-2.7-3.6-4.2-8.7-4.2-15c0-3.6,0.6-7.2,2.1-10.8c1.5-3.6,3.6-6.6,6.6-9.6c3-2.7,6.9-5.1,12-6.9
		c4.8-1.8,10.8-2.7,17.7-2.7c12,0,21.6,2.7,28.8,7.8s11.4,12.9,12,22.8L141.3,103.2z"/>
	<path fill="#FFFFFF" d="M236.4,109.8c0-3.3-0.6-6-1.5-8.1s-2.1-3.6-3.6-4.8c-1.5-1.2-3-1.8-4.8-2.4s-3.6-0.6-5.1-0.6
		c-3.9,0-7.2,0.9-9.6,2.7c-2.4,1.8-4.2,4.2-5.4,7.2s-2.1,6-2.4,9.3c-0.3,3.3-0.6,6.6-0.6,9.6s0.3,6.3,0.9,9.3c0.6,3,1.5,5.7,3,8.4
		c1.5,2.4,3.3,4.5,5.4,6c2.4,1.5,5.1,2.4,8.4,2.4c5.1,0,8.7-1.5,11.4-4.2s4.2-6.3,4.8-11.1l25.5,0.9c-0.9,5.1-2.4,9.6-4.5,14.1
		c-2.1,4.2-4.8,8.1-8.1,11.1s-7.2,5.7-12,7.2c-4.8,1.8-10.2,2.7-16.5,2.7c-7.5,0-14.1-1.2-19.8-3.6s-10.5-5.7-14.1-9.9
		c-3.9-4.2-6.6-9.3-8.7-15c-1.8-6-3-12.3-3-19.5c0-7.5,0.9-14.1,3-20.4c2.1-6,5.1-11.4,9-15.6s8.7-7.8,14.1-10.2s11.7-3.6,18.9-3.6
		c6.9,0,12.9,0.9,18,3s9.3,4.8,12.9,8.1c3.3,3.3,6,7.5,7.8,11.7c1.8,4.5,3,9,3.3,14.1L236.4,109.8z"/>
	<path fill="#FFFFFF" d="M271.5,45.8c0-1.8,0.3-3.9,1.2-5.7c0.9-1.8,1.8-3.3,3.3-4.8c1.2-1.5,3-2.7,4.8-3.6c1.8-0.9,3.9-1.5,6-1.5
		c1.8,0,3.9,0.3,5.7,1.2c1.8,0.9,3.3,1.8,4.8,3.3s2.7,3,3.3,4.8c0.9,1.8,1.2,3.6,1.2,5.7c0,2.1-0.3,3.9-1.2,5.7
		c-0.9,1.8-1.8,3.3-3.3,4.8s-3,2.7-4.8,3.3c-1.8,0.9-3.9,1.2-6,1.2s-4.2-0.3-6-1.5c-1.8-0.9-3.6-2.1-4.8-3.3c-1.2-1.5-2.4-3-3.3-4.8
		C272.1,49.5,271.5,47.7,271.5,45.8z M273.6,74.3h25.8v92.4h-25.8V74.3z"/>
	<path fill="#FFFFFF" d="M338.1,128c0.3,2.7,0.9,5.4,1.8,8.1s2.4,4.8,4.2,6.9c1.8,2.1,3.9,3.6,6.6,4.8c2.7,1.2,5.7,1.8,9,1.8
		c3.9,0,7.5-0.9,10.8-2.7c3.3-1.8,5.7-4.5,7.5-8.1l25.2,2.1c-3,9.6-8.7,16.5-16.5,21.6c-8.1,4.8-17.4,7.2-28.5,7.2
		c-6.9,0-13.5-1.2-19.2-3.3c-5.7-2.4-10.8-5.7-15-9.9c-4.2-4.2-7.5-9.3-9.6-15.3c-2.4-6-3.6-12.6-3.6-20.1c0-7.5,1.2-14.1,3.6-20.4
		c2.4-6,5.7-11.1,9.6-15.6c4.2-4.2,9-7.5,15-9.9c5.7-2.4,12.3-3.3,19.2-3.3s13.2,1.2,19.2,3.3c5.7,2.4,10.8,5.7,15,9.9
		c4.2,4.2,7.5,9.3,9.6,15.6c2.4,6,3.6,12.9,3.6,20.4v7.2h-67.5L338.1,128L338.1,128z M379.8,111.5c-0.3-2.4-0.9-4.5-1.8-6.9
		s-2.4-4.5-3.9-6.3c-1.8-1.8-3.6-3.6-6-4.8c-2.4-1.2-5.1-1.8-8.4-1.8s-6.3,0.6-8.7,1.5c-2.4,1.2-4.8,2.4-6.6,4.2
		c-1.8,1.8-3.3,3.9-4.2,6.3s-1.8,4.8-2.1,7.5h41.7V111.5z"/>
	<path fill="#FFFFFF" d="M476.7,110.7c0-3.3-0.3-6.3-1.2-8.4c-0.9-2.4-2.1-4.2-3.6-5.4c-1.5-1.5-3.3-2.4-5.1-3
		c-1.8-0.6-3.9-0.9-6-0.9c-5.4,0-9.3,2.1-12.3,6s-4.5,9.3-4.5,15.6v52.5h-25.8V74.4h24.9v12h0.3c3.9-5.7,8.1-9.6,12.6-11.4
		c4.5-2.1,9.6-3,14.7-3c5.4,0,10.2,0.9,14.4,2.4c4.2,1.8,7.5,3.9,10.2,6.9s4.8,6.3,6,10.2c1.2,3.9,1.8,8.1,1.8,12.6v62.7h-25.8
		v-56.1H476.7z"/>
	<path fill="#FFFFFF" d="M570.6,109.8c0-3.3-0.6-6-1.5-8.1s-2.1-3.6-3.6-4.8c-1.5-1.2-3-1.8-4.8-2.4s-3.6-0.6-5.1-0.6
		c-3.9,0-7.2,0.9-9.6,2.7c-2.4,1.8-4.2,4.2-5.4,7.2s-2.1,6-2.4,9.3c-0.3,3.3-0.6,6.6-0.6,9.6s0.3,6.3,0.9,9.3s1.5,5.7,3,8.4
		c1.5,2.4,3.3,4.5,5.4,6c2.4,1.5,5.1,2.4,8.4,2.4c5.1,0,8.7-1.5,11.4-4.2s4.2-6.3,4.8-11.1l25.5,0.9c-0.9,5.1-2.4,9.6-4.5,14.1
		c-2.1,4.2-4.8,8.1-8.1,11.1s-7.2,5.7-12,7.2c-4.8,1.8-10.2,2.7-16.5,2.7c-7.5,0-14.1-1.2-19.8-3.6s-10.5-5.7-14.1-9.9
		c-3.9-4.2-6.6-9.3-8.7-15c-1.8-6-3-12.3-3-19.5c0-7.5,0.9-14.1,3-20.4c2.1-6,5.1-11.4,9-15.6s8.7-7.8,14.1-10.2
		c5.4-2.4,11.7-3.6,18.9-3.6c6.9,0,12.9,0.9,18,3s9.3,4.8,12.9,8.1c3.3,3.3,6,7.5,7.8,11.7c1.8,4.5,3,9,3.3,14.1L570.6,109.8z"/>
	<path fill="#FFFFFF" d="M633.3,128c0.3,2.7,0.9,5.4,1.8,8.1s2.4,4.8,4.2,6.9s3.9,3.6,6.6,4.8c2.7,1.2,5.7,1.8,9,1.8
		c3.9,0,7.5-0.9,10.8-2.7c3.3-1.8,5.7-4.5,7.5-8.1l25.2,2.1c-3,9.6-8.7,16.5-16.5,21.6c-8.1,4.8-17.4,7.2-28.5,7.2
		c-6.9,0-13.5-1.2-19.2-3.3c-5.7-2.4-10.8-5.7-15-9.9c-4.2-4.2-7.5-9.3-9.6-15.3c-2.4-6-3.6-12.6-3.6-20.1c0-7.5,1.2-14.1,3.6-20.4
		c2.4-6,5.7-11.1,9.6-15.6c4.2-4.2,9-7.5,15-9.9c5.7-2.4,12.3-3.3,19.2-3.3s13.2,1.2,19.2,3.3c5.7,2.4,10.8,5.7,15,9.9
		c4.2,4.2,7.5,9.3,9.6,15.6c2.4,6,3.6,12.9,3.6,20.4v7.2h-67.5L633.3,128L633.3,128z M675,111.5c-0.3-2.4-0.9-4.5-1.8-6.9
		c-0.9-2.4-2.4-4.5-3.9-6.3c-1.8-1.8-3.6-3.6-6-4.8c-2.4-1.2-5.1-1.8-8.4-1.8s-6.3,0.6-8.7,1.5c-2.4,1.2-4.8,2.4-6.6,4.2
		c-1.8,1.8-3.3,3.9-4.2,6.3s-1.8,4.8-2.1,7.5H675V111.5z"/>
	<path fill="#FFFFFF" d="M706.8,153.9c0-4.2,1.5-7.8,4.5-10.8s6.6-4.5,10.8-4.5s7.8,1.5,10.8,4.5s4.5,6.6,4.5,10.8
		s-1.5,7.8-4.5,10.8s-6.6,4.5-10.8,4.5s-7.8-1.5-10.8-4.5S706.8,158,706.8,153.9z"/>
	<path fill="#FFFFFF" d="M808.5,154.8h-0.3c-4.2,5.7-9.3,9.6-15,11.4c-5.7,2.1-11.4,3-16.5,3c-3.6,0-7.2-0.6-11.1-1.5
		s-7.5-2.4-10.5-4.8c-3.3-2.1-5.7-5.1-7.8-8.7s-3-8.1-3-13.2c0-2.4,0.3-5.4,1.2-8.4c0.6-3,2.4-6,5.1-8.7c2.7-2.7,6.6-5.1,12-7.2
		s12.3-3.3,21.3-4.2l24-1.5v-4.2c0-5.4-1.5-9.6-4.8-12.3c-3.3-2.7-7.8-4.2-13.5-4.2c-5.4,0-9.6,1.2-12.6,3.6s-4.5,5.7-4.8,9.9H747
		c0.3-3.6,1.2-7.2,2.7-11.1s3.9-7.2,7.2-10.5s7.8-5.7,13.2-7.8s12.3-3,20.4-3c5.7,0,11.1,0.6,16.2,1.8c5.1,1.2,9.6,3,13.2,5.4
		c3.9,2.4,6.9,5.4,9,9.3s3.3,8.4,3.3,13.5V155c0,2.4,0,4.5,0.3,6.3s0.6,3.6,0.9,5.1h-24.9L808.5,154.8L808.5,154.8z M807.3,126.5
		l-21.6,2.1c-6,0.6-10.2,1.8-12.3,3.6c-2.4,1.8-3.3,4.5-3.3,7.8c0,2.1,0.3,3.9,1.5,5.1c0.9,1.5,2.1,2.4,3.6,3.3s3,1.5,5.1,1.8
		s4.2,0.6,6.3,0.6s4.2-0.3,6.6-0.9c2.4-0.6,4.8-1.5,6.9-2.7c2.1-1.2,3.9-3,5.4-4.8s2.1-4.2,2.1-7.2v-8.7L807.3,126.5L807.3,126.5z"
		/>
	<path fill="#FFFFFF" d="M843.6,45.8c0-1.8,0.3-3.9,1.2-5.7s1.8-3.3,3.3-4.8c1.2-1.5,3-2.7,4.8-3.6c1.8-0.9,3.9-1.5,6-1.5
		c1.8,0,3.9,0.3,5.7,1.2s3.3,1.8,4.8,3.3s2.7,3,3.3,4.8c0.9,1.8,1.2,3.6,1.2,5.7c0,2.1-0.3,3.9-1.2,5.7s-1.8,3.3-3.3,4.8
		s-3,2.7-4.8,3.3c-1.8,0.9-3.9,1.2-6,1.2s-4.2-0.3-6-1.5c-1.8-0.9-3.6-2.1-4.8-3.3c-1.2-1.5-2.4-3-3.3-4.8
		C843.9,49.5,843.6,47.7,843.6,45.8z M845.7,74.3h25.8v92.4h-25.8V74.3z"/>
</g>
<g>
	<path fill="#43304A" d="M-2894.7,744.4c-0.3-3.9-1.8-6.9-4.2-9c-2.7-2.1-6.6-3.3-11.4-3.3c-3.6,0-6.6,0.6-9.3,2.1s-4.2,3.6-4.2,6.3
		s1.5,4.8,4.2,6s6.3,2.4,10.8,3.3c4.2,0.9,9,1.8,13.8,2.7s9.6,2.4,13.8,4.5s7.8,4.8,10.8,8.4c2.7,3.6,4.2,8.4,4.2,14.7
		c0,1.8-0.3,4.5-1.2,7.8c-0.9,3.6-2.7,6.9-5.7,10.2s-7.2,6.3-12.6,9c-5.7,2.4-13.2,3.9-22.5,3.9c-3.3,0-7.2-0.3-11.7-1.2
		c-4.5-0.6-8.7-2.1-12.9-4.2s-7.8-5.4-11.1-9.3c-3.3-4.2-5.1-9.6-5.4-16.5h25.8c0,2.4,0.6,4.2,1.5,5.7s2.1,3,3.6,3.9
		s3.3,1.8,5.1,2.4c1.8,0.6,3.6,0.6,5.7,0.6c1.8,0,3.3,0,5.1-0.3s3.3-0.9,4.8-1.5s2.7-1.8,3.6-3c0.9-1.2,1.5-2.7,1.5-4.8
		c0-2.4-1.5-4.5-4.2-5.7s-6.3-2.1-10.2-3c-4.2-0.9-8.4-1.8-13.2-2.7s-9.3-2.4-13.2-4.5c-4.2-2.1-7.5-4.8-10.2-8.7
		c-2.7-3.6-4.2-8.7-4.2-15c0-3.6,0.6-7.2,2.1-10.8s3.6-6.6,6.6-9.6c3-2.7,6.9-5.1,12-6.9c4.8-1.8,10.8-2.7,17.7-2.7
		c12,0,21.6,2.7,28.8,7.8s11.4,12.9,12,22.8L-2894.7,744.4z"/>
	<path fill="#43304A" d="M-2799.6,751.3c0-3.3-0.6-6-1.5-8.1s-2.1-3.6-3.6-4.8s-3-1.8-4.8-2.4s-3.6-0.6-5.1-0.6
		c-3.9,0-7.2,0.9-9.6,2.7c-2.4,1.8-4.2,4.2-5.4,7.2s-2.1,6-2.4,9.3c-0.3,3.3-0.6,6.6-0.6,9.6s0.3,6.3,0.9,9.3c0.6,3,1.5,5.7,3,8.4
		c1.5,2.4,3.3,4.5,5.4,6c2.4,1.5,5.1,2.4,8.4,2.4c5.1,0,8.7-1.5,11.4-4.2s4.2-6.3,4.8-11.1l25.5,0.9c-0.9,5.1-2.4,9.6-4.5,14.1
		c-2.1,4.2-4.8,8.1-8.1,11.1s-7.2,5.7-12,7.2c-4.8,1.8-10.2,2.7-16.5,2.7c-7.5,0-14.1-1.2-19.8-3.6c-5.7-2.4-10.5-5.7-14.1-9.9
		c-3.9-4.2-6.6-9.3-8.7-15c-1.8-6-3-12.3-3-19.5c0-7.5,0.9-14.1,3-20.4c2.1-6,5.1-11.4,9-15.6s8.7-7.8,14.1-10.2
		c5.4-2.4,11.7-3.6,18.9-3.6c6.9,0,12.9,0.9,18,3s9.3,4.8,12.9,8.1c3.3,3.3,6,7.5,7.8,11.7c1.8,4.5,3,9,3.3,14.1L-2799.6,751.3z"/>
	<path fill="#43304A" d="M-2764.5,687.1c0-1.8,0.3-3.9,1.2-5.7s1.8-3.3,3.3-4.8c1.2-1.5,3-2.7,4.8-3.6c1.8-0.9,3.9-1.5,6-1.5
		c1.8,0,3.9,0.3,5.7,1.2s3.3,1.8,4.8,3.3s2.7,3,3.3,4.8c0.9,1.8,1.2,3.6,1.2,5.7s-0.3,3.9-1.2,5.7s-1.8,3.3-3.3,4.8s-3,2.7-4.8,3.3
		c-1.8,0.9-3.9,1.2-6,1.2s-4.2-0.3-6-1.5c-1.8-0.9-3.6-2.1-4.8-3.3c-1.2-1.5-2.4-3-3.3-4.8C-2763.9,690.7-2764.5,688.9-2764.5,687.1
		z M-2762.4,715.9h25.8v92.4h-25.8V715.9z"/>
	<path fill="#43304A" d="M-2697.9,769.6c0.3,2.7,0.9,5.4,1.8,8.1c0.9,2.7,2.4,4.8,4.2,6.9c1.8,2.1,3.9,3.6,6.6,4.8
		c2.7,1.2,5.7,1.8,9,1.8c3.9,0,7.5-0.9,10.8-2.7s5.7-4.5,7.5-8.1l25.2,2.1c-3,9.6-8.7,16.5-16.5,21.6c-8.1,4.8-17.4,7.2-28.5,7.2
		c-6.9,0-13.5-1.2-19.2-3.3c-5.7-2.4-10.8-5.7-15-9.9s-7.5-9.3-9.6-15.3c-2.4-6-3.6-12.6-3.6-20.1s1.2-14.1,3.6-20.4
		c2.4-6,5.7-11.1,9.6-15.6c4.2-4.2,9-7.5,15-9.9c5.7-2.4,12.3-3.3,19.2-3.3s13.2,1.2,19.2,3.3c5.7,2.4,10.8,5.7,15,9.9
		s7.5,9.3,9.6,15.6c2.4,6,3.6,12.9,3.6,20.4v7.2h-67.5L-2697.9,769.6L-2697.9,769.6z M-2656.2,752.8c-0.3-2.4-0.9-4.5-1.8-6.9
		s-2.4-4.5-3.9-6.3c-1.8-1.8-3.6-3.6-6-4.8s-5.1-1.8-8.4-1.8c-3.3,0-6.3,0.6-8.7,1.5c-2.4,1.2-4.8,2.4-6.6,4.2s-3.3,3.9-4.2,6.3
		c-0.9,2.4-1.8,4.8-2.1,7.5h41.7V752.8z"/>
	<path fill="#43304A" d="M-2559.3,751.9c0-3.3-0.3-6.3-1.2-8.4c-0.9-2.4-2.1-4.2-3.6-5.4c-1.5-1.5-3.3-2.4-5.1-3s-3.9-0.9-6-0.9
		c-5.4,0-9.3,2.1-12.3,6s-4.5,9.3-4.5,15.6v52.5h-25.8v-92.4h24.9v12h0.3c3.9-5.7,8.1-9.6,12.6-11.4c4.5-2.1,9.6-3,14.7-3
		c5.4,0,10.2,0.9,14.4,2.4c4.2,1.8,7.5,3.9,10.2,6.9s4.8,6.3,6,10.2s1.8,8.1,1.8,12.6v62.7h-25.8v-56.4L-2559.3,751.9L-2559.3,751.9
		z"/>
	<path fill="#43304A" d="M-2465.4,751.3c0-3.3-0.6-6-1.5-8.1s-2.1-3.6-3.6-4.8s-3-1.8-4.8-2.4c-1.8-0.6-3.6-0.6-5.1-0.6
		c-3.9,0-7.2,0.9-9.6,2.7c-2.4,1.8-4.2,4.2-5.4,7.2s-2.1,6-2.4,9.3c-0.3,3.3-0.6,6.6-0.6,9.6s0.3,6.3,0.9,9.3s1.5,5.7,3,8.4
		c1.5,2.4,3.3,4.5,5.4,6c2.4,1.5,5.1,2.4,8.4,2.4c5.1,0,8.7-1.5,11.4-4.2s4.2-6.3,4.8-11.1l25.5,0.9c-0.9,5.1-2.4,9.6-4.5,14.1
		c-2.1,4.2-4.8,8.1-8.1,11.1s-7.2,5.7-12,7.2c-4.8,1.8-10.2,2.7-16.5,2.7c-7.5,0-14.1-1.2-19.8-3.6s-10.5-5.7-14.1-9.9
		c-3.9-4.2-6.6-9.3-8.7-15c-1.8-6-3-12.3-3-19.5c0-7.5,0.9-14.1,3-20.4c2.1-6,5.1-11.4,9-15.6s8.7-7.8,14.1-10.2
		c5.4-2.4,11.7-3.6,18.9-3.6c6.9,0,12.9,0.9,18,3s9.3,4.8,12.9,8.1c3.3,3.3,6,7.5,7.8,11.7c1.8,4.5,3,9,3.3,14.1L-2465.4,751.3z"/>
	<path fill="#43304A" d="M-2402.7,769.6c0.3,2.7,0.9,5.4,1.8,8.1c0.9,2.7,2.4,4.8,4.2,6.9s3.9,3.6,6.6,4.8c2.7,1.2,5.7,1.8,9,1.8
		c3.9,0,7.5-0.9,10.8-2.7s5.7-4.5,7.5-8.1l25.2,2.1c-3,9.6-8.7,16.5-16.5,21.6c-8.1,4.8-17.4,7.2-28.5,7.2c-6.9,0-13.5-1.2-19.2-3.3
		c-5.7-2.4-10.8-5.7-15-9.9s-7.5-9.3-9.6-15.3c-2.4-6-3.6-12.6-3.6-20.1s1.2-14.1,3.6-20.4c2.4-6,5.7-11.1,9.6-15.6
		c4.2-4.2,9-7.5,15-9.9c5.7-2.4,12.3-3.3,19.2-3.3s13.2,1.2,19.2,3.3c5.7,2.4,10.8,5.7,15,9.9s7.5,9.3,9.6,15.6
		c2.4,6,3.6,12.9,3.6,20.4v7.2h-67.5L-2402.7,769.6L-2402.7,769.6z M-2361,752.8c-0.3-2.4-0.9-4.5-1.8-6.9c-0.9-2.4-2.4-4.5-3.9-6.3
		c-1.8-1.8-3.6-3.6-6-4.8s-5.1-1.8-8.4-1.8s-6.3,0.6-8.7,1.5c-2.4,1.2-4.8,2.4-6.6,4.2s-3.3,3.9-4.2,6.3c-0.9,2.4-1.8,4.8-2.1,7.5
		h41.7V752.8z"/>
	<path fill="#43304A" d="M-2329.2,795.4c0-4.2,1.5-7.8,4.5-10.8s6.6-4.5,10.8-4.5s7.8,1.5,10.8,4.5s4.5,6.6,4.5,10.8
		s-1.5,7.8-4.5,10.8s-6.6,4.5-10.8,4.5s-7.8-1.5-10.8-4.5S-2329.2,799.6-2329.2,795.4z"/>
	<path fill="#43304A" d="M-2227.5,796.3h-0.3c-4.2,5.7-9.3,9.6-15,11.4c-5.7,2.1-11.4,3-16.5,3c-3.6,0-7.2-0.6-11.1-1.5
		c-3.9-0.9-7.5-2.4-10.5-4.8c-3.3-2.1-5.7-5.1-7.8-8.7c-2.1-3.6-3-8.1-3-13.2c0-2.4,0.3-5.4,1.2-8.4c0.6-3,2.4-6,5.1-8.7
		c2.7-2.7,6.6-5.1,12-7.2c5.4-2.1,12.3-3.3,21.3-4.2l24-1.5v-4.2c0-5.4-1.5-9.6-4.8-12.3s-7.8-4.2-13.5-4.2c-5.4,0-9.6,1.2-12.6,3.6
		c-3,2.4-4.5,5.7-4.8,9.9h-24.9c0.3-3.6,1.2-7.2,2.7-11.1c1.5-3.9,3.9-7.2,7.2-10.5s7.8-5.7,13.2-7.8s12.3-3,20.4-3
		c5.7,0,11.1,0.6,16.2,1.8c5.1,1.2,9.6,3,13.2,5.4c3.9,2.4,6.9,5.4,9,9.3s3.3,8.4,3.3,13.5v53.7c0,2.4,0,4.5,0.3,6.3
		s0.6,3.6,0.9,5.1h-24.9v-11.7L-2227.5,796.3L-2227.5,796.3z M-2228.7,768.1l-21.6,2.1c-6,0.6-10.2,1.8-12.3,3.6
		c-2.4,1.8-3.3,4.5-3.3,7.8c0,2.1,0.3,3.9,1.5,5.1c0.9,1.5,2.1,2.4,3.6,3.3s3,1.5,5.1,1.8s4.2,0.6,6.3,0.6s4.2-0.3,6.6-0.9
		c2.4-0.6,4.8-1.5,6.9-2.7c2.1-1.2,3.9-3,5.4-4.8s2.1-4.2,2.1-7.2v-8.7L-2228.7,768.1L-2228.7,768.1z"/>
	<path fill="#43304A" d="M-2192.4,687.1c0-1.8,0.3-3.9,1.2-5.7s1.8-3.3,3.3-4.8c1.2-1.5,3-2.7,4.8-3.6c1.8-0.9,3.9-1.5,6-1.5
		c1.8,0,3.9,0.3,5.7,1.2s3.3,1.8,4.8,3.3s2.7,3,3.3,4.8c0.9,1.8,1.2,3.6,1.2,5.7s-0.3,3.9-1.2,5.7s-1.8,3.3-3.3,4.8s-3,2.7-4.8,3.3
		c-1.8,0.9-3.9,1.2-6,1.2s-4.2-0.3-6-1.5c-1.8-0.9-3.6-2.1-4.8-3.3c-1.2-1.5-2.4-3-3.3-4.8C-2192.1,690.7-2192.4,688.9-2192.4,687.1
		z M-2190.3,715.9h25.8v92.4h-25.8V715.9z"/>
</g>
<rect x="-3513" y="892" fill="none" width="1920" height="273"/>
<text transform="matrix(1 0 0 1 -3270.6558 932.6069)" fill="#43304A" font-family="'NeuzeitSLT-Book'" font-size="54" letter-spacing="1">The modern science publishing platform.</text>
</svg>
